STARTFONT 2.1
COMMENT
COMMENT Converted from OpenType font "tahoma.ttf" by "otf2bdf 3.0".
COMMENT
FONT -FreeType-Tahoma-Medium-R-Normal--10-70-100-100-P-55-ISO10646-1
SIZE 7 100 100
FONTBOUNDINGBOX 24 16 -6 -4
STARTPROPERTIES 19
FOUNDRY "FreeType"
FAMILY_NAME "Tahoma"
WEIGHT_NAME "Medium"
SLANT "R"
SETWIDTH_NAME "Normal"
ADD_STYLE_NAME ""
PIXEL_SIZE 10
POINT_SIZE 70
RESOLUTION_X 100
RESOLUTION_Y 100
SPACING "P"
AVERAGE_WIDTH 55
CHARSET_REGISTRY "ISO10646"
CHARSET_ENCODING "1"
FONT_ASCENT 10
FONT_DESCENT 2
COPYRIGHT "© 2018 Microsoft Corporation. All rights reserved.    Hebrew OpenType Layout logic copyright © 2003 & 2007, Ralph Hancock & John Hudson. This layout logic for Biblical Hebrew is open source software under the MIT License; see embedded license description for details."
_OTF_FONTFILE "tahoma.ttf"
_OTF_PSNAME "Tahoma"
ENDPROPERTIES
CHARS 3728
STARTCHAR 0020
ENCODING 32
SWIDTH 308 0
DWIDTH 3 0
BBX 0 0 0 0
BITMAP
ENDCHAR
STARTCHAR 0021
ENCODING 33
SWIDTH 308 0
DWIDTH 3 0
BBX 1 7 1 0
BITMAP
80
80
80
80
80
00
80
ENDCHAR
STARTCHAR 0022
ENCODING 34
SWIDTH 411 0
DWIDTH 4 0
BBX 2 3 1 5
BITMAP
C0
C0
C0
ENDCHAR
STARTCHAR 0023
ENCODING 35
SWIDTH 720 0
DWIDTH 7 0
BBX 6 7 1 0
BITMAP
28
28
FC
50
F8
50
A0
ENDCHAR
STARTCHAR 0024
ENCODING 36
SWIDTH 514 0
DWIDTH 5 0
BBX 4 9 1 -2
BITMAP
40
F0
C0
C0
30
50
E0
40
40
ENDCHAR
STARTCHAR 0025
ENCODING 37
SWIDTH 1028 0
DWIDTH 10 0
BBX 9 7 0 0
BITMAP
7200
9400
9400
7B80
0A80
1280
1380
ENDCHAR
STARTCHAR 0026
ENCODING 38
SWIDTH 720 0
DWIDTH 7 0
BBX 7 7 0 0
BITMAP
70
50
50
64
94
8C
76
ENDCHAR
STARTCHAR 0027
ENCODING 39
SWIDTH 205 0
DWIDTH 2 0
BBX 1 3 1 5
BITMAP
80
80
80
ENDCHAR
STARTCHAR 0028
ENCODING 40
SWIDTH 411 0
DWIDTH 4 0
BBX 2 10 1 -2
BITMAP
40
80
80
80
80
80
80
80
80
40
ENDCHAR
STARTCHAR 0029
ENCODING 41
SWIDTH 411 0
DWIDTH 4 0
BBX 2 10 1 -2
BITMAP
80
80
40
40
40
40
40
40
80
80
ENDCHAR
STARTCHAR 002A
ENCODING 42
SWIDTH 514 0
DWIDTH 5 0
BBX 4 5 1 3
BITMAP
40
F0
40
F0
40
ENDCHAR
STARTCHAR 002B
ENCODING 43
SWIDTH 720 0
DWIDTH 7 0
BBX 6 5 1 1
BITMAP
20
20
FC
20
20
ENDCHAR
STARTCHAR 002C
ENCODING 44
SWIDTH 308 0
DWIDTH 3 0
BBX 2 3 0 -1
BITMAP
40
40
80
ENDCHAR
STARTCHAR 002D
ENCODING 45
SWIDTH 411 0
DWIDTH 4 0
BBX 3 1 0 3
BITMAP
E0
ENDCHAR
STARTCHAR 002E
ENCODING 46
SWIDTH 308 0
DWIDTH 3 0
BBX 1 2 1 0
BITMAP
80
80
ENDCHAR
STARTCHAR 002F
ENCODING 47
SWIDTH 411 0
DWIDTH 4 0
BBX 3 10 0 -2
BITMAP
20
20
20
20
40
40
40
40
80
80
ENDCHAR
STARTCHAR 0030
ENCODING 48
SWIDTH 514 0
DWIDTH 5 0
BBX 5 7 0 0
BITMAP
70
48
88
88
88
48
70
ENDCHAR
STARTCHAR 0031
ENCODING 49
SWIDTH 514 0
DWIDTH 5 0
BBX 4 7 1 0
BITMAP
40
C0
40
40
40
40
F0
ENDCHAR
STARTCHAR 0032
ENCODING 50
SWIDTH 514 0
DWIDTH 5 0
BBX 4 7 1 0
BITMAP
E0
10
10
20
40
80
F0
ENDCHAR
STARTCHAR 0033
ENCODING 51
SWIDTH 514 0
DWIDTH 5 0
BBX 5 7 0 0
BITMAP
70
08
08
30
08
08
F0
ENDCHAR
STARTCHAR 0034
ENCODING 52
SWIDTH 514 0
DWIDTH 5 0
BBX 5 7 0 0
BITMAP
10
30
50
90
F8
10
10
ENDCHAR
STARTCHAR 0035
ENCODING 53
SWIDTH 514 0
DWIDTH 5 0
BBX 4 7 1 0
BITMAP
F0
80
80
E0
10
10
E0
ENDCHAR
STARTCHAR 0036
ENCODING 54
SWIDTH 514 0
DWIDTH 5 0
BBX 5 7 0 0
BITMAP
38
40
40
F8
88
48
70
ENDCHAR
STARTCHAR 0037
ENCODING 55
SWIDTH 514 0
DWIDTH 5 0
BBX 5 7 0 0
BITMAP
F8
08
10
10
20
20
40
ENDCHAR
STARTCHAR 0038
ENCODING 56
SWIDTH 514 0
DWIDTH 5 0
BBX 5 7 0 0
BITMAP
70
48
48
70
88
C8
70
ENDCHAR
STARTCHAR 0039
ENCODING 57
SWIDTH 514 0
DWIDTH 5 0
BBX 5 7 0 0
BITMAP
70
88
88
78
08
18
70
ENDCHAR
STARTCHAR 003A
ENCODING 58
SWIDTH 411 0
DWIDTH 4 0
BBX 1 5 1 0
BITMAP
80
80
00
80
80
ENDCHAR
STARTCHAR 003B
ENCODING 59
SWIDTH 411 0
DWIDTH 4 0
BBX 1 6 1 -1
BITMAP
80
80
00
80
80
80
ENDCHAR
STARTCHAR 003C
ENCODING 60
SWIDTH 720 0
DWIDTH 7 0
BBX 5 5 1 0
BITMAP
08
70
80
70
08
ENDCHAR
STARTCHAR 003D
ENCODING 61
SWIDTH 720 0
DWIDTH 7 0
BBX 5 3 1 2
BITMAP
F8
00
F8
ENDCHAR
STARTCHAR 003E
ENCODING 62
SWIDTH 720 0
DWIDTH 7 0
BBX 5 5 1 0
BITMAP
80
70
08
70
80
ENDCHAR
STARTCHAR 003F
ENCODING 63
SWIDTH 514 0
DWIDTH 5 0
BBX 3 7 1 0
BITMAP
E0
20
20
40
40
00
40
ENDCHAR
STARTCHAR 0040
ENCODING 64
SWIDTH 925 0
DWIDTH 9 0
BBX 7 8 1 -1
BITMAP
3C
C2
BA
AA
AA
BE
C0
38
ENDCHAR
STARTCHAR 0041
ENCODING 65
SWIDTH 617 0
DWIDTH 6 0
BBX 6 7 0 0
BITMAP
30
30
48
48
78
84
84
ENDCHAR
STARTCHAR 0042
ENCODING 66
SWIDTH 617 0
DWIDTH 6 0
BBX 5 7 1 0
BITMAP
F0
90
90
F0
88
98
F0
ENDCHAR
STARTCHAR 0043
ENCODING 67
SWIDTH 617 0
DWIDTH 6 0
BBX 6 7 0 0
BITMAP
3C
44
80
80
80
44
38
ENDCHAR
STARTCHAR 0044
ENCODING 68
SWIDTH 720 0
DWIDTH 7 0
BBX 5 7 1 0
BITMAP
F0
88
88
88
88
88
F0
ENDCHAR
STARTCHAR 0045
ENCODING 69
SWIDTH 617 0
DWIDTH 6 0
BBX 4 7 1 0
BITMAP
F0
80
80
F0
80
80
F0
ENDCHAR
STARTCHAR 0046
ENCODING 70
SWIDTH 514 0
DWIDTH 5 0
BBX 4 7 1 0
BITMAP
F0
80
80
F0
80
80
80
ENDCHAR
STARTCHAR 0047
ENCODING 71
SWIDTH 720 0
DWIDTH 7 0
BBX 6 7 0 0
BITMAP
3C
44
80
8C
84
44
3C
ENDCHAR
STARTCHAR 0048
ENCODING 72
SWIDTH 720 0
DWIDTH 7 0
BBX 5 7 1 0
BITMAP
88
88
88
F8
88
88
88
ENDCHAR
STARTCHAR 0049
ENCODING 73
SWIDTH 411 0
DWIDTH 4 0
BBX 3 7 0 0
BITMAP
E0
40
40
40
40
40
E0
ENDCHAR
STARTCHAR 004A
ENCODING 74
SWIDTH 411 0
DWIDTH 4 0
BBX 3 7 0 0
BITMAP
60
20
20
20
20
20
E0
ENDCHAR
STARTCHAR 004B
ENCODING 75
SWIDTH 617 0
DWIDTH 6 0
BBX 5 7 1 0
BITMAP
90
A0
C0
C0
A0
90
98
ENDCHAR
STARTCHAR 004C
ENCODING 76
SWIDTH 514 0
DWIDTH 5 0
BBX 4 7 1 0
BITMAP
80
80
80
80
80
80
F0
ENDCHAR
STARTCHAR 004D
ENCODING 77
SWIDTH 822 0
DWIDTH 8 0
BBX 6 7 1 0
BITMAP
8C
CC
CC
B4
B4
A4
84
ENDCHAR
STARTCHAR 004E
ENCODING 78
SWIDTH 720 0
DWIDTH 7 0
BBX 5 7 1 0
BITMAP
88
C8
C8
A8
98
98
88
ENDCHAR
STARTCHAR 004F
ENCODING 79
SWIDTH 720 0
DWIDTH 7 0
BBX 7 7 0 0
BITMAP
38
44
82
82
82
44
38
ENDCHAR
STARTCHAR 0050
ENCODING 80
SWIDTH 617 0
DWIDTH 6 0
BBX 4 7 1 0
BITMAP
E0
90
90
90
E0
80
80
ENDCHAR
STARTCHAR 0051
ENCODING 81
SWIDTH 720 0
DWIDTH 7 0
BBX 7 9 0 -2
BITMAP
38
44
82
82
82
44
38
08
0E
ENDCHAR
STARTCHAR 0052
ENCODING 82
SWIDTH 617 0
DWIDTH 6 0
BBX 5 7 1 0
BITMAP
F0
90
90
E0
A0
90
88
ENDCHAR
STARTCHAR 0053
ENCODING 83
SWIDTH 617 0
DWIDTH 6 0
BBX 5 7 0 0
BITMAP
78
C0
40
70
08
08
F8
ENDCHAR
STARTCHAR 0054
ENCODING 84
SWIDTH 617 0
DWIDTH 6 0
BBX 6 7 0 0
BITMAP
FC
20
20
20
20
20
20
ENDCHAR
STARTCHAR 0055
ENCODING 85
SWIDTH 720 0
DWIDTH 7 0
BBX 5 7 1 0
BITMAP
88
88
88
88
88
88
F0
ENDCHAR
STARTCHAR 0056
ENCODING 86
SWIDTH 617 0
DWIDTH 6 0
BBX 6 7 0 0
BITMAP
84
C8
48
48
30
30
30
ENDCHAR
STARTCHAR 0057
ENCODING 87
SWIDTH 925 0
DWIDTH 9 0
BBX 9 7 0 0
BITMAP
8880
4880
5500
5500
5500
2500
2200
ENDCHAR
STARTCHAR 0058
ENCODING 88
SWIDTH 617 0
DWIDTH 6 0
BBX 5 7 0 0
BITMAP
C8
48
30
30
30
48
88
ENDCHAR
STARTCHAR 0059
ENCODING 89
SWIDTH 617 0
DWIDTH 6 0
BBX 6 7 0 0
BITMAP
8C
48
70
30
20
20
20
ENDCHAR
STARTCHAR 005A
ENCODING 90
SWIDTH 617 0
DWIDTH 6 0
BBX 5 7 0 0
BITMAP
F8
08
10
20
60
40
F8
ENDCHAR
STARTCHAR 005B
ENCODING 91
SWIDTH 411 0
DWIDTH 4 0
BBX 2 10 1 -2
BITMAP
C0
80
80
80
80
80
80
80
80
C0
ENDCHAR
STARTCHAR 005C
ENCODING 92
SWIDTH 411 0
DWIDTH 4 0
BBX 4 10 0 -2
BITMAP
80
40
40
40
40
20
20
20
10
10
ENDCHAR
STARTCHAR 005D
ENCODING 93
SWIDTH 411 0
DWIDTH 4 0
BBX 3 10 0 -2
BITMAP
E0
20
20
20
20
20
20
20
20
E0
ENDCHAR
STARTCHAR 005E
ENCODING 94
SWIDTH 720 0
DWIDTH 7 0
BBX 5 3 1 4
BITMAP
20
50
88
ENDCHAR
STARTCHAR 005F
ENCODING 95
SWIDTH 514 0
DWIDTH 5 0
BBX 6 1 0 -2
BITMAP
FC
ENDCHAR
STARTCHAR 0060
ENCODING 96
SWIDTH 514 0
DWIDTH 5 0
BBX 1 2 2 6
BITMAP
80
80
ENDCHAR
STARTCHAR 0061
ENCODING 97
SWIDTH 514 0
DWIDTH 5 0
BBX 5 5 0 0
BITMAP
70
08
78
88
78
ENDCHAR
STARTCHAR 0062
ENCODING 98
SWIDTH 617 0
DWIDTH 6 0
BBX 4 8 1 0
BITMAP
80
80
80
F0
90
90
90
E0
ENDCHAR
STARTCHAR 0063
ENCODING 99
SWIDTH 514 0
DWIDTH 5 0
BBX 4 5 0 0
BITMAP
70
C0
80
C0
70
ENDCHAR
STARTCHAR 0064
ENCODING 100
SWIDTH 617 0
DWIDTH 6 0
BBX 5 8 0 0
BITMAP
08
08
08
78
C8
88
88
78
ENDCHAR
STARTCHAR 0065
ENCODING 101
SWIDTH 514 0
DWIDTH 5 0
BBX 5 5 0 0
BITMAP
70
88
F8
80
78
ENDCHAR
STARTCHAR 0066
ENCODING 102
SWIDTH 308 0
DWIDTH 3 0
BBX 4 8 0 0
BITMAP
70
40
40
E0
40
40
40
40
ENDCHAR
STARTCHAR 0067
ENCODING 103
SWIDTH 617 0
DWIDTH 6 0
BBX 5 7 0 -2
BITMAP
78
C8
88
88
78
08
70
ENDCHAR
STARTCHAR 0068
ENCODING 104
SWIDTH 617 0
DWIDTH 6 0
BBX 4 8 1 0
BITMAP
80
80
80
F0
90
90
90
90
ENDCHAR
STARTCHAR 0069
ENCODING 105
SWIDTH 205 0
DWIDTH 2 0
BBX 1 7 1 0
BITMAP
80
00
80
80
80
80
80
ENDCHAR
STARTCHAR 006A
ENCODING 106
SWIDTH 308 0
DWIDTH 3 0
BBX 2 9 0 -2
BITMAP
40
00
C0
40
40
40
40
40
C0
ENDCHAR
STARTCHAR 006B
ENCODING 107
SWIDTH 514 0
DWIDTH 5 0
BBX 4 8 1 0
BITMAP
80
80
80
A0
C0
C0
A0
90
ENDCHAR
STARTCHAR 006C
ENCODING 108
SWIDTH 205 0
DWIDTH 2 0
BBX 1 8 1 0
BITMAP
80
80
80
80
80
80
80
80
ENDCHAR
STARTCHAR 006D
ENCODING 109
SWIDTH 822 0
DWIDTH 8 0
BBX 7 5 1 0
BITMAP
EC
92
92
92
92
ENDCHAR
STARTCHAR 006E
ENCODING 110
SWIDTH 617 0
DWIDTH 6 0
BBX 4 5 1 0
BITMAP
F0
90
90
90
90
ENDCHAR
STARTCHAR 006F
ENCODING 111
SWIDTH 514 0
DWIDTH 5 0
BBX 5 5 0 0
BITMAP
70
88
88
C8
70
ENDCHAR
STARTCHAR 0070
ENCODING 112
SWIDTH 617 0
DWIDTH 6 0
BBX 4 7 1 -2
BITMAP
F0
90
90
90
E0
80
80
ENDCHAR
STARTCHAR 0071
ENCODING 113
SWIDTH 617 0
DWIDTH 6 0
BBX 5 7 0 -2
BITMAP
78
C8
88
88
78
08
08
ENDCHAR
STARTCHAR 0072
ENCODING 114
SWIDTH 411 0
DWIDTH 4 0
BBX 3 5 1 0
BITMAP
E0
80
80
80
80
ENDCHAR
STARTCHAR 0073
ENCODING 115
SWIDTH 411 0
DWIDTH 4 0
BBX 4 5 0 0
BITMAP
70
80
70
10
F0
ENDCHAR
STARTCHAR 0074
ENCODING 116
SWIDTH 308 0
DWIDTH 3 0
BBX 3 7 0 0
BITMAP
40
40
E0
40
40
40
60
ENDCHAR
STARTCHAR 0075
ENCODING 117
SWIDTH 617 0
DWIDTH 6 0
BBX 4 5 1 0
BITMAP
90
90
90
90
F0
ENDCHAR
STARTCHAR 0076
ENCODING 118
SWIDTH 514 0
DWIDTH 5 0
BBX 5 5 0 0
BITMAP
88
50
50
50
20
ENDCHAR
STARTCHAR 0077
ENCODING 119
SWIDTH 720 0
DWIDTH 7 0
BBX 7 5 0 0
BITMAP
92
5A
6A
6C
64
ENDCHAR
STARTCHAR 0078
ENCODING 120
SWIDTH 514 0
DWIDTH 5 0
BBX 5 5 0 0
BITMAP
D8
50
20
50
98
ENDCHAR
STARTCHAR 0079
ENCODING 121
SWIDTH 514 0
DWIDTH 5 0
BBX 5 7 0 -2
BITMAP
88
50
50
50
20
20
40
ENDCHAR
STARTCHAR 007A
ENCODING 122
SWIDTH 411 0
DWIDTH 4 0
BBX 4 5 0 0
BITMAP
F0
10
20
40
F0
ENDCHAR
STARTCHAR 007B
ENCODING 123
SWIDTH 514 0
DWIDTH 5 0
BBX 4 10 0 -2
BITMAP
30
20
20
20
20
C0
20
20
20
30
ENDCHAR
STARTCHAR 007C
ENCODING 124
SWIDTH 411 0
DWIDTH 4 0
BBX 1 10 1 -2
BITMAP
80
80
80
80
80
80
80
80
80
80
ENDCHAR
STARTCHAR 007D
ENCODING 125
SWIDTH 514 0
DWIDTH 5 0
BBX 5 10 0 -2
BITMAP
C0
20
20
20
20
18
20
20
20
C0
ENDCHAR
STARTCHAR 007E
ENCODING 126
SWIDTH 720 0
DWIDTH 7 0
BBX 6 3 1 2
BITMAP
C4
A8
98
ENDCHAR
STARTCHAR 00A0
ENCODING 160
SWIDTH 308 0
DWIDTH 3 0
BBX 0 0 0 0
BITMAP
ENDCHAR
STARTCHAR 00A1
ENCODING 161
SWIDTH 308 0
DWIDTH 3 0
BBX 1 7 1 0
BITMAP
80
00
80
80
80
80
80
ENDCHAR
STARTCHAR 00A2
ENCODING 162
SWIDTH 514 0
DWIDTH 5 0
BBX 4 9 1 -2
BITMAP
40
40
F0
C0
C0
C0
F0
40
40
ENDCHAR
STARTCHAR 00A3
ENCODING 163
SWIDTH 514 0
DWIDTH 5 0
BBX 5 7 0 0
BITMAP
38
40
40
70
40
40
F8
ENDCHAR
STARTCHAR 00A4
ENCODING 164
SWIDTH 514 0
DWIDTH 5 0
BBX 4 5 1 1
BITMAP
10
E0
90
E0
10
ENDCHAR
STARTCHAR 00A5
ENCODING 165
SWIDTH 514 0
DWIDTH 5 0
BBX 4 7 1 0
BITMAP
90
A0
60
40
F0
40
40
ENDCHAR
STARTCHAR 00A6
ENCODING 166
SWIDTH 411 0
DWIDTH 4 0
BBX 1 10 1 -2
BITMAP
80
80
80
80
00
00
80
80
80
80
ENDCHAR
STARTCHAR 00A7
ENCODING 167
SWIDTH 514 0
DWIDTH 5 0
BBX 4 9 1 -2
BITMAP
F0
80
C0
B0
90
E0
30
10
E0
ENDCHAR
STARTCHAR 00A8
ENCODING 168
SWIDTH 514 0
DWIDTH 5 0
BBX 3 1 1 6
BITMAP
A0
ENDCHAR
STARTCHAR 00A9
ENCODING 169
SWIDTH 925 0
DWIDTH 9 0
BBX 9 8 0 -1
BITMAP
1E00
6100
5C80
9080
9080
5C80
6100
1E00
ENDCHAR
STARTCHAR 00AA
ENCODING 170
SWIDTH 514 0
DWIDTH 5 0
BBX 3 5 1 2
BITMAP
E0
20
E0
A0
E0
ENDCHAR
STARTCHAR 00AB
ENCODING 171
SWIDTH 617 0
DWIDTH 6 0
BBX 5 5 0 1
BITMAP
28
48
90
48
28
ENDCHAR
STARTCHAR 00AC
ENCODING 172
SWIDTH 720 0
DWIDTH 7 0
BBX 5 4 1 0
BITMAP
F8
08
08
08
ENDCHAR
STARTCHAR 00AD
ENCODING 173
SWIDTH 411 0
DWIDTH 4 0
BBX 3 1 0 3
BITMAP
E0
ENDCHAR
STARTCHAR 00AE
ENCODING 174
SWIDTH 925 0
DWIDTH 9 0
BBX 9 8 0 -1
BITMAP
1E00
6100
5C80
9480
9C80
5480
6100
1E00
ENDCHAR
STARTCHAR 00AF
ENCODING 175
SWIDTH 514 0
DWIDTH 5 0
BBX 6 1 0 8
BITMAP
FC
ENDCHAR
STARTCHAR 00B0
ENCODING 176
SWIDTH 514 0
DWIDTH 5 0
BBX 4 4 0 3
BITMAP
70
90
90
70
ENDCHAR
STARTCHAR 00B1
ENCODING 177
SWIDTH 720 0
DWIDTH 7 0
BBX 5 6 1 0
BITMAP
20
20
F8
20
20
F8
ENDCHAR
STARTCHAR 00B2
ENCODING 178
SWIDTH 514 0
DWIDTH 5 0
BBX 3 5 1 2
BITMAP
C0
20
20
40
E0
ENDCHAR
STARTCHAR 00B3
ENCODING 179
SWIDTH 514 0
DWIDTH 5 0
BBX 3 5 1 2
BITMAP
C0
20
40
20
C0
ENDCHAR
STARTCHAR 00B4
ENCODING 180
SWIDTH 514 0
DWIDTH 5 0
BBX 2 2 2 6
BITMAP
40
80
ENDCHAR
STARTCHAR 00B5
ENCODING 181
SWIDTH 617 0
DWIDTH 6 0
BBX 4 7 1 -2
BITMAP
90
90
90
90
F0
80
80
ENDCHAR
STARTCHAR 00B6
ENCODING 182
SWIDTH 514 0
DWIDTH 5 0
BBX 5 9 0 -2
BITMAP
78
E8
E8
68
28
28
28
28
28
ENDCHAR
STARTCHAR 00B7
ENCODING 183
SWIDTH 411 0
DWIDTH 4 0
BBX 1 2 1 3
BITMAP
80
80
ENDCHAR
STARTCHAR 00B8
ENCODING 184
SWIDTH 514 0
DWIDTH 5 0
BBX 3 2 1 -2
BITMAP
20
C0
ENDCHAR
STARTCHAR 00B9
ENCODING 185
SWIDTH 514 0
DWIDTH 5 0
BBX 3 5 1 2
BITMAP
40
C0
40
40
E0
ENDCHAR
STARTCHAR 00BA
ENCODING 186
SWIDTH 514 0
DWIDTH 5 0
BBX 5 5 0 2
BITMAP
70
50
88
50
70
ENDCHAR
STARTCHAR 00BB
ENCODING 187
SWIDTH 617 0
DWIDTH 6 0
BBX 4 5 1 1
BITMAP
A0
A0
50
A0
A0
ENDCHAR
STARTCHAR 00BC
ENCODING 188
SWIDTH 1028 0
DWIDTH 10 0
BBX 8 7 1 0
BITMAP
44
C8
4A
56
5A
2F
42
ENDCHAR
STARTCHAR 00BD
ENCODING 189
SWIDTH 1028 0
DWIDTH 10 0
BBX 9 7 1 0
BITMAP
4400
C800
4F00
5100
5100
2200
4780
ENDCHAR
STARTCHAR 00BE
ENCODING 190
SWIDTH 1028 0
DWIDTH 10 0
BBX 8 7 1 0
BITMAP
C4
24
CB
2D
D5
27
21
ENDCHAR
STARTCHAR 00BF
ENCODING 191
SWIDTH 514 0
DWIDTH 5 0
BBX 4 7 0 0
BITMAP
20
00
20
60
80
80
70
ENDCHAR
STARTCHAR 00C0
ENCODING 192
SWIDTH 617 0
DWIDTH 6 0
BBX 6 10 0 0
BITMAP
20
10
00
30
30
48
48
78
84
84
ENDCHAR
STARTCHAR 00C1
ENCODING 193
SWIDTH 617 0
DWIDTH 6 0
BBX 6 10 0 0
BITMAP
10
20
00
30
30
48
48
78
84
84
ENDCHAR
STARTCHAR 00C2
ENCODING 194
SWIDTH 617 0
DWIDTH 6 0
BBX 6 10 0 0
BITMAP
30
50
00
30
30
48
48
78
84
84
ENDCHAR
STARTCHAR 00C3
ENCODING 195
SWIDTH 617 0
DWIDTH 6 0
BBX 6 10 0 0
BITMAP
68
58
00
30
30
48
48
78
84
84
ENDCHAR
STARTCHAR 00C4
ENCODING 196
SWIDTH 617 0
DWIDTH 6 0
BBX 6 9 0 0
BITMAP
50
00
30
30
48
48
78
84
84
ENDCHAR
STARTCHAR 00C5
ENCODING 197
SWIDTH 617 0
DWIDTH 6 0
BBX 6 9 0 0
BITMAP
30
48
30
30
50
48
78
84
84
ENDCHAR
STARTCHAR 00C6
ENCODING 198
SWIDTH 925 0
DWIDTH 9 0
BBX 9 7 0 0
BITMAP
1F80
2800
2800
4F80
7800
C800
8F80
ENDCHAR
STARTCHAR 00C7
ENCODING 199
SWIDTH 617 0
DWIDTH 6 0
BBX 6 9 0 -2
BITMAP
3C
44
80
80
80
44
38
08
30
ENDCHAR
STARTCHAR 00C8
ENCODING 200
SWIDTH 617 0
DWIDTH 6 0
BBX 4 10 1 0
BITMAP
40
20
00
F0
80
80
F0
80
80
F0
ENDCHAR
STARTCHAR 00C9
ENCODING 201
SWIDTH 617 0
DWIDTH 6 0
BBX 4 10 1 0
BITMAP
20
20
00
F0
80
80
F0
80
80
F0
ENDCHAR
STARTCHAR 00CA
ENCODING 202
SWIDTH 617 0
DWIDTH 6 0
BBX 4 10 1 0
BITMAP
60
50
00
F0
80
80
F0
80
80
F0
ENDCHAR
STARTCHAR 00CB
ENCODING 203
SWIDTH 617 0
DWIDTH 6 0
BBX 4 9 1 0
BITMAP
50
00
F0
80
80
F0
80
80
F0
ENDCHAR
STARTCHAR 00CC
ENCODING 204
SWIDTH 411 0
DWIDTH 4 0
BBX 3 10 0 0
BITMAP
40
40
00
E0
40
40
40
40
40
E0
ENDCHAR
STARTCHAR 00CD
ENCODING 205
SWIDTH 411 0
DWIDTH 4 0
BBX 3 10 0 0
BITMAP
20
40
00
E0
40
40
40
40
40
E0
ENDCHAR
STARTCHAR 00CE
ENCODING 206
SWIDTH 411 0
DWIDTH 4 0
BBX 3 10 0 0
BITMAP
60
A0
00
E0
40
40
40
40
40
E0
ENDCHAR
STARTCHAR 00CF
ENCODING 207
SWIDTH 411 0
DWIDTH 4 0
BBX 3 9 0 0
BITMAP
A0
00
E0
40
40
40
40
40
E0
ENDCHAR
STARTCHAR 00D0
ENCODING 208
SWIDTH 720 0
DWIDTH 7 0
BBX 7 7 0 0
BITMAP
78
44
42
F2
42
44
78
ENDCHAR
STARTCHAR 00D1
ENCODING 209
SWIDTH 720 0
DWIDTH 7 0
BBX 5 10 1 0
BITMAP
68
B0
00
88
C8
C8
A8
98
98
88
ENDCHAR
STARTCHAR 00D2
ENCODING 210
SWIDTH 720 0
DWIDTH 7 0
BBX 7 10 0 0
BITMAP
30
10
00
38
44
82
82
82
44
38
ENDCHAR
STARTCHAR 00D3
ENCODING 211
SWIDTH 720 0
DWIDTH 7 0
BBX 7 10 0 0
BITMAP
18
10
00
38
44
82
82
82
44
38
ENDCHAR
STARTCHAR 00D4
ENCODING 212
SWIDTH 720 0
DWIDTH 7 0
BBX 7 10 0 0
BITMAP
10
28
00
38
44
82
82
82
44
38
ENDCHAR
STARTCHAR 00D5
ENCODING 213
SWIDTH 720 0
DWIDTH 7 0
BBX 7 10 0 0
BITMAP
34
58
00
38
44
82
82
82
44
38
ENDCHAR
STARTCHAR 00D6
ENCODING 214
SWIDTH 720 0
DWIDTH 7 0
BBX 7 9 0 0
BITMAP
28
00
38
44
82
82
82
44
38
ENDCHAR
STARTCHAR 00D7
ENCODING 215
SWIDTH 720 0
DWIDTH 7 0
BBX 5 5 1 1
BITMAP
88
50
20
50
88
ENDCHAR
STARTCHAR 00D8
ENCODING 216
SWIDTH 720 0
DWIDTH 7 0
BBX 7 7 0 0
BITMAP
3C
44
8A
92
A2
44
78
ENDCHAR
STARTCHAR 00D9
ENCODING 217
SWIDTH 720 0
DWIDTH 7 0
BBX 5 10 1 0
BITMAP
60
20
00
88
88
88
88
88
88
F0
ENDCHAR
STARTCHAR 00DA
ENCODING 218
SWIDTH 720 0
DWIDTH 7 0
BBX 5 10 1 0
BITMAP
30
20
00
88
88
88
88
88
88
F0
ENDCHAR
STARTCHAR 00DB
ENCODING 219
SWIDTH 720 0
DWIDTH 7 0
BBX 5 10 1 0
BITMAP
60
50
00
88
88
88
88
88
88
F0
ENDCHAR
STARTCHAR 00DC
ENCODING 220
SWIDTH 720 0
DWIDTH 7 0
BBX 5 9 1 0
BITMAP
50
00
88
88
88
88
88
88
F0
ENDCHAR
STARTCHAR 00DD
ENCODING 221
SWIDTH 617 0
DWIDTH 6 0
BBX 6 10 0 0
BITMAP
10
20
00
8C
48
70
30
20
20
20
ENDCHAR
STARTCHAR 00DE
ENCODING 222
SWIDTH 617 0
DWIDTH 6 0
BBX 4 7 1 0
BITMAP
80
F0
90
90
F0
80
80
ENDCHAR
STARTCHAR 00DF
ENCODING 223
SWIDTH 514 0
DWIDTH 5 0
BBX 4 8 1 0
BITMAP
60
90
90
E0
90
90
90
E0
ENDCHAR
STARTCHAR 00E0
ENCODING 224
SWIDTH 514 0
DWIDTH 5 0
BBX 5 8 0 0
BITMAP
20
20
00
70
08
78
88
78
ENDCHAR
STARTCHAR 00E1
ENCODING 225
SWIDTH 514 0
DWIDTH 5 0
BBX 5 8 0 0
BITMAP
10
20
00
70
08
78
88
78
ENDCHAR
STARTCHAR 00E2
ENCODING 226
SWIDTH 514 0
DWIDTH 5 0
BBX 5 8 0 0
BITMAP
20
50
00
70
08
78
88
78
ENDCHAR
STARTCHAR 00E3
ENCODING 227
SWIDTH 514 0
DWIDTH 5 0
BBX 5 8 0 0
BITMAP
68
70
00
70
08
78
88
78
ENDCHAR
STARTCHAR 00E4
ENCODING 228
SWIDTH 514 0
DWIDTH 5 0
BBX 5 7 0 0
BITMAP
50
00
70
08
78
88
78
ENDCHAR
STARTCHAR 00E5
ENCODING 229
SWIDTH 514 0
DWIDTH 5 0
BBX 5 8 0 0
BITMAP
70
50
70
70
08
78
88
78
ENDCHAR
STARTCHAR 00E6
ENCODING 230
SWIDTH 925 0
DWIDTH 9 0
BBX 9 5 0 0
BITMAP
7700
0900
7F80
8800
7700
ENDCHAR
STARTCHAR 00E7
ENCODING 231
SWIDTH 514 0
DWIDTH 5 0
BBX 4 7 0 -2
BITMAP
70
C0
80
C0
70
10
60
ENDCHAR
STARTCHAR 00E8
ENCODING 232
SWIDTH 514 0
DWIDTH 5 0
BBX 5 8 0 0
BITMAP
20
20
00
70
88
F8
80
78
ENDCHAR
STARTCHAR 00E9
ENCODING 233
SWIDTH 514 0
DWIDTH 5 0
BBX 5 8 0 0
BITMAP
10
20
00
70
88
F8
80
78
ENDCHAR
STARTCHAR 00EA
ENCODING 234
SWIDTH 514 0
DWIDTH 5 0
BBX 5 8 0 0
BITMAP
30
50
00
70
88
F8
80
78
ENDCHAR
STARTCHAR 00EB
ENCODING 235
SWIDTH 514 0
DWIDTH 5 0
BBX 5 7 0 0
BITMAP
50
00
70
88
F8
80
78
ENDCHAR
STARTCHAR 00EC
ENCODING 236
SWIDTH 205 0
DWIDTH 2 0
BBX 2 8 0 0
BITMAP
80
40
00
40
40
40
40
40
ENDCHAR
STARTCHAR 00ED
ENCODING 237
SWIDTH 205 0
DWIDTH 2 0
BBX 1 8 1 0
BITMAP
80
80
00
80
80
80
80
80
ENDCHAR
STARTCHAR 00EE
ENCODING 238
SWIDTH 205 0
DWIDTH 2 0
BBX 2 8 0 0
BITMAP
C0
C0
00
40
40
40
40
40
ENDCHAR
STARTCHAR 00EF
ENCODING 239
SWIDTH 205 0
DWIDTH 2 0
BBX 2 7 0 0
BITMAP
C0
00
40
40
40
40
40
ENDCHAR
STARTCHAR 00F0
ENCODING 240
SWIDTH 514 0
DWIDTH 5 0
BBX 5 7 0 0
BITMAP
30
30
08
78
88
88
70
ENDCHAR
STARTCHAR 00F1
ENCODING 241
SWIDTH 617 0
DWIDTH 6 0
BBX 4 8 1 0
BITMAP
D0
A0
00
F0
90
90
90
90
ENDCHAR
STARTCHAR 00F2
ENCODING 242
SWIDTH 514 0
DWIDTH 5 0
BBX 5 8 0 0
BITMAP
20
20
00
70
88
88
C8
70
ENDCHAR
STARTCHAR 00F3
ENCODING 243
SWIDTH 514 0
DWIDTH 5 0
BBX 5 8 0 0
BITMAP
10
20
00
70
88
88
C8
70
ENDCHAR
STARTCHAR 00F4
ENCODING 244
SWIDTH 514 0
DWIDTH 5 0
BBX 5 8 0 0
BITMAP
30
50
00
70
88
88
C8
70
ENDCHAR
STARTCHAR 00F5
ENCODING 245
SWIDTH 514 0
DWIDTH 5 0
BBX 5 8 0 0
BITMAP
68
50
00
70
88
88
C8
70
ENDCHAR
STARTCHAR 00F6
ENCODING 246
SWIDTH 514 0
DWIDTH 5 0
BBX 5 7 0 0
BITMAP
50
00
70
88
88
C8
70
ENDCHAR
STARTCHAR 00F7
ENCODING 247
SWIDTH 720 0
DWIDTH 7 0
BBX 6 5 1 1
BITMAP
20
00
FC
00
20
ENDCHAR
STARTCHAR 00F8
ENCODING 248
SWIDTH 514 0
DWIDTH 5 0
BBX 5 7 0 -1
BITMAP
08
70
D8
A8
C8
70
80
ENDCHAR
STARTCHAR 00F9
ENCODING 249
SWIDTH 617 0
DWIDTH 6 0
BBX 4 8 1 0
BITMAP
40
40
00
90
90
90
90
F0
ENDCHAR
STARTCHAR 00FA
ENCODING 250
SWIDTH 617 0
DWIDTH 6 0
BBX 4 8 1 0
BITMAP
20
40
00
90
90
90
90
F0
ENDCHAR
STARTCHAR 00FB
ENCODING 251
SWIDTH 617 0
DWIDTH 6 0
BBX 4 8 1 0
BITMAP
60
A0
00
90
90
90
90
F0
ENDCHAR
STARTCHAR 00FC
ENCODING 252
SWIDTH 617 0
DWIDTH 6 0
BBX 4 7 1 0
BITMAP
A0
00
90
90
90
90
F0
ENDCHAR
STARTCHAR 00FD
ENCODING 253
SWIDTH 514 0
DWIDTH 5 0
BBX 5 10 0 -2
BITMAP
10
20
00
88
50
50
50
20
20
40
ENDCHAR
STARTCHAR 00FE
ENCODING 254
SWIDTH 617 0
DWIDTH 6 0
BBX 4 10 1 -2
BITMAP
80
80
80
F0
90
90
90
E0
80
80
ENDCHAR
STARTCHAR 00FF
ENCODING 255
SWIDTH 514 0
DWIDTH 5 0
BBX 5 9 0 -2
BITMAP
50
00
88
50
50
50
20
20
40
ENDCHAR
STARTCHAR 0100
ENCODING 256
SWIDTH 617 0
DWIDTH 6 0
BBX 6 9 0 0
BITMAP
78
00
30
30
48
48
78
84
84
ENDCHAR
STARTCHAR 0101
ENCODING 257
SWIDTH 514 0
DWIDTH 5 0
BBX 5 7 0 0
BITMAP
70
00
70
08
78
88
78
ENDCHAR
STARTCHAR 0102
ENCODING 258
SWIDTH 617 0
DWIDTH 6 0
BBX 6 10 0 0
BITMAP
48
30
00
30
30
48
48
78
84
84
ENDCHAR
STARTCHAR 0103
ENCODING 259
SWIDTH 514 0
DWIDTH 5 0
BBX 5 8 0 0
BITMAP
50
70
00
70
08
78
88
78
ENDCHAR
STARTCHAR 0104
ENCODING 260
SWIDTH 617 0
DWIDTH 6 0
BBX 6 9 0 -2
BITMAP
30
30
48
48
78
84
84
04
04
ENDCHAR
STARTCHAR 0105
ENCODING 261
SWIDTH 514 0
DWIDTH 5 0
BBX 5 7 0 -2
BITMAP
70
08
78
88
78
10
18
ENDCHAR
STARTCHAR 0106
ENCODING 262
SWIDTH 617 0
DWIDTH 6 0
BBX 6 10 0 0
BITMAP
10
10
00
3C
44
80
80
80
44
38
ENDCHAR
STARTCHAR 0107
ENCODING 263
SWIDTH 514 0
DWIDTH 5 0
BBX 4 8 0 0
BITMAP
10
20
00
70
C0
80
C0
70
ENDCHAR
STARTCHAR 0108
ENCODING 264
SWIDTH 617 0
DWIDTH 6 0
BBX 6 10 0 0
BITMAP
10
28
00
3C
44
80
80
80
44
38
ENDCHAR
STARTCHAR 0109
ENCODING 265
SWIDTH 514 0
DWIDTH 5 0
BBX 4 8 0 0
BITMAP
30
50
00
70
C0
80
C0
70
ENDCHAR
STARTCHAR 010A
ENCODING 266
SWIDTH 617 0
DWIDTH 6 0
BBX 6 9 0 0
BITMAP
10
00
3C
44
80
80
80
44
38
ENDCHAR
STARTCHAR 010B
ENCODING 267
SWIDTH 514 0
DWIDTH 5 0
BBX 4 7 0 0
BITMAP
20
00
70
C0
80
C0
70
ENDCHAR
STARTCHAR 010C
ENCODING 268
SWIDTH 617 0
DWIDTH 6 0
BBX 6 10 0 0
BITMAP
28
10
00
3C
44
80
80
80
44
38
ENDCHAR
STARTCHAR 010D
ENCODING 269
SWIDTH 514 0
DWIDTH 5 0
BBX 4 8 0 0
BITMAP
50
20
00
70
C0
80
C0
70
ENDCHAR
STARTCHAR 010E
ENCODING 270
SWIDTH 720 0
DWIDTH 7 0
BBX 5 10 1 0
BITMAP
50
60
00
F0
88
88
88
88
88
F0
ENDCHAR
STARTCHAR 010F
ENCODING 271
SWIDTH 720 0
DWIDTH 7 0
BBX 7 8 0 0
BITMAP
0A
0C
08
78
C8
88
88
78
ENDCHAR
STARTCHAR 0110
ENCODING 272
SWIDTH 720 0
DWIDTH 7 0
BBX 7 7 0 0
BITMAP
78
44
42
F2
42
44
78
ENDCHAR
STARTCHAR 0111
ENCODING 273
SWIDTH 617 0
DWIDTH 6 0
BBX 6 8 0 0
BITMAP
08
3C
08
78
C8
88
88
78
ENDCHAR
STARTCHAR 0112
ENCODING 274
SWIDTH 617 0
DWIDTH 6 0
BBX 4 9 1 0
BITMAP
F0
00
F0
80
80
F0
80
80
F0
ENDCHAR
STARTCHAR 0113
ENCODING 275
SWIDTH 514 0
DWIDTH 5 0
BBX 5 7 0 0
BITMAP
78
00
70
88
F8
80
78
ENDCHAR
STARTCHAR 0114
ENCODING 276
SWIDTH 617 0
DWIDTH 6 0
BBX 4 10 1 0
BITMAP
90
60
00
F0
80
80
F0
80
80
F0
ENDCHAR
STARTCHAR 0115
ENCODING 277
SWIDTH 514 0
DWIDTH 5 0
BBX 5 8 0 0
BITMAP
50
30
00
70
88
F8
80
78
ENDCHAR
STARTCHAR 0116
ENCODING 278
SWIDTH 617 0
DWIDTH 6 0
BBX 4 9 1 0
BITMAP
20
00
F0
80
80
F0
80
80
F0
ENDCHAR
STARTCHAR 0117
ENCODING 279
SWIDTH 514 0
DWIDTH 5 0
BBX 5 7 0 0
BITMAP
20
00
70
88
F8
80
78
ENDCHAR
STARTCHAR 0118
ENCODING 280
SWIDTH 617 0
DWIDTH 6 0
BBX 4 9 1 -2
BITMAP
F0
80
80
F0
80
80
F0
10
10
ENDCHAR
STARTCHAR 0119
ENCODING 281
SWIDTH 514 0
DWIDTH 5 0
BBX 5 7 0 -2
BITMAP
70
88
F8
80
78
10
18
ENDCHAR
STARTCHAR 011A
ENCODING 282
SWIDTH 617 0
DWIDTH 6 0
BBX 4 10 1 0
BITMAP
50
60
00
F0
80
80
F0
80
80
F0
ENDCHAR
STARTCHAR 011B
ENCODING 283
SWIDTH 514 0
DWIDTH 5 0
BBX 5 8 0 0
BITMAP
50
30
00
70
88
F8
80
78
ENDCHAR
STARTCHAR 011C
ENCODING 284
SWIDTH 720 0
DWIDTH 7 0
BBX 6 10 0 0
BITMAP
10
28
00
3C
44
80
8C
84
44
3C
ENDCHAR
STARTCHAR 011D
ENCODING 285
SWIDTH 617 0
DWIDTH 6 0
BBX 5 10 0 -2
BITMAP
30
50
00
78
C8
88
88
78
08
70
ENDCHAR
STARTCHAR 011E
ENCODING 286
SWIDTH 720 0
DWIDTH 7 0
BBX 6 10 0 0
BITMAP
28
38
00
3C
44
80
8C
84
44
3C
ENDCHAR
STARTCHAR 011F
ENCODING 287
SWIDTH 617 0
DWIDTH 6 0
BBX 5 10 0 -2
BITMAP
50
30
00
78
C8
88
88
78
08
70
ENDCHAR
STARTCHAR 0120
ENCODING 288
SWIDTH 720 0
DWIDTH 7 0
BBX 6 9 0 0
BITMAP
10
00
3C
44
80
8C
84
44
3C
ENDCHAR
STARTCHAR 0121
ENCODING 289
SWIDTH 617 0
DWIDTH 6 0
BBX 5 9 0 -2
BITMAP
20
00
78
C8
88
88
78
08
70
ENDCHAR
STARTCHAR 0122
ENCODING 290
SWIDTH 720 0
DWIDTH 7 0
BBX 6 9 0 -2
BITMAP
3C
44
80
8C
84
44
3C
10
10
ENDCHAR
STARTCHAR 0123
ENCODING 291
SWIDTH 617 0
DWIDTH 6 0
BBX 5 10 0 -2
BITMAP
10
20
00
78
C8
88
88
78
08
70
ENDCHAR
STARTCHAR 0124
ENCODING 292
SWIDTH 720 0
DWIDTH 7 0
BBX 5 10 1 0
BITMAP
20
50
00
88
88
88
F8
88
88
88
ENDCHAR
STARTCHAR 0125
ENCODING 293
SWIDTH 617 0
DWIDTH 6 0
BBX 4 11 1 0
BITMAP
60
A0
00
80
80
80
F0
90
90
90
90
ENDCHAR
STARTCHAR 0126
ENCODING 294
SWIDTH 720 0
DWIDTH 7 0
BBX 7 7 0 0
BITMAP
44
FE
44
7C
44
44
44
ENDCHAR
STARTCHAR 0127
ENCODING 295
SWIDTH 617 0
DWIDTH 6 0
BBX 5 8 0 0
BITMAP
40
E0
40
78
48
48
48
48
ENDCHAR
STARTCHAR 0128
ENCODING 296
SWIDTH 411 0
DWIDTH 4 0
BBX 4 9 0 0
BITMAP
F0
00
E0
40
40
40
40
40
E0
ENDCHAR
STARTCHAR 0129
ENCODING 297
SWIDTH 205 0
DWIDTH 2 0
BBX 3 8 0 0
BITMAP
A0
C0
00
40
40
40
40
40
ENDCHAR
STARTCHAR 012A
ENCODING 298
SWIDTH 411 0
DWIDTH 4 0
BBX 3 9 0 0
BITMAP
E0
00
E0
40
40
40
40
40
E0
ENDCHAR
STARTCHAR 012B
ENCODING 299
SWIDTH 205 0
DWIDTH 2 0
BBX 2 7 0 0
BITMAP
C0
00
40
40
40
40
40
ENDCHAR
STARTCHAR 012C
ENCODING 300
SWIDTH 411 0
DWIDTH 4 0
BBX 3 10 0 0
BITMAP
A0
60
00
E0
40
40
40
40
40
E0
ENDCHAR
STARTCHAR 012D
ENCODING 301
SWIDTH 205 0
DWIDTH 2 0
BBX 3 8 0 0
BITMAP
A0
C0
00
40
40
40
40
40
ENDCHAR
STARTCHAR 012E
ENCODING 302
SWIDTH 411 0
DWIDTH 4 0
BBX 3 9 0 -2
BITMAP
E0
40
40
40
40
40
E0
40
40
ENDCHAR
STARTCHAR 012F
ENCODING 303
SWIDTH 205 0
DWIDTH 2 0
BBX 2 9 0 -2
BITMAP
40
00
40
40
40
40
40
80
C0
ENDCHAR
STARTCHAR 0130
ENCODING 304
SWIDTH 411 0
DWIDTH 4 0
BBX 3 9 0 0
BITMAP
40
00
E0
40
40
40
40
40
E0
ENDCHAR
STARTCHAR 0131
ENCODING 305
SWIDTH 205 0
DWIDTH 2 0
BBX 1 5 1 0
BITMAP
80
80
80
80
80
ENDCHAR
STARTCHAR 0132
ENCODING 306
SWIDTH 720 0
DWIDTH 7 0
BBX 7 7 0 0
BITMAP
EE
42
42
42
42
42
EC
ENDCHAR
STARTCHAR 0133
ENCODING 307
SWIDTH 514 0
DWIDTH 5 0
BBX 4 9 1 -2
BITMAP
B0
00
B0
90
90
90
90
20
60
ENDCHAR
STARTCHAR 0134
ENCODING 308
SWIDTH 411 0
DWIDTH 4 0
BBX 4 10 0 0
BITMAP
60
50
00
60
20
20
20
20
20
E0
ENDCHAR
STARTCHAR 0135
ENCODING 309
SWIDTH 308 0
DWIDTH 3 0
BBX 3 10 0 -2
BITMAP
40
A0
00
C0
40
40
40
40
40
C0
ENDCHAR
STARTCHAR 0136
ENCODING 310
SWIDTH 617 0
DWIDTH 6 0
BBX 5 9 1 -2
BITMAP
90
A0
C0
C0
A0
90
98
20
40
ENDCHAR
STARTCHAR 0137
ENCODING 311
SWIDTH 514 0
DWIDTH 5 0
BBX 4 10 1 -2
BITMAP
80
80
80
A0
C0
C0
A0
90
40
40
ENDCHAR
STARTCHAR 0138
ENCODING 312
SWIDTH 514 0
DWIDTH 5 0
BBX 4 5 1 0
BITMAP
A0
C0
C0
A0
90
ENDCHAR
STARTCHAR 0139
ENCODING 313
SWIDTH 514 0
DWIDTH 5 0
BBX 4 10 1 0
BITMAP
40
80
00
80
80
80
80
80
80
F0
ENDCHAR
STARTCHAR 013A
ENCODING 314
SWIDTH 205 0
DWIDTH 2 0
BBX 1 11 1 0
BITMAP
80
80
00
80
80
80
80
80
80
80
80
ENDCHAR
STARTCHAR 013B
ENCODING 315
SWIDTH 514 0
DWIDTH 5 0
BBX 4 9 1 -2
BITMAP
80
80
80
80
80
80
F0
40
40
ENDCHAR
STARTCHAR 013C
ENCODING 316
SWIDTH 205 0
DWIDTH 2 0
BBX 2 10 0 -2
BITMAP
40
40
40
40
40
40
40
40
80
80
ENDCHAR
STARTCHAR 013D
ENCODING 317
SWIDTH 514 0
DWIDTH 5 0
BBX 4 8 1 0
BITMAP
20
A0
A0
80
80
80
80
F0
ENDCHAR
STARTCHAR 013E
ENCODING 318
SWIDTH 411 0
DWIDTH 4 0
BBX 3 8 1 0
BITMAP
A0
C0
C0
80
80
80
80
80
ENDCHAR
STARTCHAR 013F
ENCODING 319
SWIDTH 514 0
DWIDTH 5 0
BBX 4 7 1 0
BITMAP
80
80
80
A0
A0
80
F0
ENDCHAR
STARTCHAR 0140
ENCODING 320
SWIDTH 411 0
DWIDTH 4 0
BBX 3 8 1 0
BITMAP
80
80
80
80
A0
A0
80
80
ENDCHAR
STARTCHAR 0141
ENCODING 321
SWIDTH 514 0
DWIDTH 5 0
BBX 5 7 0 0
BITMAP
40
40
50
60
C0
40
78
ENDCHAR
STARTCHAR 0142
ENCODING 322
SWIDTH 308 0
DWIDTH 3 0
BBX 3 8 0 0
BITMAP
40
40
40
60
40
C0
40
40
ENDCHAR
STARTCHAR 0143
ENCODING 323
SWIDTH 720 0
DWIDTH 7 0
BBX 5 10 1 0
BITMAP
20
20
00
88
C8
C8
A8
98
98
88
ENDCHAR
STARTCHAR 0144
ENCODING 324
SWIDTH 617 0
DWIDTH 6 0
BBX 4 8 1 0
BITMAP
20
40
00
F0
90
90
90
90
ENDCHAR
STARTCHAR 0145
ENCODING 325
SWIDTH 720 0
DWIDTH 7 0
BBX 5 9 1 -2
BITMAP
88
C8
C8
A8
98
98
88
20
40
ENDCHAR
STARTCHAR 0146
ENCODING 326
SWIDTH 617 0
DWIDTH 6 0
BBX 4 7 1 -2
BITMAP
F0
90
90
90
90
40
40
ENDCHAR
STARTCHAR 0147
ENCODING 327
SWIDTH 720 0
DWIDTH 7 0
BBX 5 10 1 0
BITMAP
50
20
00
88
C8
C8
A8
98
98
88
ENDCHAR
STARTCHAR 0148
ENCODING 328
SWIDTH 617 0
DWIDTH 6 0
BBX 4 8 1 0
BITMAP
A0
60
00
F0
90
90
90
90
ENDCHAR
STARTCHAR 0149
ENCODING 329
SWIDTH 720 0
DWIDTH 7 0
BBX 6 8 0 0
BITMAP
40
40
80
3C
24
24
24
24
ENDCHAR
STARTCHAR 014A
ENCODING 330
SWIDTH 720 0
DWIDTH 7 0
BBX 5 9 1 -2
BITMAP
88
C8
C8
A8
98
98
88
08
30
ENDCHAR
STARTCHAR 014B
ENCODING 331
SWIDTH 617 0
DWIDTH 6 0
BBX 4 7 1 -2
BITMAP
E0
90
90
90
90
10
60
ENDCHAR
STARTCHAR 014C
ENCODING 332
SWIDTH 720 0
DWIDTH 7 0
BBX 7 9 0 0
BITMAP
38
00
38
44
82
82
82
44
38
ENDCHAR
STARTCHAR 014D
ENCODING 333
SWIDTH 514 0
DWIDTH 5 0
BBX 5 7 0 0
BITMAP
78
00
70
88
88
C8
70
ENDCHAR
STARTCHAR 014E
ENCODING 334
SWIDTH 720 0
DWIDTH 7 0
BBX 7 10 0 0
BITMAP
28
38
00
38
44
82
82
82
44
38
ENDCHAR
STARTCHAR 014F
ENCODING 335
SWIDTH 514 0
DWIDTH 5 0
BBX 5 8 0 0
BITMAP
50
30
00
70
88
88
C8
70
ENDCHAR
STARTCHAR 0150
ENCODING 336
SWIDTH 720 0
DWIDTH 7 0
BBX 7 10 0 0
BITMAP
14
28
00
38
44
82
82
82
44
38
ENDCHAR
STARTCHAR 0151
ENCODING 337
SWIDTH 514 0
DWIDTH 5 0
BBX 5 8 0 0
BITMAP
28
50
00
70
88
88
C8
70
ENDCHAR
STARTCHAR 0152
ENCODING 338
SWIDTH 1028 0
DWIDTH 10 0
BBX 9 7 0 0
BITMAP
3F80
4400
8400
8780
8400
4400
3F80
ENDCHAR
STARTCHAR 0153
ENCODING 339
SWIDTH 925 0
DWIDTH 9 0
BBX 9 5 0 0
BITMAP
7700
C880
8F80
C800
7780
ENDCHAR
STARTCHAR 0154
ENCODING 340
SWIDTH 617 0
DWIDTH 6 0
BBX 5 10 1 0
BITMAP
20
40
00
F0
90
90
E0
A0
90
88
ENDCHAR
STARTCHAR 0155
ENCODING 341
SWIDTH 411 0
DWIDTH 4 0
BBX 3 8 1 0
BITMAP
40
80
00
E0
80
80
80
80
ENDCHAR
STARTCHAR 0156
ENCODING 342
SWIDTH 617 0
DWIDTH 6 0
BBX 5 9 1 -2
BITMAP
F0
90
90
E0
A0
90
88
20
40
ENDCHAR
STARTCHAR 0157
ENCODING 343
SWIDTH 411 0
DWIDTH 4 0
BBX 3 7 1 -2
BITMAP
E0
80
80
80
80
80
80
ENDCHAR
STARTCHAR 0158
ENCODING 344
SWIDTH 617 0
DWIDTH 6 0
BBX 5 10 1 0
BITMAP
A0
60
00
F0
90
90
E0
A0
90
88
ENDCHAR
STARTCHAR 0159
ENCODING 345
SWIDTH 411 0
DWIDTH 4 0
BBX 4 8 0 0
BITMAP
A0
60
00
70
40
40
40
40
ENDCHAR
STARTCHAR 015A
ENCODING 346
SWIDTH 617 0
DWIDTH 6 0
BBX 5 10 0 0
BITMAP
10
20
00
78
C0
40
70
08
08
F8
ENDCHAR
STARTCHAR 015B
ENCODING 347
SWIDTH 411 0
DWIDTH 4 0
BBX 4 8 0 0
BITMAP
20
20
00
70
80
70
10
F0
ENDCHAR
STARTCHAR 015C
ENCODING 348
SWIDTH 617 0
DWIDTH 6 0
BBX 5 10 0 0
BITMAP
30
50
00
78
C0
40
70
08
08
F8
ENDCHAR
STARTCHAR 015D
ENCODING 349
SWIDTH 411 0
DWIDTH 4 0
BBX 4 8 0 0
BITMAP
20
50
00
70
80
70
10
F0
ENDCHAR
STARTCHAR 015E
ENCODING 350
SWIDTH 617 0
DWIDTH 6 0
BBX 5 9 0 -2
BITMAP
78
C0
40
70
08
08
F8
10
60
ENDCHAR
STARTCHAR 015F
ENCODING 351
SWIDTH 411 0
DWIDTH 4 0
BBX 4 7 0 -2
BITMAP
70
80
70
10
F0
20
60
ENDCHAR
STARTCHAR 0160
ENCODING 352
SWIDTH 617 0
DWIDTH 6 0
BBX 5 10 0 0
BITMAP
50
30
00
78
C0
40
70
08
08
F8
ENDCHAR
STARTCHAR 0161
ENCODING 353
SWIDTH 411 0
DWIDTH 4 0
BBX 4 8 0 0
BITMAP
50
60
00
70
80
70
10
F0
ENDCHAR
STARTCHAR 0162
ENCODING 354
SWIDTH 617 0
DWIDTH 6 0
BBX 6 9 0 -2
BITMAP
FC
20
20
20
20
20
20
10
30
ENDCHAR
STARTCHAR 0163
ENCODING 355
SWIDTH 308 0
DWIDTH 3 0
BBX 3 9 0 -2
BITMAP
40
40
E0
40
40
40
60
20
60
ENDCHAR
STARTCHAR 0164
ENCODING 356
SWIDTH 617 0
DWIDTH 6 0
BBX 6 10 0 0
BITMAP
50
30
00
FC
20
20
20
20
20
20
ENDCHAR
STARTCHAR 0165
ENCODING 357
SWIDTH 514 0
DWIDTH 5 0
BBX 5 8 0 0
BITMAP
08
50
40
E0
40
40
40
60
ENDCHAR
STARTCHAR 0166
ENCODING 358
SWIDTH 617 0
DWIDTH 6 0
BBX 6 7 0 0
BITMAP
FC
20
20
78
20
20
20
ENDCHAR
STARTCHAR 0167
ENCODING 359
SWIDTH 308 0
DWIDTH 3 0
BBX 3 7 0 0
BITMAP
40
40
E0
40
E0
40
60
ENDCHAR
STARTCHAR 0168
ENCODING 360
SWIDTH 720 0
DWIDTH 7 0
BBX 5 10 1 0
BITMAP
50
B0
00
88
88
88
88
88
88
F0
ENDCHAR
STARTCHAR 0169
ENCODING 361
SWIDTH 617 0
DWIDTH 6 0
BBX 4 8 1 0
BITMAP
D0
A0
00
90
90
90
90
F0
ENDCHAR
STARTCHAR 016A
ENCODING 362
SWIDTH 720 0
DWIDTH 7 0
BBX 5 9 1 0
BITMAP
F0
00
88
88
88
88
88
88
F0
ENDCHAR
STARTCHAR 016B
ENCODING 363
SWIDTH 617 0
DWIDTH 6 0
BBX 4 7 1 0
BITMAP
F0
00
90
90
90
90
F0
ENDCHAR
STARTCHAR 016C
ENCODING 364
SWIDTH 720 0
DWIDTH 7 0
BBX 5 10 1 0
BITMAP
50
60
00
88
88
88
88
88
88
F0
ENDCHAR
STARTCHAR 016D
ENCODING 365
SWIDTH 617 0
DWIDTH 6 0
BBX 4 8 1 0
BITMAP
A0
60
00
90
90
90
90
F0
ENDCHAR
STARTCHAR 016E
ENCODING 366
SWIDTH 720 0
DWIDTH 7 0
BBX 5 10 1 0
BITMAP
60
50
60
88
88
88
88
88
88
F0
ENDCHAR
STARTCHAR 016F
ENCODING 367
SWIDTH 617 0
DWIDTH 6 0
BBX 4 8 1 0
BITMAP
60
A0
60
90
90
90
90
F0
ENDCHAR
STARTCHAR 0170
ENCODING 368
SWIDTH 720 0
DWIDTH 7 0
BBX 5 10 1 0
BITMAP
50
50
00
88
88
88
88
88
88
F0
ENDCHAR
STARTCHAR 0171
ENCODING 369
SWIDTH 617 0
DWIDTH 6 0
BBX 4 8 1 0
BITMAP
50
A0
00
90
90
90
90
F0
ENDCHAR
STARTCHAR 0172
ENCODING 370
SWIDTH 720 0
DWIDTH 7 0
BBX 5 9 1 -2
BITMAP
88
88
88
88
88
88
F0
20
30
ENDCHAR
STARTCHAR 0173
ENCODING 371
SWIDTH 617 0
DWIDTH 6 0
BBX 4 7 1 -2
BITMAP
90
90
90
90
F0
10
10
ENDCHAR
STARTCHAR 0174
ENCODING 372
SWIDTH 925 0
DWIDTH 9 0
BBX 9 10 0 0
BITMAP
0800
1400
0000
8880
4880
5500
5500
5500
2500
2200
ENDCHAR
STARTCHAR 0175
ENCODING 373
SWIDTH 720 0
DWIDTH 7 0
BBX 7 8 0 0
BITMAP
18
28
00
92
5A
6A
6C
64
ENDCHAR
STARTCHAR 0176
ENCODING 374
SWIDTH 617 0
DWIDTH 6 0
BBX 6 10 0 0
BITMAP
30
50
00
8C
48
70
30
20
20
20
ENDCHAR
STARTCHAR 0177
ENCODING 375
SWIDTH 514 0
DWIDTH 5 0
BBX 5 10 0 -2
BITMAP
20
50
00
88
50
50
50
20
20
40
ENDCHAR
STARTCHAR 0178
ENCODING 376
SWIDTH 617 0
DWIDTH 6 0
BBX 6 9 0 0
BITMAP
50
00
8C
48
70
30
20
20
20
ENDCHAR
STARTCHAR 0179
ENCODING 377
SWIDTH 617 0
DWIDTH 6 0
BBX 5 10 0 0
BITMAP
10
20
00
F8
08
10
20
60
40
F8
ENDCHAR
STARTCHAR 017A
ENCODING 378
SWIDTH 411 0
DWIDTH 4 0
BBX 4 8 0 0
BITMAP
20
20
00
F0
10
20
40
F0
ENDCHAR
STARTCHAR 017B
ENCODING 379
SWIDTH 617 0
DWIDTH 6 0
BBX 5 9 0 0
BITMAP
20
00
F8
08
10
20
60
40
F8
ENDCHAR
STARTCHAR 017C
ENCODING 380
SWIDTH 411 0
DWIDTH 4 0
BBX 4 7 0 0
BITMAP
20
00
F0
10
20
40
F0
ENDCHAR
STARTCHAR 017D
ENCODING 381
SWIDTH 617 0
DWIDTH 6 0
BBX 5 10 0 0
BITMAP
50
30
00
F8
08
10
20
60
40
F8
ENDCHAR
STARTCHAR 017E
ENCODING 382
SWIDTH 411 0
DWIDTH 4 0
BBX 4 8 0 0
BITMAP
50
60
00
F0
10
20
40
F0
ENDCHAR
STARTCHAR 017F
ENCODING 383
SWIDTH 308 0
DWIDTH 3 0
BBX 2 8 1 0
BITMAP
C0
80
80
80
80
80
80
80
ENDCHAR
STARTCHAR 0180
ENCODING 384
SWIDTH 617 0
DWIDTH 6 0
BBX 5 8 0 0
BITMAP
40
E0
40
78
48
48
48
70
ENDCHAR
STARTCHAR 0181
ENCODING 385
SWIDTH 720 0
DWIDTH 7 0
BBX 6 7 0 0
BITMAP
FC
A4
24
3C
24
24
3C
ENDCHAR
STARTCHAR 0182
ENCODING 386
SWIDTH 617 0
DWIDTH 6 0
BBX 5 7 1 0
BITMAP
F0
80
80
F0
88
88
F0
ENDCHAR
STARTCHAR 0183
ENCODING 387
SWIDTH 617 0
DWIDTH 6 0
BBX 4 8 1 0
BITMAP
E0
80
80
F0
90
90
90
E0
ENDCHAR
STARTCHAR 0184
ENCODING 388
SWIDTH 617 0
DWIDTH 6 0
BBX 6 7 0 0
BITMAP
40
C0
40
78
4C
4C
78
ENDCHAR
STARTCHAR 0185
ENCODING 389
SWIDTH 617 0
DWIDTH 6 0
BBX 5 8 0 0
BITMAP
40
C0
40
78
48
48
48
70
ENDCHAR
STARTCHAR 0186
ENCODING 390
SWIDTH 617 0
DWIDTH 6 0
BBX 6 7 0 0
BITMAP
F0
08
04
04
04
08
F0
ENDCHAR
STARTCHAR 0187
ENCODING 391
SWIDTH 617 0
DWIDTH 6 0
BBX 7 8 0 0
BITMAP
02
3C
44
80
80
80
40
3C
ENDCHAR
STARTCHAR 0188
ENCODING 392
SWIDTH 514 0
DWIDTH 5 0
BBX 6 6 0 0
BITMAP
0C
70
C0
80
C0
70
ENDCHAR
STARTCHAR 0189
ENCODING 393
SWIDTH 720 0
DWIDTH 7 0
BBX 7 7 0 0
BITMAP
78
44
42
F2
42
44
78
ENDCHAR
STARTCHAR 018A
ENCODING 394
SWIDTH 822 0
DWIDTH 8 0
BBX 7 7 0 0
BITMAP
FC
A6
22
22
22
26
3C
ENDCHAR
STARTCHAR 018B
ENCODING 395
SWIDTH 617 0
DWIDTH 6 0
BBX 5 7 0 0
BITMAP
78
08
08
78
88
88
78
ENDCHAR
STARTCHAR 018C
ENCODING 396
SWIDTH 617 0
DWIDTH 6 0
BBX 5 8 0 0
BITMAP
78
08
08
78
C8
88
88
78
ENDCHAR
STARTCHAR 018D
ENCODING 397
SWIDTH 514 0
DWIDTH 5 0
BBX 5 7 0 -2
BITMAP
70
C8
88
88
70
10
78
ENDCHAR
STARTCHAR 018E
ENCODING 398
SWIDTH 617 0
DWIDTH 6 0
BBX 5 7 0 0
BITMAP
F8
08
08
78
08
08
F8
ENDCHAR
STARTCHAR 018F
ENCODING 399
SWIDTH 720 0
DWIDTH 7 0
BBX 7 7 0 0
BITMAP
38
44
02
FE
82
44
38
ENDCHAR
STARTCHAR 0190
ENCODING 400
SWIDTH 514 0
DWIDTH 5 0
BBX 5 7 0 0
BITMAP
78
C0
40
70
80
80
78
ENDCHAR
STARTCHAR 0191
ENCODING 401
SWIDTH 514 0
DWIDTH 5 0
BBX 6 9 -1 -2
BITMAP
3C
20
20
3C
20
20
20
20
C0
ENDCHAR
STARTCHAR 0192
ENCODING 402
SWIDTH 514 0
DWIDTH 5 0
BBX 5 8 0 -1
BITMAP
18
20
20
78
20
20
20
C0
ENDCHAR
STARTCHAR 0193
ENCODING 403
SWIDTH 720 0
DWIDTH 7 0
BBX 8 8 0 0
BITMAP
03
3C
44
80
8C
84
44
3C
ENDCHAR
STARTCHAR 0194
ENCODING 404
SWIDTH 617 0
DWIDTH 6 0
BBX 6 9 0 -2
BITMAP
84
48
48
30
30
30
30
30
30
ENDCHAR
STARTCHAR 0195
ENCODING 405
SWIDTH 925 0
DWIDTH 9 0
BBX 7 8 1 0
BITMAP
80
80
80
F2
92
92
92
8E
ENDCHAR
STARTCHAR 0196
ENCODING 406
SWIDTH 205 0
DWIDTH 2 0
BBX 1 8 1 0
BITMAP
80
80
80
80
80
80
80
80
ENDCHAR
STARTCHAR 0197
ENCODING 407
SWIDTH 411 0
DWIDTH 4 0
BBX 4 7 0 0
BITMAP
E0
40
40
F0
40
40
E0
ENDCHAR
STARTCHAR 0198
ENCODING 408
SWIDTH 617 0
DWIDTH 6 0
BBX 5 7 1 0
BITMAP
D0
A0
C0
C0
A0
90
98
ENDCHAR
STARTCHAR 0199
ENCODING 409
SWIDTH 514 0
DWIDTH 5 0
BBX 4 8 1 0
BITMAP
C0
80
80
A0
C0
C0
A0
90
ENDCHAR
STARTCHAR 019A
ENCODING 410
SWIDTH 308 0
DWIDTH 3 0
BBX 3 8 0 0
BITMAP
40
40
40
E0
40
40
40
40
ENDCHAR
STARTCHAR 019B
ENCODING 411
SWIDTH 514 0
DWIDTH 5 0
BBX 5 8 0 0
BITMAP
60
60
20
20
50
50
50
88
ENDCHAR
STARTCHAR 019C
ENCODING 412
SWIDTH 925 0
DWIDTH 9 0
BBX 7 7 1 0
BITMAP
92
92
92
92
92
92
FE
ENDCHAR
STARTCHAR 019D
ENCODING 413
SWIDTH 720 0
DWIDTH 7 0
BBX 7 9 -1 -2
BITMAP
22
32
32
2A
26
26
22
20
C0
ENDCHAR
STARTCHAR 019E
ENCODING 414
SWIDTH 617 0
DWIDTH 6 0
BBX 4 7 1 -2
BITMAP
F0
90
90
90
90
10
10
ENDCHAR
STARTCHAR 019F
ENCODING 415
SWIDTH 720 0
DWIDTH 7 0
BBX 7 7 0 0
BITMAP
38
44
82
FE
82
44
38
ENDCHAR
STARTCHAR 01A0
ENCODING 416
SWIDTH 822 0
DWIDTH 8 0
BBX 8 7 0 0
BITMAP
39
46
82
82
82
44
38
ENDCHAR
STARTCHAR 01A1
ENCODING 417
SWIDTH 617 0
DWIDTH 6 0
BBX 6 6 0 0
BITMAP
04
78
88
88
C8
70
ENDCHAR
STARTCHAR 01A2
ENCODING 418
SWIDTH 925 0
DWIDTH 9 0
BBX 9 9 0 -2
BITMAP
3900
4700
8500
8500
8500
4500
3D00
0100
0380
ENDCHAR
STARTCHAR 01A3
ENCODING 419
SWIDTH 720 0
DWIDTH 7 0
BBX 6 7 0 -2
BITMAP
7C
D4
94
D4
74
04
04
ENDCHAR
STARTCHAR 01A4
ENCODING 420
SWIDTH 617 0
DWIDTH 6 0
BBX 6 7 0 0
BITMAP
F8
A4
24
24
38
20
20
ENDCHAR
STARTCHAR 01A5
ENCODING 421
SWIDTH 617 0
DWIDTH 6 0
BBX 4 10 1 -2
BITMAP
C0
80
80
F0
90
90
90
E0
80
80
ENDCHAR
STARTCHAR 01A6
ENCODING 422
SWIDTH 617 0
DWIDTH 6 0
BBX 5 8 1 -1
BITMAP
80
F0
90
90
F0
A0
90
08
ENDCHAR
STARTCHAR 01A7
ENCODING 423
SWIDTH 617 0
DWIDTH 6 0
BBX 5 7 0 0
BITMAP
70
08
08
70
80
80
78
ENDCHAR
STARTCHAR 01A8
ENCODING 424
SWIDTH 411 0
DWIDTH 4 0
BBX 4 5 0 0
BITMAP
F0
10
70
80
70
ENDCHAR
STARTCHAR 01A9
ENCODING 425
SWIDTH 617 0
DWIDTH 6 0
BBX 5 7 0 0
BITMAP
F8
40
20
10
20
40
F8
ENDCHAR
STARTCHAR 01AA
ENCODING 426
SWIDTH 514 0
DWIDTH 5 0
BBX 5 10 0 -2
BITMAP
E0
A0
E0
20
20
20
20
20
20
18
ENDCHAR
STARTCHAR 01AB
ENCODING 427
SWIDTH 308 0
DWIDTH 3 0
BBX 3 9 0 -2
BITMAP
40
40
E0
40
40
40
60
20
60
ENDCHAR
STARTCHAR 01AC
ENCODING 428
SWIDTH 617 0
DWIDTH 6 0
BBX 6 7 0 0
BITMAP
FC
A0
20
20
20
20
20
ENDCHAR
STARTCHAR 01AD
ENCODING 429
SWIDTH 308 0
DWIDTH 3 0
BBX 4 8 0 0
BITMAP
70
40
40
E0
40
40
40
60
ENDCHAR
STARTCHAR 01AE
ENCODING 430
SWIDTH 617 0
DWIDTH 6 0
BBX 6 9 0 -2
BITMAP
FC
20
20
20
20
20
20
30
18
ENDCHAR
STARTCHAR 01AF
ENCODING 431
SWIDTH 720 0
DWIDTH 7 0
BBX 7 8 1 0
BITMAP
02
8C
88
88
88
88
88
F0
ENDCHAR
STARTCHAR 01B0
ENCODING 432
SWIDTH 617 0
DWIDTH 6 0
BBX 6 6 1 0
BITMAP
04
98
90
90
90
F0
ENDCHAR
STARTCHAR 01B1
ENCODING 433
SWIDTH 720 0
DWIDTH 7 0
BBX 7 7 0 0
BITMAP
EE
44
44
82
82
44
38
ENDCHAR
STARTCHAR 01B2
ENCODING 434
SWIDTH 720 0
DWIDTH 7 0
BBX 5 7 1 0
BITMAP
98
88
88
88
88
90
F0
ENDCHAR
STARTCHAR 01B3
ENCODING 435
SWIDTH 720 0
DWIDTH 7 0
BBX 7 7 0 0
BITMAP
8E
4A
70
30
20
20
20
ENDCHAR
STARTCHAR 01B4
ENCODING 436
SWIDTH 514 0
DWIDTH 5 0
BBX 7 9 0 -2
BITMAP
04
0A
88
50
50
50
20
20
40
ENDCHAR
STARTCHAR 01B5
ENCODING 437
SWIDTH 617 0
DWIDTH 6 0
BBX 5 7 0 0
BITMAP
F8
08
10
78
20
40
F8
ENDCHAR
STARTCHAR 01B6
ENCODING 438
SWIDTH 411 0
DWIDTH 4 0
BBX 4 5 0 0
BITMAP
F0
20
70
40
F0
ENDCHAR
STARTCHAR 01B7
ENCODING 439
SWIDTH 514 0
DWIDTH 5 0
BBX 5 9 0 -2
BITMAP
F8
18
30
30
08
08
08
88
70
ENDCHAR
STARTCHAR 01B8
ENCODING 440
SWIDTH 514 0
DWIDTH 5 0
BBX 5 9 0 -2
BITMAP
F8
40
20
70
40
80
80
48
78
ENDCHAR
STARTCHAR 01B9
ENCODING 441
SWIDTH 411 0
DWIDTH 4 0
BBX 4 7 0 -2
BITMAP
F0
40
40
60
80
80
70
ENDCHAR
STARTCHAR 01BA
ENCODING 442
SWIDTH 411 0
DWIDTH 4 0
BBX 4 7 0 -2
BITMAP
F0
10
20
10
70
80
70
ENDCHAR
STARTCHAR 01BB
ENCODING 443
SWIDTH 514 0
DWIDTH 5 0
BBX 4 7 1 0
BITMAP
E0
10
10
F0
40
80
F0
ENDCHAR
STARTCHAR 01BC
ENCODING 444
SWIDTH 514 0
DWIDTH 5 0
BBX 5 7 0 0
BITMAP
F8
40
40
70
08
08
70
ENDCHAR
STARTCHAR 01BD
ENCODING 445
SWIDTH 514 0
DWIDTH 5 0
BBX 4 5 0 0
BITMAP
F0
40
70
10
F0
ENDCHAR
STARTCHAR 01BE
ENCODING 446
SWIDTH 514 0
DWIDTH 5 0
BBX 5 7 0 0
BITMAP
40
40
E0
40
70
08
70
ENDCHAR
STARTCHAR 01BF
ENCODING 447
SWIDTH 617 0
DWIDTH 6 0
BBX 4 7 1 -2
BITMAP
F0
90
90
90
A0
C0
80
ENDCHAR
STARTCHAR 01C0
ENCODING 448
SWIDTH 411 0
DWIDTH 4 0
BBX 1 10 1 -2
BITMAP
80
80
80
80
80
80
80
80
80
80
ENDCHAR
STARTCHAR 01C1
ENCODING 449
SWIDTH 411 0
DWIDTH 4 0
BBX 2 10 1 -2
BITMAP
C0
C0
C0
C0
C0
C0
C0
C0
C0
C0
ENDCHAR
STARTCHAR 01C2
ENCODING 450
SWIDTH 720 0
DWIDTH 7 0
BBX 5 10 1 -2
BITMAP
20
20
20
F8
20
F8
20
20
20
20
ENDCHAR
STARTCHAR 01C3
ENCODING 451
SWIDTH 308 0
DWIDTH 3 0
BBX 1 7 1 0
BITMAP
80
80
80
80
80
00
80
ENDCHAR
STARTCHAR 01C4
ENCODING 452
SWIDTH 1234 0
DWIDTH 12 0
BBX 11 10 1 0
BITMAP
0140
0080
0000
F3E0
8820
8840
8880
8900
8B00
F3E0
ENDCHAR
STARTCHAR 01C5
ENCODING 453
SWIDTH 1131 0
DWIDTH 11 0
BBX 10 8 1 0
BITMAP
0140
F180
8800
8BC0
8880
8880
8900
F3C0
ENDCHAR
STARTCHAR 01C6
ENCODING 454
SWIDTH 1028 0
DWIDTH 10 0
BBX 10 8 0 0
BITMAP
0A80
0900
0800
7BC0
C880
8900
8A00
7BC0
ENDCHAR
STARTCHAR 01C7
ENCODING 455
SWIDTH 1028 0
DWIDTH 10 0
BBX 8 7 1 0
BITMAP
87
81
81
81
81
81
F6
ENDCHAR
STARTCHAR 01C8
ENCODING 456
SWIDTH 822 0
DWIDTH 8 0
BBX 7 9 1 -2
BITMAP
86
80
86
82
82
82
F2
02
0C
ENDCHAR
STARTCHAR 01C9
ENCODING 457
SWIDTH 514 0
DWIDTH 5 0
BBX 3 10 1 -2
BITMAP
80
A0
80
E0
A0
A0
A0
A0
20
60
ENDCHAR
STARTCHAR 01CA
ENCODING 458
SWIDTH 1131 0
DWIDTH 11 0
BBX 9 7 1 0
BITMAP
8B80
C880
C880
A880
9880
9880
8F00
ENDCHAR
STARTCHAR 01CB
ENCODING 459
SWIDTH 925 0
DWIDTH 9 0
BBX 8 9 1 -2
BITMAP
8B
C8
CB
A9
A9
99
89
01
06
ENDCHAR
STARTCHAR 01CC
ENCODING 460
SWIDTH 822 0
DWIDTH 8 0
BBX 7 9 1 -2
BITMAP
06
00
F6
92
92
92
92
02
0C
ENDCHAR
STARTCHAR 01CD
ENCODING 461
SWIDTH 617 0
DWIDTH 6 0
BBX 6 10 0 0
BITMAP
28
30
00
30
30
48
48
78
84
84
ENDCHAR
STARTCHAR 01CE
ENCODING 462
SWIDTH 514 0
DWIDTH 5 0
BBX 5 8 0 0
BITMAP
50
20
00
70
08
78
88
78
ENDCHAR
STARTCHAR 01CF
ENCODING 463
SWIDTH 411 0
DWIDTH 4 0
BBX 3 10 0 0
BITMAP
A0
60
00
E0
40
40
40
40
40
E0
ENDCHAR
STARTCHAR 01D0
ENCODING 464
SWIDTH 205 0
DWIDTH 2 0
BBX 3 8 0 0
BITMAP
A0
C0
00
40
40
40
40
40
ENDCHAR
STARTCHAR 01D1
ENCODING 465
SWIDTH 720 0
DWIDTH 7 0
BBX 7 10 0 0
BITMAP
28
10
00
38
44
82
82
82
44
38
ENDCHAR
STARTCHAR 01D2
ENCODING 466
SWIDTH 514 0
DWIDTH 5 0
BBX 5 8 0 0
BITMAP
50
30
00
70
88
88
C8
70
ENDCHAR
STARTCHAR 01D3
ENCODING 467
SWIDTH 720 0
DWIDTH 7 0
BBX 5 10 1 0
BITMAP
50
20
00
88
88
88
88
88
88
F0
ENDCHAR
STARTCHAR 01D4
ENCODING 468
SWIDTH 617 0
DWIDTH 6 0
BBX 4 8 1 0
BITMAP
A0
60
00
90
90
90
90
F0
ENDCHAR
STARTCHAR 01D5
ENCODING 469
SWIDTH 720 0
DWIDTH 7 0
BBX 5 10 1 0
BITMAP
F0
00
50
88
88
88
88
88
88
F0
ENDCHAR
STARTCHAR 01D6
ENCODING 470
SWIDTH 617 0
DWIDTH 6 0
BBX 4 10 1 0
BITMAP
F0
00
A0
00
00
90
90
90
90
F0
ENDCHAR
STARTCHAR 01D7
ENCODING 471
SWIDTH 720 0
DWIDTH 7 0
BBX 5 10 1 0
BITMAP
20
50
00
88
88
88
88
88
88
F0
ENDCHAR
STARTCHAR 01D8
ENCODING 472
SWIDTH 617 0
DWIDTH 6 0
BBX 4 10 1 0
BITMAP
20
40
A0
00
00
90
90
90
90
F0
ENDCHAR
STARTCHAR 01D9
ENCODING 473
SWIDTH 720 0
DWIDTH 7 0
BBX 5 10 1 0
BITMAP
50
20
50
88
88
88
88
88
88
F0
ENDCHAR
STARTCHAR 01DA
ENCODING 474
SWIDTH 617 0
DWIDTH 6 0
BBX 4 9 1 0
BITMAP
A0
60
A0
00
90
90
90
90
F0
ENDCHAR
STARTCHAR 01DB
ENCODING 475
SWIDTH 720 0
DWIDTH 7 0
BBX 5 10 1 0
BITMAP
40
50
00
88
88
88
88
88
88
F0
ENDCHAR
STARTCHAR 01DC
ENCODING 476
SWIDTH 617 0
DWIDTH 6 0
BBX 4 10 1 0
BITMAP
40
40
A0
00
00
90
90
90
90
F0
ENDCHAR
STARTCHAR 01DD
ENCODING 477
SWIDTH 514 0
DWIDTH 5 0
BBX 5 5 0 0
BITMAP
F0
08
F8
88
70
ENDCHAR
STARTCHAR 01DE
ENCODING 478
SWIDTH 617 0
DWIDTH 6 0
BBX 6 10 0 0
BITMAP
78
00
50
30
30
48
48
78
84
84
ENDCHAR
STARTCHAR 01DF
ENCODING 479
SWIDTH 514 0
DWIDTH 5 0
BBX 5 10 0 0
BITMAP
78
00
50
00
00
70
08
78
88
78
ENDCHAR
STARTCHAR 01E0
ENCODING 480
SWIDTH 617 0
DWIDTH 6 0
BBX 6 10 0 0
BITMAP
78
10
00
30
30
48
48
78
84
84
ENDCHAR
STARTCHAR 01E1
ENCODING 481
SWIDTH 514 0
DWIDTH 5 0
BBX 5 10 0 0
BITMAP
70
00
20
00
00
70
08
78
88
78
ENDCHAR
STARTCHAR 01E2
ENCODING 482
SWIDTH 925 0
DWIDTH 9 0
BBX 9 9 0 0
BITMAP
0F00
0000
1F80
2800
2800
4F80
7800
C800
8F80
ENDCHAR
STARTCHAR 01E3
ENCODING 483
SWIDTH 925 0
DWIDTH 9 0
BBX 9 7 0 0
BITMAP
1C00
0000
7700
0900
7F80
8800
7700
ENDCHAR
STARTCHAR 01E4
ENCODING 484
SWIDTH 720 0
DWIDTH 7 0
BBX 7 7 0 0
BITMAP
3C
40
8C
84
8E
44
3C
ENDCHAR
STARTCHAR 01E5
ENCODING 485
SWIDTH 617 0
DWIDTH 6 0
BBX 5 7 0 -2
BITMAP
78
88
78
08
F8
08
70
ENDCHAR
STARTCHAR 01E6
ENCODING 486
SWIDTH 720 0
DWIDTH 7 0
BBX 6 10 0 0
BITMAP
28
18
00
3C
44
80
8C
84
44
3C
ENDCHAR
STARTCHAR 01E7
ENCODING 487
SWIDTH 617 0
DWIDTH 6 0
BBX 5 10 0 -2
BITMAP
50
30
00
78
C8
88
88
78
08
70
ENDCHAR
STARTCHAR 01E8
ENCODING 488
SWIDTH 617 0
DWIDTH 6 0
BBX 5 10 1 0
BITMAP
60
60
00
90
A0
C0
C0
A0
90
98
ENDCHAR
STARTCHAR 01E9
ENCODING 489
SWIDTH 514 0
DWIDTH 5 0
BBX 4 10 1 0
BITMAP
A0
60
80
80
80
A0
C0
C0
A0
90
ENDCHAR
STARTCHAR 01EA
ENCODING 490
SWIDTH 720 0
DWIDTH 7 0
BBX 7 9 0 -2
BITMAP
38
44
82
82
82
44
38
10
18
ENDCHAR
STARTCHAR 01EB
ENCODING 491
SWIDTH 514 0
DWIDTH 5 0
BBX 5 7 0 -2
BITMAP
70
88
88
88
70
20
30
ENDCHAR
STARTCHAR 01EC
ENCODING 492
SWIDTH 720 0
DWIDTH 7 0
BBX 7 11 0 -2
BITMAP
38
00
38
44
82
82
82
44
38
10
18
ENDCHAR
STARTCHAR 01ED
ENCODING 493
SWIDTH 514 0
DWIDTH 5 0
BBX 5 9 0 -2
BITMAP
78
00
70
88
88
88
70
20
30
ENDCHAR
STARTCHAR 01EE
ENCODING 494
SWIDTH 514 0
DWIDTH 5 0
BBX 5 12 0 -2
BITMAP
50
30
00
F8
18
30
30
08
08
08
88
70
ENDCHAR
STARTCHAR 01EF
ENCODING 495
SWIDTH 411 0
DWIDTH 4 0
BBX 4 10 0 -2
BITMAP
50
60
00
F0
10
20
30
10
10
F0
ENDCHAR
STARTCHAR 01F0
ENCODING 496
SWIDTH 308 0
DWIDTH 3 0
BBX 3 10 0 -2
BITMAP
A0
40
00
C0
40
40
40
40
40
C0
ENDCHAR
STARTCHAR 01F1
ENCODING 497
SWIDTH 1234 0
DWIDTH 12 0
BBX 11 7 1 0
BITMAP
F3E0
8820
8840
8880
8900
8B00
F3E0
ENDCHAR
STARTCHAR 01F2
ENCODING 498
SWIDTH 1131 0
DWIDTH 11 0
BBX 10 7 1 0
BITMAP
F000
8800
8BC0
8880
8880
8900
F3C0
ENDCHAR
STARTCHAR 01F3
ENCODING 499
SWIDTH 1028 0
DWIDTH 10 0
BBX 10 8 0 0
BITMAP
0800
0800
0800
7BC0
C880
8900
8A00
7BC0
ENDCHAR
STARTCHAR 01F4
ENCODING 500
SWIDTH 720 0
DWIDTH 7 0
BBX 6 10 0 0
BITMAP
08
10
00
3C
44
80
8C
84
44
3C
ENDCHAR
STARTCHAR 01F5
ENCODING 501
SWIDTH 617 0
DWIDTH 6 0
BBX 5 10 0 -2
BITMAP
10
20
00
78
C8
88
88
78
08
70
ENDCHAR
STARTCHAR 01F6
ENCODING 502
SWIDTH 1028 0
DWIDTH 10 0
BBX 8 7 1 0
BITMAP
88
88
89
F9
89
89
87
ENDCHAR
STARTCHAR 01F7
ENCODING 503
SWIDTH 617 0
DWIDTH 6 0
BBX 4 9 1 -2
BITMAP
F0
90
90
90
90
E0
C0
80
80
ENDCHAR
STARTCHAR 01F8
ENCODING 504
SWIDTH 720 0
DWIDTH 7 0
BBX 5 10 1 0
BITMAP
40
20
00
88
C8
C8
A8
98
98
88
ENDCHAR
STARTCHAR 01F9
ENCODING 505
SWIDTH 617 0
DWIDTH 6 0
BBX 4 8 1 0
BITMAP
40
40
00
F0
90
90
90
90
ENDCHAR
STARTCHAR 01FA
ENCODING 506
SWIDTH 617 0
DWIDTH 6 0
BBX 6 10 0 0
BITMAP
10
30
30
30
30
48
48
78
84
84
ENDCHAR
STARTCHAR 01FB
ENCODING 507
SWIDTH 514 0
DWIDTH 5 0
BBX 5 8 0 0
BITMAP
20
20
50
70
08
78
88
78
ENDCHAR
STARTCHAR 01FC
ENCODING 508
SWIDTH 925 0
DWIDTH 9 0
BBX 9 10 0 0
BITMAP
0400
0400
0000
1F80
2800
2800
4F80
7800
C800
8F80
ENDCHAR
STARTCHAR 01FD
ENCODING 509
SWIDTH 925 0
DWIDTH 9 0
BBX 9 8 0 0
BITMAP
0400
0800
0000
7700
0900
7F80
8800
7700
ENDCHAR
STARTCHAR 01FE
ENCODING 510
SWIDTH 720 0
DWIDTH 7 0
BBX 7 10 0 0
BITMAP
08
10
00
3C
44
8A
92
A2
44
78
ENDCHAR
STARTCHAR 01FF
ENCODING 511
SWIDTH 514 0
DWIDTH 5 0
BBX 5 9 0 -1
BITMAP
10
20
08
70
D8
A8
C8
70
80
ENDCHAR
STARTCHAR 0200
ENCODING 512
SWIDTH 617 0
DWIDTH 6 0
BBX 6 10 0 0
BITMAP
50
50
00
30
30
48
48
78
84
84
ENDCHAR
STARTCHAR 0201
ENCODING 513
SWIDTH 514 0
DWIDTH 5 0
BBX 5 8 0 0
BITMAP
60
50
00
70
08
78
88
78
ENDCHAR
STARTCHAR 0202
ENCODING 514
SWIDTH 617 0
DWIDTH 6 0
BBX 6 10 0 0
BITMAP
30
48
00
30
30
48
48
78
84
84
ENDCHAR
STARTCHAR 0203
ENCODING 515
SWIDTH 514 0
DWIDTH 5 0
BBX 5 8 0 0
BITMAP
70
50
00
70
08
78
88
78
ENDCHAR
STARTCHAR 0204
ENCODING 516
SWIDTH 617 0
DWIDTH 6 0
BBX 4 10 1 0
BITMAP
A0
50
00
F0
80
80
F0
80
80
F0
ENDCHAR
STARTCHAR 0205
ENCODING 517
SWIDTH 514 0
DWIDTH 5 0
BBX 5 8 0 0
BITMAP
50
50
00
70
88
F8
80
78
ENDCHAR
STARTCHAR 0206
ENCODING 518
SWIDTH 617 0
DWIDTH 6 0
BBX 4 10 1 0
BITMAP
60
90
00
F0
80
80
F0
80
80
F0
ENDCHAR
STARTCHAR 0207
ENCODING 519
SWIDTH 514 0
DWIDTH 5 0
BBX 5 8 0 0
BITMAP
30
50
00
70
88
F8
80
78
ENDCHAR
STARTCHAR 0208
ENCODING 520
SWIDTH 411 0
DWIDTH 4 0
BBX 3 10 0 0
BITMAP
A0
A0
00
E0
40
40
40
40
40
E0
ENDCHAR
STARTCHAR 0209
ENCODING 521
SWIDTH 205 0
DWIDTH 2 0
BBX 4 8 -1 0
BITMAP
A0
50
00
20
20
20
20
20
ENDCHAR
STARTCHAR 020A
ENCODING 522
SWIDTH 411 0
DWIDTH 4 0
BBX 3 10 0 0
BITMAP
60
A0
00
E0
40
40
40
40
40
E0
ENDCHAR
STARTCHAR 020B
ENCODING 523
SWIDTH 205 0
DWIDTH 2 0
BBX 3 8 0 0
BITMAP
C0
A0
00
40
40
40
40
40
ENDCHAR
STARTCHAR 020C
ENCODING 524
SWIDTH 720 0
DWIDTH 7 0
BBX 7 10 0 0
BITMAP
50
28
00
38
44
82
82
82
44
38
ENDCHAR
STARTCHAR 020D
ENCODING 525
SWIDTH 514 0
DWIDTH 5 0
BBX 5 8 0 0
BITMAP
50
50
00
70
88
88
C8
70
ENDCHAR
STARTCHAR 020E
ENCODING 526
SWIDTH 720 0
DWIDTH 7 0
BBX 7 10 0 0
BITMAP
38
28
00
38
44
82
82
82
44
38
ENDCHAR
STARTCHAR 020F
ENCODING 527
SWIDTH 514 0
DWIDTH 5 0
BBX 5 8 0 0
BITMAP
30
50
00
70
88
88
C8
70
ENDCHAR
STARTCHAR 0210
ENCODING 528
SWIDTH 617 0
DWIDTH 6 0
BBX 5 10 1 0
BITMAP
A0
A0
00
F0
90
90
E0
A0
90
88
ENDCHAR
STARTCHAR 0211
ENCODING 529
SWIDTH 411 0
DWIDTH 4 0
BBX 4 8 0 0
BITMAP
A0
50
00
70
40
40
40
40
ENDCHAR
STARTCHAR 0212
ENCODING 530
SWIDTH 617 0
DWIDTH 6 0
BBX 5 10 1 0
BITMAP
60
90
00
F0
90
90
E0
A0
90
88
ENDCHAR
STARTCHAR 0213
ENCODING 531
SWIDTH 411 0
DWIDTH 4 0
BBX 4 8 0 0
BITMAP
60
90
00
70
40
40
40
40
ENDCHAR
STARTCHAR 0214
ENCODING 532
SWIDTH 720 0
DWIDTH 7 0
BBX 5 10 1 0
BITMAP
A0
50
00
88
88
88
88
88
88
F0
ENDCHAR
STARTCHAR 0215
ENCODING 533
SWIDTH 617 0
DWIDTH 6 0
BBX 4 8 1 0
BITMAP
A0
A0
00
90
90
90
90
F0
ENDCHAR
STARTCHAR 0216
ENCODING 534
SWIDTH 720 0
DWIDTH 7 0
BBX 5 10 1 0
BITMAP
60
50
00
88
88
88
88
88
88
F0
ENDCHAR
STARTCHAR 0217
ENCODING 535
SWIDTH 617 0
DWIDTH 6 0
BBX 4 8 1 0
BITMAP
60
A0
00
90
90
90
90
F0
ENDCHAR
STARTCHAR 0218
ENCODING 536
SWIDTH 617 0
DWIDTH 6 0
BBX 5 9 0 -2
BITMAP
78
C0
40
70
08
08
F8
20
20
ENDCHAR
STARTCHAR 0219
ENCODING 537
SWIDTH 411 0
DWIDTH 4 0
BBX 4 7 0 -2
BITMAP
70
80
70
10
F0
20
40
ENDCHAR
STARTCHAR 021A
ENCODING 538
SWIDTH 617 0
DWIDTH 6 0
BBX 6 9 0 -2
BITMAP
FC
20
20
20
20
20
20
20
20
ENDCHAR
STARTCHAR 021B
ENCODING 539
SWIDTH 308 0
DWIDTH 3 0
BBX 3 9 0 -2
BITMAP
40
40
E0
40
40
40
60
40
40
ENDCHAR
STARTCHAR 021C
ENCODING 540
SWIDTH 514 0
DWIDTH 5 0
BBX 5 9 0 -2
BITMAP
70
88
08
30
48
08
10
30
40
ENDCHAR
STARTCHAR 021D
ENCODING 541
SWIDTH 411 0
DWIDTH 4 0
BBX 4 7 0 -2
BITMAP
F0
10
30
D0
10
20
C0
ENDCHAR
STARTCHAR 021E
ENCODING 542
SWIDTH 720 0
DWIDTH 7 0
BBX 5 10 1 0
BITMAP
50
20
00
88
88
88
F8
88
88
88
ENDCHAR
STARTCHAR 021F
ENCODING 543
SWIDTH 617 0
DWIDTH 6 0
BBX 4 10 1 0
BITMAP
A0
60
80
80
80
F0
90
90
90
90
ENDCHAR
STARTCHAR 0220
ENCODING 544
SWIDTH 617 0
DWIDTH 6 0
BBX 5 9 1 -2
BITMAP
F0
88
88
88
88
88
88
08
08
ENDCHAR
STARTCHAR 0221
ENCODING 545
SWIDTH 822 0
DWIDTH 8 0
BBX 7 10 0 -2
BITMAP
08
08
08
78
C8
88
88
7E
0E
0E
ENDCHAR
STARTCHAR 0222
ENCODING 546
SWIDTH 617 0
DWIDTH 6 0
BBX 5 7 0 0
BITMAP
18
68
48
30
C8
C8
78
ENDCHAR
STARTCHAR 0223
ENCODING 547
SWIDTH 514 0
DWIDTH 5 0
BBX 5 7 0 0
BITMAP
50
88
48
70
88
88
70
ENDCHAR
STARTCHAR 0224
ENCODING 548
SWIDTH 617 0
DWIDTH 6 0
BBX 6 8 0 -1
BITMAP
F8
08
10
20
60
40
F8
04
ENDCHAR
STARTCHAR 0225
ENCODING 549
SWIDTH 411 0
DWIDTH 4 0
BBX 4 6 0 -1
BITMAP
F0
10
20
40
F0
10
ENDCHAR
STARTCHAR 0226
ENCODING 550
SWIDTH 617 0
DWIDTH 6 0
BBX 6 9 0 0
BITMAP
30
00
30
30
48
48
78
84
84
ENDCHAR
STARTCHAR 0227
ENCODING 551
SWIDTH 514 0
DWIDTH 5 0
BBX 5 7 0 0
BITMAP
20
00
70
08
78
88
78
ENDCHAR
STARTCHAR 0228
ENCODING 552
SWIDTH 617 0
DWIDTH 6 0
BBX 4 9 1 -2
BITMAP
F0
80
80
F0
80
80
F0
20
60
ENDCHAR
STARTCHAR 0229
ENCODING 553
SWIDTH 514 0
DWIDTH 5 0
BBX 5 7 0 -2
BITMAP
70
88
F8
80
78
10
60
ENDCHAR
STARTCHAR 022A
ENCODING 554
SWIDTH 720 0
DWIDTH 7 0
BBX 7 10 0 0
BITMAP
38
00
28
38
44
82
82
82
44
38
ENDCHAR
STARTCHAR 022B
ENCODING 555
SWIDTH 514 0
DWIDTH 5 0
BBX 5 10 0 0
BITMAP
78
00
50
00
00
70
88
88
C8
70
ENDCHAR
STARTCHAR 022C
ENCODING 556
SWIDTH 720 0
DWIDTH 7 0
BBX 7 10 0 0
BITMAP
38
38
38
38
44
82
82
82
44
38
ENDCHAR
STARTCHAR 022D
ENCODING 557
SWIDTH 514 0
DWIDTH 5 0
BBX 5 9 0 0
BITMAP
78
68
50
00
70
88
88
C8
70
ENDCHAR
STARTCHAR 022E
ENCODING 558
SWIDTH 720 0
DWIDTH 7 0
BBX 7 9 0 0
BITMAP
10
00
38
44
82
82
82
44
38
ENDCHAR
STARTCHAR 022F
ENCODING 559
SWIDTH 514 0
DWIDTH 5 0
BBX 5 7 0 0
BITMAP
20
00
70
88
88
C8
70
ENDCHAR
STARTCHAR 0230
ENCODING 560
SWIDTH 720 0
DWIDTH 7 0
BBX 7 10 0 0
BITMAP
38
10
00
38
44
82
82
82
44
38
ENDCHAR
STARTCHAR 0231
ENCODING 561
SWIDTH 514 0
DWIDTH 5 0
BBX 5 10 0 0
BITMAP
78
00
20
00
00
70
88
88
C8
70
ENDCHAR
STARTCHAR 0232
ENCODING 562
SWIDTH 617 0
DWIDTH 6 0
BBX 6 9 0 0
BITMAP
78
00
8C
48
70
30
20
20
20
ENDCHAR
STARTCHAR 0233
ENCODING 563
SWIDTH 514 0
DWIDTH 5 0
BBX 5 9 0 -2
BITMAP
70
00
88
50
50
50
20
20
40
ENDCHAR
STARTCHAR 0234
ENCODING 564
SWIDTH 411 0
DWIDTH 4 0
BBX 4 10 0 -2
BITMAP
40
40
40
40
40
40
40
70
50
B0
ENDCHAR
STARTCHAR 0235
ENCODING 565
SWIDTH 822 0
DWIDTH 8 0
BBX 7 7 1 -2
BITMAP
F0
90
90
90
9C
1A
1C
ENDCHAR
STARTCHAR 0236
ENCODING 566
SWIDTH 411 0
DWIDTH 4 0
BBX 4 7 0 0
BITMAP
40
40
E0
40
70
50
B0
ENDCHAR
STARTCHAR 0237
ENCODING 567
SWIDTH 308 0
DWIDTH 3 0
BBX 2 7 0 -2
BITMAP
C0
40
40
40
40
40
C0
ENDCHAR
STARTCHAR 0238
ENCODING 568
SWIDTH 925 0
DWIDTH 9 0
BBX 9 8 0 0
BITMAP
0800
0800
0800
7F00
C900
8880
8900
7F00
ENDCHAR
STARTCHAR 0239
ENCODING 569
SWIDTH 925 0
DWIDTH 9 0
BBX 9 7 0 -2
BITMAP
7F00
C900
8880
8900
7F00
0800
0800
ENDCHAR
STARTCHAR 023A
ENCODING 570
SWIDTH 617 0
DWIDTH 6 0
BBX 6 9 0 -1
BITMAP
04
38
38
50
58
78
C4
C4
80
ENDCHAR
STARTCHAR 023B
ENCODING 571
SWIDTH 617 0
DWIDTH 6 0
BBX 6 9 0 -1
BITMAP
04
3C
4C
90
90
A0
64
78
40
ENDCHAR
STARTCHAR 023C
ENCODING 572
SWIDTH 514 0
DWIDTH 5 0
BBX 5 7 0 -1
BITMAP
08
70
D0
A0
C0
70
80
ENDCHAR
STARTCHAR 023D
ENCODING 573
SWIDTH 514 0
DWIDTH 5 0
BBX 6 7 -1 0
BITMAP
20
20
20
F0
20
20
3C
ENDCHAR
STARTCHAR 023E
ENCODING 574
SWIDTH 617 0
DWIDTH 6 0
BBX 6 9 0 -1
BITMAP
04
FC
28
30
20
20
60
60
80
ENDCHAR
STARTCHAR 023F
ENCODING 575
SWIDTH 411 0
DWIDTH 4 0
BBX 4 7 0 -2
BITMAP
70
80
70
10
F0
20
10
ENDCHAR
STARTCHAR 0240
ENCODING 576
SWIDTH 411 0
DWIDTH 4 0
BBX 4 7 0 -2
BITMAP
F0
10
20
40
C0
20
10
ENDCHAR
STARTCHAR 0241
ENCODING 577
SWIDTH 514 0
DWIDTH 5 0
BBX 5 8 0 0
BITMAP
70
88
08
08
08
30
20
20
ENDCHAR
STARTCHAR 0242
ENCODING 578
SWIDTH 514 0
DWIDTH 5 0
BBX 4 7 0 0
BITMAP
E0
10
10
10
70
40
F0
ENDCHAR
STARTCHAR 0243
ENCODING 579
SWIDTH 617 0
DWIDTH 6 0
BBX 6 7 0 0
BITMAP
78
48
48
78
44
EC
78
ENDCHAR
STARTCHAR 0244
ENCODING 580
SWIDTH 720 0
DWIDTH 7 0
BBX 6 7 0 0
BITMAP
44
44
44
FC
44
44
78
ENDCHAR
STARTCHAR 0245
ENCODING 581
SWIDTH 617 0
DWIDTH 6 0
BBX 6 7 0 0
BITMAP
30
30
30
48
48
88
84
ENDCHAR
STARTCHAR 0246
ENCODING 582
SWIDTH 617 0
DWIDTH 6 0
BBX 4 10 1 -2
BITMAP
10
F0
A0
A0
F0
C0
C0
F0
80
80
ENDCHAR
STARTCHAR 0247
ENCODING 583
SWIDTH 514 0
DWIDTH 5 0
BBX 5 10 0 -3
BITMAP
08
10
70
98
F8
A0
78
20
40
40
ENDCHAR
STARTCHAR 0248
ENCODING 584
SWIDTH 411 0
DWIDTH 4 0
BBX 4 7 0 0
BITMAP
60
20
20
70
20
20
E0
ENDCHAR
STARTCHAR 0249
ENCODING 585
SWIDTH 308 0
DWIDTH 3 0
BBX 3 9 0 -2
BITMAP
40
00
C0
40
E0
40
40
40
C0
ENDCHAR
STARTCHAR 024A
ENCODING 586
SWIDTH 720 0
DWIDTH 7 0
BBX 8 9 0 -2
BITMAP
3A
46
82
82
82
46
3A
02
03
ENDCHAR
STARTCHAR 024B
ENCODING 587
SWIDTH 617 0
DWIDTH 6 0
BBX 7 7 0 -2
BITMAP
78
C8
88
88
78
08
0E
ENDCHAR
STARTCHAR 024C
ENCODING 588
SWIDTH 617 0
DWIDTH 6 0
BBX 6 7 0 0
BITMAP
78
48
48
F0
50
48
44
ENDCHAR
STARTCHAR 024D
ENCODING 589
SWIDTH 411 0
DWIDTH 4 0
BBX 4 5 0 0
BITMAP
70
40
40
E0
40
ENDCHAR
STARTCHAR 024E
ENCODING 590
SWIDTH 617 0
DWIDTH 6 0
BBX 6 7 0 0
BITMAP
88
FC
70
30
20
20
20
ENDCHAR
STARTCHAR 024F
ENCODING 591
SWIDTH 514 0
DWIDTH 5 0
BBX 5 7 0 -2
BITMAP
88
50
F8
50
20
20
40
ENDCHAR
STARTCHAR 0250
ENCODING 592
SWIDTH 514 0
DWIDTH 5 0
BBX 4 5 1 0
BITMAP
F0
90
E0
80
F0
ENDCHAR
STARTCHAR 0251
ENCODING 593
SWIDTH 617 0
DWIDTH 6 0
BBX 5 5 0 0
BITMAP
78
C8
88
88
78
ENDCHAR
STARTCHAR 0252
ENCODING 594
SWIDTH 617 0
DWIDTH 6 0
BBX 4 5 1 0
BITMAP
F0
90
90
90
E0
ENDCHAR
STARTCHAR 0253
ENCODING 595
SWIDTH 617 0
DWIDTH 6 0
BBX 4 8 1 0
BITMAP
C0
80
80
F0
90
90
90
E0
ENDCHAR
STARTCHAR 0254
ENCODING 596
SWIDTH 514 0
DWIDTH 5 0
BBX 4 5 0 0
BITMAP
E0
10
10
10
E0
ENDCHAR
STARTCHAR 0255
ENCODING 597
SWIDTH 514 0
DWIDTH 5 0
BBX 4 5 0 0
BITMAP
70
C0
B0
D0
F0
ENDCHAR
STARTCHAR 0256
ENCODING 598
SWIDTH 617 0
DWIDTH 6 0
BBX 7 10 0 -2
BITMAP
08
08
08
78
C8
88
88
78
08
0E
ENDCHAR
STARTCHAR 0257
ENCODING 599
SWIDTH 617 0
DWIDTH 6 0
BBX 7 8 0 0
BITMAP
06
08
08
78
C8
88
88
78
ENDCHAR
STARTCHAR 0258
ENCODING 600
SWIDTH 514 0
DWIDTH 5 0
BBX 5 5 0 0
BITMAP
70
88
F8
08
F0
ENDCHAR
STARTCHAR 0259
ENCODING 601
SWIDTH 514 0
DWIDTH 5 0
BBX 5 5 0 0
BITMAP
F0
08
F8
88
70
ENDCHAR
STARTCHAR 025A
ENCODING 602
SWIDTH 720 0
DWIDTH 7 0
BBX 7 5 0 0
BITMAP
F0
0C
FC
8E
70
ENDCHAR
STARTCHAR 025B
ENCODING 603
SWIDTH 514 0
DWIDTH 5 0
BBX 4 5 0 0
BITMAP
70
80
60
80
70
ENDCHAR
STARTCHAR 025C
ENCODING 604
SWIDTH 514 0
DWIDTH 5 0
BBX 4 5 0 0
BITMAP
F0
10
60
10
F0
ENDCHAR
STARTCHAR 025D
ENCODING 605
SWIDTH 617 0
DWIDTH 6 0
BBX 6 5 0 0
BITMAP
F0
18
6C
10
F0
ENDCHAR
STARTCHAR 025E
ENCODING 606
SWIDTH 514 0
DWIDTH 5 0
BBX 5 5 0 0
BITMAP
70
C8
B0
C8
78
ENDCHAR
STARTCHAR 025F
ENCODING 607
SWIDTH 308 0
DWIDTH 3 0
BBX 3 7 0 -2
BITMAP
40
40
40
E0
40
40
C0
ENDCHAR
STARTCHAR 0260
ENCODING 608
SWIDTH 617 0
DWIDTH 6 0
BBX 7 10 0 -2
BITMAP
06
08
08
78
C8
88
88
78
08
70
ENDCHAR
STARTCHAR 0261
ENCODING 609
SWIDTH 617 0
DWIDTH 6 0
BBX 5 7 0 -2
BITMAP
78
C8
88
88
78
08
70
ENDCHAR
STARTCHAR 0262
ENCODING 610
SWIDTH 514 0
DWIDTH 5 0
BBX 5 5 0 0
BITMAP
78
C0
98
C8
78
ENDCHAR
STARTCHAR 0263
ENCODING 611
SWIDTH 514 0
DWIDTH 5 0
BBX 5 7 0 -2
BITMAP
88
50
50
20
20
50
20
ENDCHAR
STARTCHAR 0264
ENCODING 612
SWIDTH 617 0
DWIDTH 6 0
BBX 6 5 0 0
BITMAP
CC
30
10
30
30
ENDCHAR
STARTCHAR 0265
ENCODING 613
SWIDTH 617 0
DWIDTH 6 0
BBX 4 7 1 -2
BITMAP
90
90
90
90
F0
10
10
ENDCHAR
STARTCHAR 0266
ENCODING 614
SWIDTH 617 0
DWIDTH 6 0
BBX 4 8 1 0
BITMAP
C0
80
80
F0
90
90
90
90
ENDCHAR
STARTCHAR 0267
ENCODING 615
SWIDTH 617 0
DWIDTH 6 0
BBX 4 10 1 -2
BITMAP
C0
80
80
F0
90
90
90
90
10
70
ENDCHAR
STARTCHAR 0268
ENCODING 616
SWIDTH 205 0
DWIDTH 2 0
BBX 2 7 0 0
BITMAP
40
00
40
40
C0
40
40
ENDCHAR
STARTCHAR 0269
ENCODING 617
SWIDTH 205 0
DWIDTH 2 0
BBX 1 5 1 0
BITMAP
80
80
80
80
80
ENDCHAR
STARTCHAR 026A
ENCODING 618
SWIDTH 411 0
DWIDTH 4 0
BBX 3 5 0 0
BITMAP
E0
40
40
40
E0
ENDCHAR
STARTCHAR 026B
ENCODING 619
SWIDTH 411 0
DWIDTH 4 0
BBX 4 8 0 0
BITMAP
40
40
D0
F0
40
40
40
40
ENDCHAR
STARTCHAR 026C
ENCODING 620
SWIDTH 308 0
DWIDTH 3 0
BBX 3 8 0 0
BITMAP
40
40
40
C0
E0
40
40
40
ENDCHAR
STARTCHAR 026D
ENCODING 621
SWIDTH 205 0
DWIDTH 2 0
BBX 2 10 1 -2
BITMAP
80
80
80
80
80
80
80
80
80
C0
ENDCHAR
STARTCHAR 026E
ENCODING 622
SWIDTH 617 0
DWIDTH 6 0
BBX 4 10 1 -2
BITMAP
80
80
80
F0
90
A0
B0
90
10
F0
ENDCHAR
STARTCHAR 026F
ENCODING 623
SWIDTH 822 0
DWIDTH 8 0
BBX 7 5 1 0
BITMAP
92
92
92
92
FE
ENDCHAR
STARTCHAR 0270
ENCODING 624
SWIDTH 822 0
DWIDTH 8 0
BBX 7 7 1 -2
BITMAP
92
92
92
92
FE
02
02
ENDCHAR
STARTCHAR 0271
ENCODING 625
SWIDTH 822 0
DWIDTH 8 0
BBX 7 7 1 -2
BITMAP
EC
92
92
92
92
02
0C
ENDCHAR
STARTCHAR 0272
ENCODING 626
SWIDTH 617 0
DWIDTH 6 0
BBX 6 7 -1 -2
BITMAP
3C
24
24
24
24
20
C0
ENDCHAR
STARTCHAR 0273
ENCODING 627
SWIDTH 617 0
DWIDTH 6 0
BBX 6 7 1 -2
BITMAP
F0
90
90
90
90
10
1C
ENDCHAR
STARTCHAR 0274
ENCODING 628
SWIDTH 617 0
DWIDTH 6 0
BBX 4 5 1 0
BITMAP
90
D0
D0
B0
90
ENDCHAR
STARTCHAR 0275
ENCODING 629
SWIDTH 514 0
DWIDTH 5 0
BBX 5 5 0 0
BITMAP
70
88
F8
88
70
ENDCHAR
STARTCHAR 0276
ENCODING 630
SWIDTH 822 0
DWIDTH 8 0
BBX 7 5 0 0
BITMAP
7E
C8
8E
C8
7E
ENDCHAR
STARTCHAR 0277
ENCODING 631
SWIDTH 720 0
DWIDTH 7 0
BBX 7 5 0 0
BITMAP
3C
46
92
92
6C
ENDCHAR
STARTCHAR 0278
ENCODING 632
SWIDTH 514 0
DWIDTH 5 0
BBX 5 10 0 -2
BITMAP
20
20
20
70
A8
A8
A8
70
20
20
ENDCHAR
STARTCHAR 0279
ENCODING 633
SWIDTH 411 0
DWIDTH 4 0
BBX 3 5 0 0
BITMAP
20
20
20
20
E0
ENDCHAR
STARTCHAR 027A
ENCODING 634
SWIDTH 411 0
DWIDTH 4 0
BBX 3 8 0 0
BITMAP
20
20
20
20
20
20
20
E0
ENDCHAR
STARTCHAR 027B
ENCODING 635
SWIDTH 411 0
DWIDTH 4 0
BBX 5 7 0 -2
BITMAP
20
20
20
20
E0
20
18
ENDCHAR
STARTCHAR 027C
ENCODING 636
SWIDTH 411 0
DWIDTH 4 0
BBX 3 7 1 -2
BITMAP
E0
80
80
80
80
80
80
ENDCHAR
STARTCHAR 027D
ENCODING 637
SWIDTH 411 0
DWIDTH 4 0
BBX 3 7 1 -2
BITMAP
E0
80
80
80
80
80
C0
ENDCHAR
STARTCHAR 027E
ENCODING 638
SWIDTH 308 0
DWIDTH 3 0
BBX 2 5 1 0
BITMAP
C0
80
80
80
80
ENDCHAR
STARTCHAR 027F
ENCODING 639
SWIDTH 308 0
DWIDTH 3 0
BBX 3 7 0 -2
BITMAP
C0
20
20
20
20
20
20
ENDCHAR
STARTCHAR 0280
ENCODING 640
SWIDTH 514 0
DWIDTH 5 0
BBX 4 5 1 0
BITMAP
E0
A0
E0
A0
90
ENDCHAR
STARTCHAR 0281
ENCODING 641
SWIDTH 514 0
DWIDTH 5 0
BBX 4 5 1 0
BITMAP
90
A0
E0
A0
E0
ENDCHAR
STARTCHAR 0282
ENCODING 642
SWIDTH 411 0
DWIDTH 4 0
BBX 4 7 0 -2
BITMAP
70
80
70
10
F0
80
60
ENDCHAR
STARTCHAR 0283
ENCODING 643
SWIDTH 514 0
DWIDTH 5 0
BBX 5 10 0 -2
BITMAP
18
20
20
20
20
20
20
20
20
E0
ENDCHAR
STARTCHAR 0284
ENCODING 644
SWIDTH 308 0
DWIDTH 3 0
BBX 4 10 0 -2
BITMAP
30
20
40
40
40
40
E0
40
40
C0
ENDCHAR
STARTCHAR 0285
ENCODING 645
SWIDTH 514 0
DWIDTH 5 0
BBX 5 7 0 -2
BITMAP
E0
20
20
20
20
20
18
ENDCHAR
STARTCHAR 0286
ENCODING 646
SWIDTH 617 0
DWIDTH 6 0
BBX 5 10 0 -2
BITMAP
18
10
10
10
10
10
10
D0
A0
F0
ENDCHAR
STARTCHAR 0287
ENCODING 647
SWIDTH 308 0
DWIDTH 3 0
BBX 3 7 0 0
BITMAP
C0
20
20
20
E0
20
20
ENDCHAR
STARTCHAR 0288
ENCODING 648
SWIDTH 308 0
DWIDTH 3 0
BBX 3 9 0 -2
BITMAP
40
40
E0
40
40
40
40
40
60
ENDCHAR
STARTCHAR 0289
ENCODING 649
SWIDTH 617 0
DWIDTH 6 0
BBX 6 5 0 0
BITMAP
48
FC
48
48
78
ENDCHAR
STARTCHAR 028A
ENCODING 650
SWIDTH 617 0
DWIDTH 6 0
BBX 5 5 1 0
BITMAP
D8
50
88
98
F0
ENDCHAR
STARTCHAR 028B
ENCODING 651
SWIDTH 617 0
DWIDTH 6 0
BBX 4 5 1 0
BITMAP
B0
90
90
90
E0
ENDCHAR
STARTCHAR 028C
ENCODING 652
SWIDTH 514 0
DWIDTH 5 0
BBX 5 5 0 0
BITMAP
20
50
50
50
88
ENDCHAR
STARTCHAR 028D
ENCODING 653
SWIDTH 720 0
DWIDTH 7 0
BBX 7 5 0 0
BITMAP
64
6C
6A
5A
92
ENDCHAR
STARTCHAR 028E
ENCODING 654
SWIDTH 514 0
DWIDTH 5 0
BBX 5 7 0 0
BITMAP
10
20
20
50
50
50
88
ENDCHAR
STARTCHAR 028F
ENCODING 655
SWIDTH 514 0
DWIDTH 5 0
BBX 4 5 0 0
BITMAP
90
50
20
20
20
ENDCHAR
STARTCHAR 0290
ENCODING 656
SWIDTH 411 0
DWIDTH 4 0
BBX 6 7 0 -2
BITMAP
F0
10
20
40
F0
10
0C
ENDCHAR
STARTCHAR 0291
ENCODING 657
SWIDTH 514 0
DWIDTH 5 0
BBX 5 6 0 -1
BITMAP
F0
10
20
58
F8
20
ENDCHAR
STARTCHAR 0292
ENCODING 658
SWIDTH 411 0
DWIDTH 4 0
BBX 4 7 0 -2
BITMAP
F0
10
20
30
10
10
F0
ENDCHAR
STARTCHAR 0293
ENCODING 659
SWIDTH 411 0
DWIDTH 4 0
BBX 5 7 0 -2
BITMAP
F0
10
20
30
10
F0
F8
ENDCHAR
STARTCHAR 0294
ENCODING 660
SWIDTH 514 0
DWIDTH 5 0
BBX 4 8 0 0
BITMAP
E0
10
10
10
60
40
40
40
ENDCHAR
STARTCHAR 0295
ENCODING 661
SWIDTH 514 0
DWIDTH 5 0
BBX 4 8 0 0
BITMAP
70
C0
80
C0
60
20
20
20
ENDCHAR
STARTCHAR 0296
ENCODING 662
SWIDTH 514 0
DWIDTH 5 0
BBX 4 8 0 0
BITMAP
40
40
40
60
10
10
10
E0
ENDCHAR
STARTCHAR 0297
ENCODING 663
SWIDTH 514 0
DWIDTH 5 0
BBX 4 7 0 -2
BITMAP
70
C0
80
80
80
C0
70
ENDCHAR
STARTCHAR 0298
ENCODING 664
SWIDTH 720 0
DWIDTH 7 0
BBX 7 7 0 0
BITMAP
38
44
82
92
82
44
38
ENDCHAR
STARTCHAR 0299
ENCODING 665
SWIDTH 514 0
DWIDTH 5 0
BBX 4 5 1 0
BITMAP
E0
90
E0
90
F0
ENDCHAR
STARTCHAR 029A
ENCODING 666
SWIDTH 514 0
DWIDTH 5 0
BBX 5 5 0 0
BITMAP
70
88
68
88
70
ENDCHAR
STARTCHAR 029B
ENCODING 667
SWIDTH 514 0
DWIDTH 5 0
BBX 6 6 0 0
BITMAP
0C
78
C0
98
C8
78
ENDCHAR
STARTCHAR 029C
ENCODING 668
SWIDTH 617 0
DWIDTH 6 0
BBX 4 5 1 0
BITMAP
90
90
F0
90
90
ENDCHAR
STARTCHAR 029D
ENCODING 669
SWIDTH 411 0
DWIDTH 4 0
BBX 4 9 0 -2
BITMAP
20
00
60
20
20
20
F0
A0
E0
ENDCHAR
STARTCHAR 029E
ENCODING 670
SWIDTH 514 0
DWIDTH 5 0
BBX 4 7 0 -2
BITMAP
90
50
30
30
50
10
10
ENDCHAR
STARTCHAR 029F
ENCODING 671
SWIDTH 411 0
DWIDTH 4 0
BBX 3 5 1 0
BITMAP
80
80
80
80
E0
ENDCHAR
STARTCHAR 02A0
ENCODING 672
SWIDTH 617 0
DWIDTH 6 0
BBX 7 10 0 -2
BITMAP
06
08
08
78
C8
88
88
78
08
08
ENDCHAR
STARTCHAR 02A1
ENCODING 673
SWIDTH 514 0
DWIDTH 5 0
BBX 4 8 0 0
BITMAP
E0
10
10
10
60
40
E0
40
ENDCHAR
STARTCHAR 02A2
ENCODING 674
SWIDTH 514 0
DWIDTH 5 0
BBX 4 8 0 0
BITMAP
70
C0
80
C0
60
20
70
20
ENDCHAR
STARTCHAR 02A3
ENCODING 675
SWIDTH 925 0
DWIDTH 9 0
BBX 9 8 0 0
BITMAP
0800
0800
0800
7F80
C900
8A00
8C00
7F80
ENDCHAR
STARTCHAR 02A4
ENCODING 676
SWIDTH 925 0
DWIDTH 9 0
BBX 8 10 0 -2
BITMAP
08
08
08
7F
C9
8A
8B
79
01
0F
ENDCHAR
STARTCHAR 02A5
ENCODING 677
SWIDTH 1028 0
DWIDTH 10 0
BBX 10 9 0 -1
BITMAP
0800
0800
0800
7F80
C900
8A00
8DC0
7FC0
0200
ENDCHAR
STARTCHAR 02A6
ENCODING 678
SWIDTH 720 0
DWIDTH 7 0
BBX 6 7 0 0
BITMAP
40
40
FC
60
5C
44
7C
ENDCHAR
STARTCHAR 02A7
ENCODING 679
SWIDTH 514 0
DWIDTH 5 0
BBX 6 10 0 -2
BITMAP
0C
50
50
F0
50
50
50
70
10
60
ENDCHAR
STARTCHAR 02A8
ENCODING 680
SWIDTH 720 0
DWIDTH 7 0
BBX 7 7 0 0
BITMAP
40
40
EE
50
56
5A
7E
ENDCHAR
STARTCHAR 02A9
ENCODING 681
SWIDTH 822 0
DWIDTH 8 0
BBX 7 10 0 -2
BITMAP
70
40
40
FE
52
52
52
52
02
06
ENDCHAR
STARTCHAR 02AA
ENCODING 682
SWIDTH 617 0
DWIDTH 6 0
BBX 5 8 1 0
BITMAP
80
80
80
B8
C0
B8
88
F8
ENDCHAR
STARTCHAR 02AB
ENCODING 683
SWIDTH 617 0
DWIDTH 6 0
BBX 4 8 1 0
BITMAP
80
80
80
F0
90
A0
C0
F0
ENDCHAR
STARTCHAR 02AC
ENCODING 684
SWIDTH 514 0
DWIDTH 5 0
BBX 5 6 0 0
BITMAP
A8
F0
50
A8
F0
50
ENDCHAR
STARTCHAR 02AD
ENCODING 685
SWIDTH 617 0
DWIDTH 6 0
BBX 4 7 1 0
BITMAP
F0
90
00
00
00
F0
90
ENDCHAR
STARTCHAR 02AE
ENCODING 686
SWIDTH 720 0
DWIDTH 7 0
BBX 6 7 0 -2
BITMAP
C4
24
24
24
3C
04
04
ENDCHAR
STARTCHAR 02AF
ENCODING 687
SWIDTH 822 0
DWIDTH 8 0
BBX 8 7 0 -2
BITMAP
C4
24
24
24
3C
04
03
ENDCHAR
STARTCHAR 02B0
ENCODING 688
SWIDTH 411 0
DWIDTH 4 0
BBX 3 5 0 2
BITMAP
80
80
E0
A0
A0
ENDCHAR
STARTCHAR 02B1
ENCODING 689
SWIDTH 411 0
DWIDTH 4 0
BBX 3 5 0 2
BITMAP
40
80
E0
A0
A0
ENDCHAR
STARTCHAR 02B2
ENCODING 690
SWIDTH 205 0
DWIDTH 2 0
BBX 2 6 0 1
BITMAP
40
00
40
40
40
C0
ENDCHAR
STARTCHAR 02B3
ENCODING 691
SWIDTH 308 0
DWIDTH 3 0
BBX 2 3 0 2
BITMAP
C0
80
80
ENDCHAR
STARTCHAR 02B4
ENCODING 692
SWIDTH 308 0
DWIDTH 3 0
BBX 2 3 0 2
BITMAP
40
40
C0
ENDCHAR
STARTCHAR 02B5
ENCODING 693
SWIDTH 308 0
DWIDTH 3 0
BBX 3 4 0 1
BITMAP
40
40
C0
20
ENDCHAR
STARTCHAR 02B6
ENCODING 694
SWIDTH 411 0
DWIDTH 4 0
BBX 3 3 0 2
BITMAP
A0
E0
E0
ENDCHAR
STARTCHAR 02B7
ENCODING 695
SWIDTH 514 0
DWIDTH 5 0
BBX 5 3 0 2
BITMAP
A8
D0
50
ENDCHAR
STARTCHAR 02B8
ENCODING 696
SWIDTH 308 0
DWIDTH 3 0
BBX 3 4 0 1
BITMAP
A0
60
40
40
ENDCHAR
STARTCHAR 02B9
ENCODING 697
SWIDTH 308 0
DWIDTH 3 0
BBX 2 3 1 4
BITMAP
C0
80
80
ENDCHAR
STARTCHAR 02BA
ENCODING 698
SWIDTH 514 0
DWIDTH 5 0
BBX 3 3 1 4
BITMAP
E0
A0
A0
ENDCHAR
STARTCHAR 02BB
ENCODING 699
SWIDTH 205 0
DWIDTH 2 0
BBX 2 3 0 5
BITMAP
40
80
80
ENDCHAR
STARTCHAR 02BC
ENCODING 700
SWIDTH 205 0
DWIDTH 2 0
BBX 2 3 0 5
BITMAP
40
40
80
ENDCHAR
STARTCHAR 02BD
ENCODING 701
SWIDTH 205 0
DWIDTH 2 0
BBX 2 3 0 5
BITMAP
80
80
40
ENDCHAR
STARTCHAR 02BE
ENCODING 702
SWIDTH 514 0
DWIDTH 5 0
BBX 1 3 2 5
BITMAP
80
80
80
ENDCHAR
STARTCHAR 02BF
ENCODING 703
SWIDTH 514 0
DWIDTH 5 0
BBX 1 3 2 5
BITMAP
80
80
80
ENDCHAR
STARTCHAR 02C0
ENCODING 704
SWIDTH 411 0
DWIDTH 4 0
BBX 3 5 0 2
BITMAP
E0
20
20
60
40
ENDCHAR
STARTCHAR 02C1
ENCODING 705
SWIDTH 411 0
DWIDTH 4 0
BBX 3 5 0 2
BITMAP
60
80
80
40
20
ENDCHAR
STARTCHAR 02C2
ENCODING 706
SWIDTH 720 0
DWIDTH 7 0
BBX 5 5 1 0
BITMAP
08
70
80
70
08
ENDCHAR
STARTCHAR 02C3
ENCODING 707
SWIDTH 720 0
DWIDTH 7 0
BBX 5 5 1 0
BITMAP
80
70
08
70
80
ENDCHAR
STARTCHAR 02C4
ENCODING 708
SWIDTH 720 0
DWIDTH 7 0
BBX 5 5 1 1
BITMAP
20
30
50
48
88
ENDCHAR
STARTCHAR 02C5
ENCODING 709
SWIDTH 720 0
DWIDTH 7 0
BBX 5 5 1 1
BITMAP
88
48
50
30
20
ENDCHAR
STARTCHAR 02C6
ENCODING 710
SWIDTH 514 0
DWIDTH 5 0
BBX 3 2 1 6
BITMAP
60
A0
ENDCHAR
STARTCHAR 02C7
ENCODING 711
SWIDTH 514 0
DWIDTH 5 0
BBX 3 2 1 6
BITMAP
A0
60
ENDCHAR
STARTCHAR 02C8
ENCODING 712
SWIDTH 514 0
DWIDTH 5 0
BBX 1 2 2 6
BITMAP
80
80
ENDCHAR
STARTCHAR 02C9
ENCODING 713
SWIDTH 514 0
DWIDTH 5 0
BBX 4 1 1 6
BITMAP
F0
ENDCHAR
STARTCHAR 02CA
ENCODING 714
SWIDTH 514 0
DWIDTH 5 0
BBX 2 2 2 6
BITMAP
40
80
ENDCHAR
STARTCHAR 02CB
ENCODING 715
SWIDTH 514 0
DWIDTH 5 0
BBX 1 2 2 6
BITMAP
80
80
ENDCHAR
STARTCHAR 02CC
ENCODING 716
SWIDTH 514 0
DWIDTH 5 0
BBX 1 2 2 -2
BITMAP
80
80
ENDCHAR
STARTCHAR 02CD
ENCODING 717
SWIDTH 514 0
DWIDTH 5 0
BBX 4 1 1 -2
BITMAP
F0
ENDCHAR
STARTCHAR 02CE
ENCODING 718
SWIDTH 514 0
DWIDTH 5 0
BBX 1 2 2 -2
BITMAP
80
80
ENDCHAR
STARTCHAR 02CF
ENCODING 719
SWIDTH 514 0
DWIDTH 5 0
BBX 2 2 2 -2
BITMAP
40
80
ENDCHAR
STARTCHAR 02D0
ENCODING 720
SWIDTH 411 0
DWIDTH 4 0
BBX 1 5 1 0
BITMAP
80
00
00
00
80
ENDCHAR
STARTCHAR 02D1
ENCODING 721
SWIDTH 411 0
DWIDTH 4 0
BBX 1 1 1 2
BITMAP
80
ENDCHAR
STARTCHAR 02D2
ENCODING 722
SWIDTH 514 0
DWIDTH 5 0
BBX 1 3 2 1
BITMAP
80
80
80
ENDCHAR
STARTCHAR 02D3
ENCODING 723
SWIDTH 514 0
DWIDTH 5 0
BBX 1 3 2 1
BITMAP
80
80
80
ENDCHAR
STARTCHAR 02D4
ENCODING 724
SWIDTH 308 0
DWIDTH 3 0
BBX 2 2 1 1
BITMAP
80
C0
ENDCHAR
STARTCHAR 02D5
ENCODING 725
SWIDTH 308 0
DWIDTH 3 0
BBX 2 2 1 1
BITMAP
C0
80
ENDCHAR
STARTCHAR 02D6
ENCODING 726
SWIDTH 308 0
DWIDTH 3 0
BBX 2 3 1 1
BITMAP
80
C0
80
ENDCHAR
STARTCHAR 02D7
ENCODING 727
SWIDTH 514 0
DWIDTH 5 0
BBX 4 1 1 1
BITMAP
F0
ENDCHAR
STARTCHAR 02D8
ENCODING 728
SWIDTH 514 0
DWIDTH 5 0
BBX 3 2 1 6
BITMAP
A0
60
ENDCHAR
STARTCHAR 02D9
ENCODING 729
SWIDTH 514 0
DWIDTH 5 0
BBX 1 1 2 6
BITMAP
80
ENDCHAR
STARTCHAR 02DA
ENCODING 730
SWIDTH 514 0
DWIDTH 5 0
BBX 3 3 1 5
BITMAP
60
A0
60
ENDCHAR
STARTCHAR 02DB
ENCODING 731
SWIDTH 514 0
DWIDTH 5 0
BBX 1 2 2 -2
BITMAP
80
80
ENDCHAR
STARTCHAR 02DC
ENCODING 732
SWIDTH 514 0
DWIDTH 5 0
BBX 4 2 1 6
BITMAP
D0
A0
ENDCHAR
STARTCHAR 02DD
ENCODING 733
SWIDTH 514 0
DWIDTH 5 0
BBX 4 2 1 6
BITMAP
50
A0
ENDCHAR
STARTCHAR 02DE
ENCODING 734
SWIDTH 308 0
DWIDTH 3 0
BBX 3 2 0 2
BITMAP
80
E0
ENDCHAR
STARTCHAR 02DF
ENCODING 735
SWIDTH 411 0
DWIDTH 4 0
BBX 4 3 0 4
BITMAP
B0
40
B0
ENDCHAR
STARTCHAR 02E0
ENCODING 736
SWIDTH 308 0
DWIDTH 3 0
BBX 3 4 0 1
BITMAP
A0
40
40
40
ENDCHAR
STARTCHAR 02E1
ENCODING 737
SWIDTH 205 0
DWIDTH 2 0
BBX 1 5 0 2
BITMAP
80
80
80
80
80
ENDCHAR
STARTCHAR 02E2
ENCODING 738
SWIDTH 411 0
DWIDTH 4 0
BBX 3 3 0 2
BITMAP
60
60
E0
ENDCHAR
STARTCHAR 02E3
ENCODING 739
SWIDTH 308 0
DWIDTH 3 0
BBX 3 3 0 2
BITMAP
A0
40
A0
ENDCHAR
STARTCHAR 02E4
ENCODING 740
SWIDTH 411 0
DWIDTH 4 0
BBX 3 5 0 2
BITMAP
60
80
80
40
20
ENDCHAR
STARTCHAR 02E5
ENCODING 741
SWIDTH 411 0
DWIDTH 4 0
BBX 2 7 1 0
BITMAP
C0
40
40
40
40
40
40
ENDCHAR
STARTCHAR 02E6
ENCODING 742
SWIDTH 411 0
DWIDTH 4 0
BBX 2 7 1 0
BITMAP
40
C0
40
40
40
40
40
ENDCHAR
STARTCHAR 02E7
ENCODING 743
SWIDTH 411 0
DWIDTH 4 0
BBX 2 7 1 0
BITMAP
40
40
40
C0
40
40
40
ENDCHAR
STARTCHAR 02E8
ENCODING 744
SWIDTH 411 0
DWIDTH 4 0
BBX 2 7 1 0
BITMAP
40
40
40
40
C0
40
40
ENDCHAR
STARTCHAR 02E9
ENCODING 745
SWIDTH 411 0
DWIDTH 4 0
BBX 2 7 1 0
BITMAP
40
40
40
40
40
40
C0
ENDCHAR
STARTCHAR 02EA
ENCODING 746
SWIDTH 308 0
DWIDTH 3 0
BBX 3 4 0 0
BITMAP
80
80
80
E0
ENDCHAR
STARTCHAR 02EB
ENCODING 747
SWIDTH 308 0
DWIDTH 3 0
BBX 3 4 0 0
BITMAP
80
E0
80
80
ENDCHAR
STARTCHAR 02EC
ENCODING 748
SWIDTH 514 0
DWIDTH 5 0
BBX 3 2 1 -2
BITMAP
A0
60
ENDCHAR
STARTCHAR 02ED
ENCODING 749
SWIDTH 514 0
DWIDTH 5 0
BBX 3 3 1 4
BITMAP
E0
00
E0
ENDCHAR
STARTCHAR 02EE
ENCODING 750
SWIDTH 411 0
DWIDTH 4 0
BBX 3 3 1 5
BITMAP
A0
A0
C0
ENDCHAR
STARTCHAR 02EF
ENCODING 751
SWIDTH 514 0
DWIDTH 5 0
BBX 2 2 2 -2
BITMAP
C0
80
ENDCHAR
STARTCHAR 02F0
ENCODING 752
SWIDTH 514 0
DWIDTH 5 0
BBX 2 2 2 -2
BITMAP
80
C0
ENDCHAR
STARTCHAR 02F1
ENCODING 753
SWIDTH 514 0
DWIDTH 5 0
BBX 1 3 2 -3
BITMAP
80
80
80
ENDCHAR
STARTCHAR 02F2
ENCODING 754
SWIDTH 514 0
DWIDTH 5 0
BBX 1 3 2 -3
BITMAP
80
80
80
ENDCHAR
STARTCHAR 02F3
ENCODING 755
SWIDTH 514 0
DWIDTH 5 0
BBX 2 2 2 -2
BITMAP
C0
C0
ENDCHAR
STARTCHAR 02F4
ENCODING 756
SWIDTH 514 0
DWIDTH 5 0
BBX 1 2 2 1
BITMAP
80
80
ENDCHAR
STARTCHAR 02F5
ENCODING 757
SWIDTH 514 0
DWIDTH 5 0
BBX 3 2 1 1
BITMAP
A0
A0
ENDCHAR
STARTCHAR 02F6
ENCODING 758
SWIDTH 514 0
DWIDTH 5 0
BBX 4 2 1 1
BITMAP
50
A0
ENDCHAR
STARTCHAR 02F7
ENCODING 759
SWIDTH 514 0
DWIDTH 5 0
BBX 4 2 1 -2
BITMAP
D0
A0
ENDCHAR
STARTCHAR 02F8
ENCODING 760
SWIDTH 411 0
DWIDTH 4 0
BBX 1 7 1 0
BITMAP
80
80
00
00
00
80
80
ENDCHAR
STARTCHAR 02F9
ENCODING 761
SWIDTH 514 0
DWIDTH 5 0
BBX 2 2 2 5
BITMAP
C0
80
ENDCHAR
STARTCHAR 02FA
ENCODING 762
SWIDTH 514 0
DWIDTH 5 0
BBX 2 2 2 5
BITMAP
C0
40
ENDCHAR
STARTCHAR 02FB
ENCODING 763
SWIDTH 514 0
DWIDTH 5 0
BBX 2 2 2 0
BITMAP
80
C0
ENDCHAR
STARTCHAR 02FC
ENCODING 764
SWIDTH 514 0
DWIDTH 5 0
BBX 2 2 2 0
BITMAP
40
C0
ENDCHAR
STARTCHAR 02FD
ENCODING 765
SWIDTH 514 0
DWIDTH 5 0
BBX 4 2 1 -2
BITMAP
90
F0
ENDCHAR
STARTCHAR 02FE
ENCODING 766
SWIDTH 514 0
DWIDTH 5 0
BBX 4 2 1 -2
BITMAP
80
F0
ENDCHAR
STARTCHAR 02FF
ENCODING 767
SWIDTH 308 0
DWIDTH 3 0
BBX 3 1 0 -1
BITMAP
E0
ENDCHAR
STARTCHAR 0300
ENCODING 768
SWIDTH 0 0
DWIDTH 0 0
BBX 1 2 -3 6
BITMAP
80
80
ENDCHAR
STARTCHAR 0301
ENCODING 769
SWIDTH 0 0
DWIDTH 0 0
BBX 2 2 -3 6
BITMAP
40
80
ENDCHAR
STARTCHAR 0302
ENCODING 770
SWIDTH 0 0
DWIDTH 0 0
BBX 2 2 -1 6
BITMAP
C0
C0
ENDCHAR
STARTCHAR 0303
ENCODING 771
SWIDTH 0 0
DWIDTH 0 0
BBX 4 2 -5 8
BITMAP
50
B0
ENDCHAR
STARTCHAR 0304
ENCODING 772
SWIDTH 0 0
DWIDTH 0 0
BBX 4 1 -2 6
BITMAP
F0
ENDCHAR
STARTCHAR 0305
ENCODING 773
SWIDTH 0 0
DWIDTH 0 0
BBX 6 1 -3 8
BITMAP
FC
ENDCHAR
STARTCHAR 0306
ENCODING 774
SWIDTH 0 0
DWIDTH 0 0
BBX 4 2 -2 6
BITMAP
90
60
ENDCHAR
STARTCHAR 0307
ENCODING 775
SWIDTH 0 0
DWIDTH 0 0
BBX 2 1 -1 6
BITMAP
C0
ENDCHAR
STARTCHAR 0308
ENCODING 776
SWIDTH 0 0
DWIDTH 0 0
BBX 4 1 -2 6
BITMAP
90
ENDCHAR
STARTCHAR 0309
ENCODING 777
SWIDTH 0 0
DWIDTH 0 0
BBX 2 2 2 6
BITMAP
C0
80
ENDCHAR
STARTCHAR 030A
ENCODING 778
SWIDTH 0 0
DWIDTH 0 0
BBX 4 3 -2 5
BITMAP
60
90
60
ENDCHAR
STARTCHAR 030B
ENCODING 779
SWIDTH 0 0
DWIDTH 0 0
BBX 4 2 -2 6
BITMAP
50
A0
ENDCHAR
STARTCHAR 030C
ENCODING 780
SWIDTH 0 0
DWIDTH 0 0
BBX 2 2 -1 6
BITMAP
C0
C0
ENDCHAR
STARTCHAR 030D
ENCODING 781
SWIDTH 0 0
DWIDTH 0 0
BBX 1 2 0 6
BITMAP
80
80
ENDCHAR
STARTCHAR 030E
ENCODING 782
SWIDTH 0 0
DWIDTH 0 0
BBX 2 2 -1 6
BITMAP
C0
C0
ENDCHAR
STARTCHAR 030F
ENCODING 783
SWIDTH 0 0
DWIDTH 0 0
BBX 4 2 -2 6
BITMAP
A0
50
ENDCHAR
STARTCHAR 0310
ENCODING 784
SWIDTH 0 0
DWIDTH 0 0
BBX 4 3 -2 6
BITMAP
40
90
60
ENDCHAR
STARTCHAR 0311
ENCODING 785
SWIDTH 0 0
DWIDTH 0 0
BBX 4 2 -2 6
BITMAP
60
90
ENDCHAR
STARTCHAR 0312
ENCODING 786
SWIDTH 0 0
DWIDTH 0 0
BBX 1 2 0 6
BITMAP
80
80
ENDCHAR
STARTCHAR 0313
ENCODING 787
SWIDTH 0 0
DWIDTH 0 0
BBX 1 2 0 6
BITMAP
80
80
ENDCHAR
STARTCHAR 0314
ENCODING 788
SWIDTH 0 0
DWIDTH 0 0
BBX 1 2 0 6
BITMAP
80
80
ENDCHAR
STARTCHAR 0315
ENCODING 789
SWIDTH 0 0
DWIDTH 0 0
BBX 1 2 0 6
BITMAP
80
80
ENDCHAR
STARTCHAR 0316
ENCODING 790
SWIDTH 0 0
DWIDTH 0 0
BBX 2 2 -1 -2
BITMAP
80
40
ENDCHAR
STARTCHAR 0317
ENCODING 791
SWIDTH 0 0
DWIDTH 0 0
BBX 2 2 -1 -2
BITMAP
40
80
ENDCHAR
STARTCHAR 0318
ENCODING 792
SWIDTH 0 0
DWIDTH 0 0
BBX 2 2 -1 -2
BITMAP
C0
40
ENDCHAR
STARTCHAR 0319
ENCODING 793
SWIDTH 0 0
DWIDTH 0 0
BBX 2 2 -1 -2
BITMAP
C0
80
ENDCHAR
STARTCHAR 031A
ENCODING 794
SWIDTH 0 0
DWIDTH 0 0
BBX 4 2 -2 7
BITMAP
F0
10
ENDCHAR
STARTCHAR 031B
ENCODING 795
SWIDTH 0 0
DWIDTH 0 0
BBX 2 2 0 6
BITMAP
40
80
ENDCHAR
STARTCHAR 031C
ENCODING 796
SWIDTH 0 0
DWIDTH 0 0
BBX 1 2 0 -2
BITMAP
80
80
ENDCHAR
STARTCHAR 031D
ENCODING 797
SWIDTH 0 0
DWIDTH 0 0
BBX 2 2 -1 -2
BITMAP
80
C0
ENDCHAR
STARTCHAR 031E
ENCODING 798
SWIDTH 0 0
DWIDTH 0 0
BBX 2 2 -1 -2
BITMAP
C0
80
ENDCHAR
STARTCHAR 031F
ENCODING 799
SWIDTH 0 0
DWIDTH 0 0
BBX 2 2 -1 -2
BITMAP
C0
80
ENDCHAR
STARTCHAR 0320
ENCODING 800
SWIDTH 0 0
DWIDTH 0 0
BBX 4 1 -2 -2
BITMAP
F0
ENDCHAR
STARTCHAR 0321
ENCODING 801
SWIDTH 0 0
DWIDTH 0 0
BBX 3 3 -2 -2
BITMAP
20
20
C0
ENDCHAR
STARTCHAR 0322
ENCODING 802
SWIDTH 0 0
DWIDTH 0 0
BBX 3 3 0 -2
BITMAP
80
80
60
ENDCHAR
STARTCHAR 0323
ENCODING 803
SWIDTH 0 0
DWIDTH 0 0
BBX 1 1 2 -2
BITMAP
80
ENDCHAR
STARTCHAR 0324
ENCODING 804
SWIDTH 0 0
DWIDTH 0 0
BBX 4 1 -2 -2
BITMAP
90
ENDCHAR
STARTCHAR 0325
ENCODING 805
SWIDTH 0 0
DWIDTH 0 0
BBX 2 2 -1 -2
BITMAP
C0
C0
ENDCHAR
STARTCHAR 0326
ENCODING 806
SWIDTH 0 0
DWIDTH 0 0
BBX 1 2 0 -2
BITMAP
80
80
ENDCHAR
STARTCHAR 0327
ENCODING 807
SWIDTH 0 0
DWIDTH 0 0
BBX 2 2 -1 -2
BITMAP
40
C0
ENDCHAR
STARTCHAR 0328
ENCODING 808
SWIDTH 0 0
DWIDTH 0 0
BBX 2 2 -1 -2
BITMAP
80
C0
ENDCHAR
STARTCHAR 0329
ENCODING 809
SWIDTH 0 0
DWIDTH 0 0
BBX 1 2 0 -2
BITMAP
80
80
ENDCHAR
STARTCHAR 032A
ENCODING 810
SWIDTH 0 0
DWIDTH 0 0
BBX 4 2 -2 -2
BITMAP
F0
90
ENDCHAR
STARTCHAR 032B
ENCODING 811
SWIDTH 0 0
DWIDTH 0 0
BBX 4 2 -2 -2
BITMAP
90
60
ENDCHAR
STARTCHAR 032C
ENCODING 812
SWIDTH 0 0
DWIDTH 0 0
BBX 2 2 -1 -2
BITMAP
C0
C0
ENDCHAR
STARTCHAR 032D
ENCODING 813
SWIDTH 0 0
DWIDTH 0 0
BBX 2 2 -1 -2
BITMAP
C0
C0
ENDCHAR
STARTCHAR 032E
ENCODING 814
SWIDTH 0 0
DWIDTH 0 0
BBX 4 2 -2 -2
BITMAP
90
60
ENDCHAR
STARTCHAR 032F
ENCODING 815
SWIDTH 0 0
DWIDTH 0 0
BBX 4 2 -2 -2
BITMAP
60
90
ENDCHAR
STARTCHAR 0330
ENCODING 816
SWIDTH 0 0
DWIDTH 0 0
BBX 4 2 -2 -2
BITMAP
D0
B0
ENDCHAR
STARTCHAR 0331
ENCODING 817
SWIDTH 0 0
DWIDTH 0 0
BBX 4 1 -2 -2
BITMAP
F0
ENDCHAR
STARTCHAR 0332
ENCODING 818
SWIDTH 0 0
DWIDTH 0 0
BBX 6 1 -3 -2
BITMAP
FC
ENDCHAR
STARTCHAR 0333
ENCODING 819
SWIDTH 0 0
DWIDTH 0 0
BBX 4 2 -2 -2
BITMAP
F0
F0
ENDCHAR
STARTCHAR 0334
ENCODING 820
SWIDTH 0 0
DWIDTH 0 0
BBX 4 2 -2 3
BITMAP
D0
B0
ENDCHAR
STARTCHAR 0335
ENCODING 821
SWIDTH 0 0
DWIDTH 0 0
BBX 4 1 -2 3
BITMAP
F0
ENDCHAR
STARTCHAR 0336
ENCODING 822
SWIDTH 0 0
DWIDTH 0 0
BBX 6 1 -3 3
BITMAP
FC
ENDCHAR
STARTCHAR 0337
ENCODING 823
SWIDTH 0 0
DWIDTH 0 0
BBX 4 3 -2 2
BITMAP
10
60
80
ENDCHAR
STARTCHAR 0338
ENCODING 824
SWIDTH 0 0
DWIDTH 0 0
BBX 4 10 -2 -2
BITMAP
10
20
20
20
20
40
40
40
80
80
ENDCHAR
STARTCHAR 0339
ENCODING 825
SWIDTH 0 0
DWIDTH 0 0
BBX 1 2 0 -2
BITMAP
80
80
ENDCHAR
STARTCHAR 033A
ENCODING 826
SWIDTH 0 0
DWIDTH 0 0
BBX 4 2 -2 -2
BITMAP
90
F0
ENDCHAR
STARTCHAR 033B
ENCODING 827
SWIDTH 0 0
DWIDTH 0 0
BBX 2 2 -1 -2
BITMAP
C0
C0
ENDCHAR
STARTCHAR 033C
ENCODING 828
SWIDTH 0 0
DWIDTH 0 0
BBX 2 2 -1 -2
BITMAP
C0
40
ENDCHAR
STARTCHAR 033D
ENCODING 829
SWIDTH 0 0
DWIDTH 0 0
BBX 2 3 -1 6
BITMAP
C0
80
C0
ENDCHAR
STARTCHAR 033E
ENCODING 830
SWIDTH 0 0
DWIDTH 0 0
BBX 2 3 -1 6
BITMAP
40
40
80
ENDCHAR
STARTCHAR 033F
ENCODING 831
SWIDTH 0 0
DWIDTH 0 0
BBX 6 2 -3 8
BITMAP
FC
FC
ENDCHAR
STARTCHAR 0340
ENCODING 832
SWIDTH 0 0
DWIDTH 0 0
BBX 2 2 -1 6
BITMAP
80
40
ENDCHAR
STARTCHAR 0341
ENCODING 833
SWIDTH 0 0
DWIDTH 0 0
BBX 2 2 -1 6
BITMAP
40
80
ENDCHAR
STARTCHAR 0342
ENCODING 834
SWIDTH 0 0
DWIDTH 0 0
BBX 4 2 -2 6
BITMAP
D0
B0
ENDCHAR
STARTCHAR 0343
ENCODING 835
SWIDTH 0 0
DWIDTH 0 0
BBX 1 2 0 6
BITMAP
80
80
ENDCHAR
STARTCHAR 0344
ENCODING 836
SWIDTH 0 0
DWIDTH 0 0
BBX 4 2 -2 6
BITMAP
20
B0
ENDCHAR
STARTCHAR 0345
ENCODING 837
SWIDTH 0 0
DWIDTH 0 0
BBX 1 2 -1 -2
BITMAP
80
80
ENDCHAR
STARTCHAR 0346
ENCODING 838
SWIDTH 0 0
DWIDTH 0 0
BBX 4 2 -2 6
BITMAP
F0
90
ENDCHAR
STARTCHAR 0347
ENCODING 839
SWIDTH 0 0
DWIDTH 0 0
BBX 6 2 -3 -2
BITMAP
FC
FC
ENDCHAR
STARTCHAR 0348
ENCODING 840
SWIDTH 0 0
DWIDTH 0 0
BBX 2 2 -1 -2
BITMAP
C0
C0
ENDCHAR
STARTCHAR 0349
ENCODING 841
SWIDTH 0 0
DWIDTH 0 0
BBX 2 2 -1 -2
BITMAP
C0
40
ENDCHAR
STARTCHAR 034A
ENCODING 842
SWIDTH 0 0
DWIDTH 0 0
BBX 4 4 -2 6
BITMAP
20
F0
B0
40
ENDCHAR
STARTCHAR 034B
ENCODING 843
SWIDTH 0 0
DWIDTH 0 0
BBX 4 4 -2 6
BITMAP
40
D0
B0
40
ENDCHAR
STARTCHAR 034C
ENCODING 844
SWIDTH 0 0
DWIDTH 0 0
BBX 4 4 -2 6
BITMAP
D0
B0
D0
B0
ENDCHAR
STARTCHAR 034D
ENCODING 845
SWIDTH 0 0
DWIDTH 0 0
BBX 2 1 -1 -2
BITMAP
C0
ENDCHAR
STARTCHAR 034E
ENCODING 846
SWIDTH 0 0
DWIDTH 0 0
BBX 2 2 -1 -2
BITMAP
C0
80
ENDCHAR
STARTCHAR 034F
ENCODING 847
SWIDTH 0 0
DWIDTH 0 0
BBX 8 10 -4 0
BITMAP
DB
81
00
24
C1
81
24
00
81
DB
ENDCHAR
STARTCHAR 0350
ENCODING 848
SWIDTH 0 0
DWIDTH 0 0
BBX 1 3 -1 6
BITMAP
80
80
80
ENDCHAR
STARTCHAR 0351
ENCODING 849
SWIDTH 0 0
DWIDTH 0 0
BBX 2 3 -1 5
BITMAP
40
80
40
ENDCHAR
STARTCHAR 0352
ENCODING 850
SWIDTH 0 0
DWIDTH 0 0
BBX 4 3 -2 6
BITMAP
60
90
40
ENDCHAR
STARTCHAR 0353
ENCODING 851
SWIDTH 0 0
DWIDTH 0 0
BBX 2 3 -1 -3
BITMAP
C0
80
C0
ENDCHAR
STARTCHAR 0354
ENCODING 852
SWIDTH 0 0
DWIDTH 0 0
BBX 2 3 -1 -3
BITMAP
40
80
40
ENDCHAR
STARTCHAR 0355
ENCODING 853
SWIDTH 0 0
DWIDTH 0 0
BBX 2 3 -1 -3
BITMAP
80
40
80
ENDCHAR
STARTCHAR 0356
ENCODING 854
SWIDTH 0 0
DWIDTH 0 0
BBX 3 3 -1 -3
BITMAP
A0
E0
80
ENDCHAR
STARTCHAR 0357
ENCODING 855
SWIDTH 0 0
DWIDTH 0 0
BBX 2 3 -1 5
BITMAP
80
40
80
ENDCHAR
STARTCHAR 0358
ENCODING 856
SWIDTH 0 0
DWIDTH 0 0
BBX 1 1 2 6
BITMAP
80
ENDCHAR
STARTCHAR 0359
ENCODING 857
SWIDTH 0 0
DWIDTH 0 0
BBX 1 1 -1 -2
BITMAP
80
ENDCHAR
STARTCHAR 035A
ENCODING 858
SWIDTH 0 0
DWIDTH 0 0
BBX 2 2 -1 -2
BITMAP
C0
C0
ENDCHAR
STARTCHAR 035B
ENCODING 859
SWIDTH 0 0
DWIDTH 0 0
BBX 2 3 -1 6
BITMAP
80
C0
40
ENDCHAR
STARTCHAR 035C
ENCODING 860
SWIDTH 0 0
DWIDTH 0 0
BBX 8 2 -4 -2
BITMAP
C3
3C
ENDCHAR
STARTCHAR 035D
ENCODING 861
SWIDTH 0 0
DWIDTH 0 0
BBX 8 2 -1 6
BITMAP
C3
3C
ENDCHAR
STARTCHAR 035E
ENCODING 862
SWIDTH 0 0
DWIDTH 0 0
BBX 8 1 -1 7
BITMAP
FF
ENDCHAR
STARTCHAR 035F
ENCODING 863
SWIDTH 0 0
DWIDTH 0 0
BBX 8 1 -1 -2
BITMAP
FF
ENDCHAR
STARTCHAR 0360
ENCODING 864
SWIDTH 0 0
DWIDTH 0 0
BBX 8 2 -1 6
BITMAP
71
8E
ENDCHAR
STARTCHAR 0361
ENCODING 865
SWIDTH 0 0
DWIDTH 0 0
BBX 8 2 -1 6
BITMAP
3C
C3
ENDCHAR
STARTCHAR 0362
ENCODING 866
SWIDTH 0 0
DWIDTH 0 0
BBX 5 1 -1 -2
BITMAP
F8
ENDCHAR
STARTCHAR 0363
ENCODING 867
SWIDTH 0 0
DWIDTH 0 0
BBX 2 3 -1 6
BITMAP
C0
C0
C0
ENDCHAR
STARTCHAR 0364
ENCODING 868
SWIDTH 0 0
DWIDTH 0 0
BBX 2 3 -1 6
BITMAP
C0
C0
C0
ENDCHAR
STARTCHAR 0365
ENCODING 869
SWIDTH 0 0
DWIDTH 0 0
BBX 1 1 0 6
BITMAP
80
ENDCHAR
STARTCHAR 0366
ENCODING 870
SWIDTH 0 0
DWIDTH 0 0
BBX 2 3 -1 6
BITMAP
C0
C0
C0
ENDCHAR
STARTCHAR 0367
ENCODING 871
SWIDTH 0 0
DWIDTH 0 0
BBX 2 2 -1 7
BITMAP
C0
C0
ENDCHAR
STARTCHAR 0368
ENCODING 872
SWIDTH 0 0
DWIDTH 0 0
BBX 2 3 -1 6
BITMAP
C0
80
C0
ENDCHAR
STARTCHAR 0369
ENCODING 873
SWIDTH 0 0
DWIDTH 0 0
BBX 2 3 -1 7
BITMAP
C0
C0
C0
ENDCHAR
STARTCHAR 036A
ENCODING 874
SWIDTH 0 0
DWIDTH 0 0
BBX 2 2 -1 7
BITMAP
C0
C0
ENDCHAR
STARTCHAR 036B
ENCODING 875
SWIDTH 0 0
DWIDTH 0 0
BBX 4 3 -2 6
BITMAP
F0
D0
90
ENDCHAR
STARTCHAR 036C
ENCODING 876
SWIDTH 0 0
DWIDTH 0 0
BBX 2 3 -1 6
BITMAP
C0
80
80
ENDCHAR
STARTCHAR 036D
ENCODING 877
SWIDTH 0 0
DWIDTH 0 0
BBX 2 4 -1 6
BITMAP
80
C0
80
40
ENDCHAR
STARTCHAR 036E
ENCODING 878
SWIDTH 0 0
DWIDTH 0 0
BBX 2 3 -1 6
BITMAP
80
C0
80
ENDCHAR
STARTCHAR 036F
ENCODING 879
SWIDTH 0 0
DWIDTH 0 0
BBX 2 3 -1 6
BITMAP
C0
40
C0
ENDCHAR
STARTCHAR 0370
ENCODING 880
SWIDTH 514 0
DWIDTH 5 0
BBX 4 7 1 0
BITMAP
80
80
80
F0
80
80
80
ENDCHAR
STARTCHAR 0371
ENCODING 881
SWIDTH 514 0
DWIDTH 5 0
BBX 5 5 0 0
BITMAP
C0
20
38
20
20
ENDCHAR
STARTCHAR 0372
ENCODING 882
SWIDTH 617 0
DWIDTH 6 0
BBX 6 7 0 0
BITMAP
FC
94
10
10
10
10
10
ENDCHAR
STARTCHAR 0373
ENCODING 883
SWIDTH 514 0
DWIDTH 5 0
BBX 5 7 0 0
BITMAP
F8
A8
20
20
20
20
20
ENDCHAR
STARTCHAR 0374
ENCODING 884
SWIDTH 514 0
DWIDTH 5 0
BBX 1 2 2 6
BITMAP
80
80
ENDCHAR
STARTCHAR 0375
ENCODING 885
SWIDTH 514 0
DWIDTH 5 0
BBX 2 2 2 -2
BITMAP
40
80
ENDCHAR
STARTCHAR 0376
ENCODING 886
SWIDTH 720 0
DWIDTH 7 0
BBX 5 7 1 0
BITMAP
88
98
A8
A8
C8
C8
88
ENDCHAR
STARTCHAR 0377
ENCODING 887
SWIDTH 720 0
DWIDTH 7 0
BBX 6 5 1 0
BITMAP
90
B0
D0
D0
9C
ENDCHAR
STARTCHAR 037A
ENCODING 890
SWIDTH 514 0
DWIDTH 5 0
BBX 1 2 2 -2
BITMAP
80
80
ENDCHAR
STARTCHAR 037B
ENCODING 891
SWIDTH 514 0
DWIDTH 5 0
BBX 4 5 0 0
BITMAP
E0
10
10
10
E0
ENDCHAR
STARTCHAR 037C
ENCODING 892
SWIDTH 514 0
DWIDTH 5 0
BBX 4 5 0 0
BITMAP
70
C0
A0
C0
70
ENDCHAR
STARTCHAR 037D
ENCODING 893
SWIDTH 514 0
DWIDTH 5 0
BBX 4 5 0 0
BITMAP
E0
10
50
10
E0
ENDCHAR
STARTCHAR 037E
ENCODING 894
SWIDTH 411 0
DWIDTH 4 0
BBX 1 6 1 -1
BITMAP
80
80
00
80
80
80
ENDCHAR
STARTCHAR 037F
ENCODING 895
SWIDTH 411 0
DWIDTH 4 0
BBX 3 7 0 0
BITMAP
60
20
20
20
20
20
E0
ENDCHAR
STARTCHAR 0384
ENCODING 900
SWIDTH 514 0
DWIDTH 5 0
BBX 1 2 2 6
BITMAP
80
80
ENDCHAR
STARTCHAR 0385
ENCODING 901
SWIDTH 514 0
DWIDTH 5 0
BBX 4 2 1 6
BITMAP
40
D0
ENDCHAR
STARTCHAR 0386
ENCODING 902
SWIDTH 617 0
DWIDTH 6 0
BBX 6 7 0 0
BITMAP
B0
B0
48
48
78
84
84
ENDCHAR
STARTCHAR 0387
ENCODING 903
SWIDTH 411 0
DWIDTH 4 0
BBX 1 2 1 3
BITMAP
80
80
ENDCHAR
STARTCHAR 0388
ENCODING 904
SWIDTH 720 0
DWIDTH 7 0
BBX 6 7 0 0
BITMAP
BC
A0
20
3C
20
20
3C
ENDCHAR
STARTCHAR 0389
ENCODING 905
SWIDTH 822 0
DWIDTH 8 0
BBX 7 7 0 0
BITMAP
A2
A2
22
3E
22
22
22
ENDCHAR
STARTCHAR 038A
ENCODING 906
SWIDTH 514 0
DWIDTH 5 0
BBX 4 7 0 0
BITMAP
B0
A0
20
20
20
20
30
ENDCHAR
STARTCHAR 038C
ENCODING 908
SWIDTH 822 0
DWIDTH 8 0
BBX 8 7 0 0
BITMAP
9C
A2
41
41
41
22
1C
ENDCHAR
STARTCHAR 038E
ENCODING 910
SWIDTH 720 0
DWIDTH 7 0
BBX 7 7 0 0
BITMAP
A2
A4
14
08
08
08
08
ENDCHAR
STARTCHAR 038F
ENCODING 911
SWIDTH 822 0
DWIDTH 8 0
BBX 8 7 0 0
BITMAP
9C
A2
41
41
22
22
77
ENDCHAR
STARTCHAR 0390
ENCODING 912
SWIDTH 205 0
DWIDTH 2 0
BBX 3 8 0 0
BITMAP
40
A0
00
40
40
40
40
40
ENDCHAR
STARTCHAR 0391
ENCODING 913
SWIDTH 617 0
DWIDTH 6 0
BBX 6 7 0 0
BITMAP
30
30
48
48
78
84
84
ENDCHAR
STARTCHAR 0392
ENCODING 914
SWIDTH 617 0
DWIDTH 6 0
BBX 5 7 1 0
BITMAP
F0
90
90
F0
88
98
F0
ENDCHAR
STARTCHAR 0393
ENCODING 915
SWIDTH 514 0
DWIDTH 5 0
BBX 4 7 1 0
BITMAP
F0
80
80
80
80
80
80
ENDCHAR
STARTCHAR 0394
ENCODING 916
SWIDTH 617 0
DWIDTH 6 0
BBX 6 7 0 0
BITMAP
30
30
28
48
48
84
FC
ENDCHAR
STARTCHAR 0395
ENCODING 917
SWIDTH 617 0
DWIDTH 6 0
BBX 4 7 1 0
BITMAP
F0
80
80
F0
80
80
F0
ENDCHAR
STARTCHAR 0396
ENCODING 918
SWIDTH 617 0
DWIDTH 6 0
BBX 5 7 0 0
BITMAP
F8
08
10
20
60
40
F8
ENDCHAR
STARTCHAR 0397
ENCODING 919
SWIDTH 720 0
DWIDTH 7 0
BBX 5 7 1 0
BITMAP
88
88
88
F8
88
88
88
ENDCHAR
STARTCHAR 0398
ENCODING 920
SWIDTH 720 0
DWIDTH 7 0
BBX 7 7 0 0
BITMAP
38
44
82
BA
82
44
38
ENDCHAR
STARTCHAR 0399
ENCODING 921
SWIDTH 411 0
DWIDTH 4 0
BBX 3 7 0 0
BITMAP
E0
40
40
40
40
40
E0
ENDCHAR
STARTCHAR 039A
ENCODING 922
SWIDTH 617 0
DWIDTH 6 0
BBX 5 7 1 0
BITMAP
90
A0
C0
C0
A0
90
98
ENDCHAR
STARTCHAR 039B
ENCODING 923
SWIDTH 617 0
DWIDTH 6 0
BBX 6 7 0 0
BITMAP
30
30
30
48
48
88
84
ENDCHAR
STARTCHAR 039C
ENCODING 924
SWIDTH 822 0
DWIDTH 8 0
BBX 6 7 1 0
BITMAP
8C
CC
CC
B4
B4
A4
84
ENDCHAR
STARTCHAR 039D
ENCODING 925
SWIDTH 720 0
DWIDTH 7 0
BBX 5 7 1 0
BITMAP
88
C8
C8
A8
98
98
88
ENDCHAR
STARTCHAR 039E
ENCODING 926
SWIDTH 617 0
DWIDTH 6 0
BBX 5 7 0 0
BITMAP
F8
00
00
78
00
00
F8
ENDCHAR
STARTCHAR 039F
ENCODING 927
SWIDTH 720 0
DWIDTH 7 0
BBX 7 7 0 0
BITMAP
38
44
82
82
82
44
38
ENDCHAR
STARTCHAR 03A0
ENCODING 928
SWIDTH 720 0
DWIDTH 7 0
BBX 5 7 1 0
BITMAP
F8
88
88
88
88
88
88
ENDCHAR
STARTCHAR 03A1
ENCODING 929
SWIDTH 617 0
DWIDTH 6 0
BBX 4 7 1 0
BITMAP
E0
90
90
90
E0
80
80
ENDCHAR
STARTCHAR 03A3
ENCODING 931
SWIDTH 617 0
DWIDTH 6 0
BBX 5 7 0 0
BITMAP
F8
40
20
10
20
40
F8
ENDCHAR
STARTCHAR 03A4
ENCODING 932
SWIDTH 617 0
DWIDTH 6 0
BBX 6 7 0 0
BITMAP
FC
20
20
20
20
20
20
ENDCHAR
STARTCHAR 03A5
ENCODING 933
SWIDTH 617 0
DWIDTH 6 0
BBX 6 7 0 0
BITMAP
8C
48
70
30
20
20
20
ENDCHAR
STARTCHAR 03A6
ENCODING 934
SWIDTH 720 0
DWIDTH 7 0
BBX 7 7 0 0
BITMAP
10
7C
52
92
52
7C
10
ENDCHAR
STARTCHAR 03A7
ENCODING 935
SWIDTH 617 0
DWIDTH 6 0
BBX 5 7 0 0
BITMAP
C8
48
30
30
30
48
88
ENDCHAR
STARTCHAR 03A8
ENCODING 936
SWIDTH 822 0
DWIDTH 8 0
BBX 6 7 1 0
BITMAP
A4
A4
A4
A4
78
20
20
ENDCHAR
STARTCHAR 03A9
ENCODING 937
SWIDTH 720 0
DWIDTH 7 0
BBX 7 7 0 0
BITMAP
38
44
82
82
44
44
EE
ENDCHAR
STARTCHAR 03AA
ENCODING 938
SWIDTH 411 0
DWIDTH 4 0
BBX 3 9 0 0
BITMAP
A0
00
E0
40
40
40
40
40
E0
ENDCHAR
STARTCHAR 03AB
ENCODING 939
SWIDTH 617 0
DWIDTH 6 0
BBX 6 9 0 0
BITMAP
50
00
8C
48
70
30
20
20
20
ENDCHAR
STARTCHAR 03AC
ENCODING 940
SWIDTH 617 0
DWIDTH 6 0
BBX 5 8 0 0
BITMAP
20
20
00
78
C8
88
88
78
ENDCHAR
STARTCHAR 03AD
ENCODING 941
SWIDTH 514 0
DWIDTH 5 0
BBX 4 8 0 0
BITMAP
20
20
00
70
80
60
80
70
ENDCHAR
STARTCHAR 03AE
ENCODING 942
SWIDTH 617 0
DWIDTH 6 0
BBX 4 10 1 -2
BITMAP
60
40
00
F0
90
90
90
90
10
10
ENDCHAR
STARTCHAR 03AF
ENCODING 943
SWIDTH 205 0
DWIDTH 2 0
BBX 1 8 1 0
BITMAP
80
80
00
80
80
80
80
80
ENDCHAR
STARTCHAR 03B0
ENCODING 944
SWIDTH 617 0
DWIDTH 6 0
BBX 4 8 1 0
BITMAP
40
D0
00
90
90
90
90
E0
ENDCHAR
STARTCHAR 03B1
ENCODING 945
SWIDTH 617 0
DWIDTH 6 0
BBX 5 5 0 0
BITMAP
78
C8
88
88
78
ENDCHAR
STARTCHAR 03B2
ENCODING 946
SWIDTH 617 0
DWIDTH 6 0
BBX 4 10 1 -2
BITMAP
E0
90
90
E0
90
90
90
E0
80
80
ENDCHAR
STARTCHAR 03B3
ENCODING 947
SWIDTH 514 0
DWIDTH 5 0
BBX 5 7 0 -2
BITMAP
88
50
50
50
20
20
20
ENDCHAR
STARTCHAR 03B4
ENCODING 948
SWIDTH 514 0
DWIDTH 5 0
BBX 5 8 0 0
BITMAP
78
60
30
48
88
88
C8
70
ENDCHAR
STARTCHAR 03B5
ENCODING 949
SWIDTH 514 0
DWIDTH 5 0
BBX 4 5 0 0
BITMAP
70
80
60
80
70
ENDCHAR
STARTCHAR 03B6
ENCODING 950
SWIDTH 411 0
DWIDTH 4 0
BBX 4 10 0 -2
BITMAP
70
20
40
40
80
80
80
70
10
10
ENDCHAR
STARTCHAR 03B7
ENCODING 951
SWIDTH 617 0
DWIDTH 6 0
BBX 4 7 1 -2
BITMAP
F0
90
90
90
90
10
10
ENDCHAR
STARTCHAR 03B8
ENCODING 952
SWIDTH 617 0
DWIDTH 6 0
BBX 5 8 0 0
BITMAP
70
48
88
F8
88
88
48
70
ENDCHAR
STARTCHAR 03B9
ENCODING 953
SWIDTH 205 0
DWIDTH 2 0
BBX 1 5 1 0
BITMAP
80
80
80
80
80
ENDCHAR
STARTCHAR 03BA
ENCODING 954
SWIDTH 514 0
DWIDTH 5 0
BBX 4 5 1 0
BITMAP
B0
C0
C0
A0
90
ENDCHAR
STARTCHAR 03BB
ENCODING 955
SWIDTH 514 0
DWIDTH 5 0
BBX 5 8 0 0
BITMAP
40
20
20
20
50
50
50
88
ENDCHAR
STARTCHAR 03BC
ENCODING 956
SWIDTH 617 0
DWIDTH 6 0
BBX 4 7 1 -2
BITMAP
90
90
90
90
F0
80
80
ENDCHAR
STARTCHAR 03BD
ENCODING 957
SWIDTH 514 0
DWIDTH 5 0
BBX 5 5 0 0
BITMAP
88
50
50
50
20
ENDCHAR
STARTCHAR 03BE
ENCODING 958
SWIDTH 411 0
DWIDTH 4 0
BBX 5 10 0 -2
BITMAP
F0
40
40
30
40
80
80
70
08
10
ENDCHAR
STARTCHAR 03BF
ENCODING 959
SWIDTH 514 0
DWIDTH 5 0
BBX 5 5 0 0
BITMAP
70
88
88
C8
70
ENDCHAR
STARTCHAR 03C0
ENCODING 960
SWIDTH 617 0
DWIDTH 6 0
BBX 4 5 1 0
BITMAP
F0
90
90
90
90
ENDCHAR
STARTCHAR 03C1
ENCODING 961
SWIDTH 617 0
DWIDTH 6 0
BBX 4 7 1 -2
BITMAP
F0
90
90
90
E0
80
80
ENDCHAR
STARTCHAR 03C2
ENCODING 962
SWIDTH 411 0
DWIDTH 4 0
BBX 4 7 0 -2
BITMAP
70
C0
80
C0
70
10
10
ENDCHAR
STARTCHAR 03C3
ENCODING 963
SWIDTH 617 0
DWIDTH 6 0
BBX 6 5 0 0
BITMAP
7C
88
88
C8
70
ENDCHAR
STARTCHAR 03C4
ENCODING 964
SWIDTH 514 0
DWIDTH 5 0
BBX 5 5 0 0
BITMAP
F8
20
20
20
20
ENDCHAR
STARTCHAR 03C5
ENCODING 965
SWIDTH 617 0
DWIDTH 6 0
BBX 4 5 1 0
BITMAP
90
90
90
90
E0
ENDCHAR
STARTCHAR 03C6
ENCODING 966
SWIDTH 720 0
DWIDTH 7 0
BBX 7 7 0 -2
BITMAP
5C
96
92
D2
7C
10
10
ENDCHAR
STARTCHAR 03C7
ENCODING 967
SWIDTH 514 0
DWIDTH 5 0
BBX 5 7 0 -2
BITMAP
88
50
50
20
50
50
88
ENDCHAR
STARTCHAR 03C8
ENCODING 968
SWIDTH 720 0
DWIDTH 7 0
BBX 6 7 1 -2
BITMAP
A4
A4
A4
A8
F8
20
20
ENDCHAR
STARTCHAR 03C9
ENCODING 969
SWIDTH 720 0
DWIDTH 7 0
BBX 7 5 0 0
BITMAP
44
92
92
92
6C
ENDCHAR
STARTCHAR 03CA
ENCODING 970
SWIDTH 205 0
DWIDTH 2 0
BBX 2 7 0 0
BITMAP
C0
00
40
40
40
40
40
ENDCHAR
STARTCHAR 03CB
ENCODING 971
SWIDTH 617 0
DWIDTH 6 0
BBX 4 7 1 0
BITMAP
A0
00
90
90
90
90
E0
ENDCHAR
STARTCHAR 03CC
ENCODING 972
SWIDTH 514 0
DWIDTH 5 0
BBX 5 8 0 0
BITMAP
20
20
00
70
88
88
C8
70
ENDCHAR
STARTCHAR 03CD
ENCODING 973
SWIDTH 617 0
DWIDTH 6 0
BBX 4 8 1 0
BITMAP
40
40
00
90
90
90
90
E0
ENDCHAR
STARTCHAR 03CE
ENCODING 974
SWIDTH 720 0
DWIDTH 7 0
BBX 7 8 0 0
BITMAP
10
10
00
44
92
92
92
6C
ENDCHAR
STARTCHAR 03CF
ENCODING 975
SWIDTH 617 0
DWIDTH 6 0
BBX 5 9 1 -2
BITMAP
90
A0
C0
C0
A0
90
98
10
20
ENDCHAR
STARTCHAR 03D0
ENCODING 976
SWIDTH 617 0
DWIDTH 6 0
BBX 4 8 1 0
BITMAP
E0
90
90
E0
90
90
90
E0
ENDCHAR
STARTCHAR 03D1
ENCODING 977
SWIDTH 617 0
DWIDTH 6 0
BBX 4 8 1 0
BITMAP
30
50
50
B0
90
90
90
E0
ENDCHAR
STARTCHAR 03D2
ENCODING 978
SWIDTH 720 0
DWIDTH 7 0
BBX 7 7 0 0
BITMAP
86
48
70
30
20
20
20
ENDCHAR
STARTCHAR 03D3
ENCODING 979
SWIDTH 822 0
DWIDTH 8 0
BBX 8 8 0 0
BITMAP
80
A3
24
14
08
08
08
08
ENDCHAR
STARTCHAR 03D4
ENCODING 980
SWIDTH 720 0
DWIDTH 7 0
BBX 7 9 0 0
BITMAP
50
00
86
48
70
30
20
20
20
ENDCHAR
STARTCHAR 03D5
ENCODING 981
SWIDTH 514 0
DWIDTH 5 0
BBX 5 10 0 -2
BITMAP
20
20
20
70
A8
A8
A8
70
20
20
ENDCHAR
STARTCHAR 03D6
ENCODING 982
SWIDTH 720 0
DWIDTH 7 0
BBX 7 5 0 0
BITMAP
FE
42
92
92
6C
ENDCHAR
STARTCHAR 03D7
ENCODING 983
SWIDTH 514 0
DWIDTH 5 0
BBX 5 7 0 -2
BITMAP
C8
50
70
50
98
08
18
ENDCHAR
STARTCHAR 03D8
ENCODING 984
SWIDTH 720 0
DWIDTH 7 0
BBX 7 9 0 -2
BITMAP
38
44
82
82
82
44
38
10
10
ENDCHAR
STARTCHAR 03D9
ENCODING 985
SWIDTH 514 0
DWIDTH 5 0
BBX 5 7 0 -2
BITMAP
70
88
88
88
70
20
20
ENDCHAR
STARTCHAR 03DA
ENCODING 986
SWIDTH 617 0
DWIDTH 6 0
BBX 6 9 0 -2
BITMAP
3C
40
80
80
C0
60
3C
04
38
ENDCHAR
STARTCHAR 03DB
ENCODING 987
SWIDTH 514 0
DWIDTH 5 0
BBX 4 7 0 -2
BITMAP
70
C0
80
C0
70
10
70
ENDCHAR
STARTCHAR 03DC
ENCODING 988
SWIDTH 514 0
DWIDTH 5 0
BBX 4 7 1 0
BITMAP
F0
80
80
F0
90
80
80
ENDCHAR
STARTCHAR 03DD
ENCODING 989
SWIDTH 514 0
DWIDTH 5 0
BBX 3 7 1 -2
BITMAP
E0
80
80
E0
A0
80
80
ENDCHAR
STARTCHAR 03DE
ENCODING 990
SWIDTH 617 0
DWIDTH 6 0
BBX 6 7 0 0
BITMAP
C0
40
48
78
48
08
0C
ENDCHAR
STARTCHAR 03DF
ENCODING 991
SWIDTH 514 0
DWIDTH 5 0
BBX 5 8 0 0
BITMAP
40
40
40
F8
08
10
10
10
ENDCHAR
STARTCHAR 03E0
ENCODING 992
SWIDTH 822 0
DWIDTH 8 0
BBX 7 9 0 -2
BITMAP
30
6C
A4
2E
0A
0A
0A
02
1C
ENDCHAR
STARTCHAR 03E1
ENCODING 993
SWIDTH 617 0
DWIDTH 6 0
BBX 5 10 0 -2
BITMAP
C0
20
10
18
28
18
28
08
08
08
ENDCHAR
STARTCHAR 03E2
ENCODING 994
SWIDTH 925 0
DWIDTH 9 0
BBX 7 9 1 -2
BITMAP
92
92
92
92
92
92
FE
02
7C
ENDCHAR
STARTCHAR 03E3
ENCODING 995
SWIDTH 822 0
DWIDTH 8 0
BBX 7 7 1 -2
BITMAP
92
92
92
92
FE
02
7C
ENDCHAR
STARTCHAR 03E4
ENCODING 996
SWIDTH 617 0
DWIDTH 6 0
BBX 6 7 0 0
BITMAP
64
84
C4
7C
04
04
04
ENDCHAR
STARTCHAR 03E5
ENCODING 997
SWIDTH 617 0
DWIDTH 6 0
BBX 4 8 1 0
BITMAP
D0
90
90
90
90
F0
10
10
ENDCHAR
STARTCHAR 03E6
ENCODING 998
SWIDTH 617 0
DWIDTH 6 0
BBX 5 9 1 -2
BITMAP
80
80
80
F0
88
88
88
08
F0
ENDCHAR
STARTCHAR 03E7
ENCODING 999
SWIDTH 514 0
DWIDTH 5 0
BBX 5 5 0 0
BITMAP
78
58
68
08
F0
ENDCHAR
STARTCHAR 03E8
ENCODING 1000
SWIDTH 617 0
DWIDTH 6 0
BBX 5 7 0 0
BITMAP
78
48
08
70
C0
C8
78
ENDCHAR
STARTCHAR 03E9
ENCODING 1001
SWIDTH 617 0
DWIDTH 6 0
BBX 5 8 0 0
BITMAP
38
48
48
38
60
80
C8
70
ENDCHAR
STARTCHAR 03EA
ENCODING 1002
SWIDTH 617 0
DWIDTH 6 0
BBX 6 7 0 0
BITMAP
CC
30
30
30
30
48
78
ENDCHAR
STARTCHAR 03EB
ENCODING 1003
SWIDTH 617 0
DWIDTH 6 0
BBX 6 5 0 0
BITMAP
CC
30
10
30
30
ENDCHAR
STARTCHAR 03EC
ENCODING 1004
SWIDTH 720 0
DWIDTH 7 0
BBX 7 7 0 0
BITMAP
3C
40
FC
C6
82
46
3C
ENDCHAR
STARTCHAR 03ED
ENCODING 1005
SWIDTH 617 0
DWIDTH 6 0
BBX 5 5 0 0
BITMAP
38
40
B8
C8
78
ENDCHAR
STARTCHAR 03EE
ENCODING 1006
SWIDTH 514 0
DWIDTH 5 0
BBX 5 7 0 0
BITMAP
70
20
F8
A8
20
20
70
ENDCHAR
STARTCHAR 03EF
ENCODING 1007
SWIDTH 411 0
DWIDTH 4 0
BBX 4 8 0 0
BITMAP
40
20
20
F0
20
20
60
20
ENDCHAR
STARTCHAR 03F0
ENCODING 1008
SWIDTH 514 0
DWIDTH 5 0
BBX 5 5 0 0
BITMAP
C8
50
70
50
88
ENDCHAR
STARTCHAR 03F1
ENCODING 1009
SWIDTH 617 0
DWIDTH 6 0
BBX 5 7 0 -2
BITMAP
70
48
88
88
F0
40
38
ENDCHAR
STARTCHAR 03F2
ENCODING 1010
SWIDTH 514 0
DWIDTH 5 0
BBX 4 5 0 0
BITMAP
70
C0
80
C0
70
ENDCHAR
STARTCHAR 03F3
ENCODING 1011
SWIDTH 308 0
DWIDTH 3 0
BBX 2 9 0 -2
BITMAP
40
00
C0
40
40
40
40
40
C0
ENDCHAR
STARTCHAR 03F4
ENCODING 1012
SWIDTH 720 0
DWIDTH 7 0
BBX 7 7 0 0
BITMAP
38
44
82
FE
82
44
38
ENDCHAR
STARTCHAR 03F5
ENCODING 1013
SWIDTH 514 0
DWIDTH 5 0
BBX 4 5 0 0
BITMAP
70
80
F0
80
70
ENDCHAR
STARTCHAR 03F6
ENCODING 1014
SWIDTH 514 0
DWIDTH 5 0
BBX 4 5 0 0
BITMAP
E0
10
70
10
F0
ENDCHAR
STARTCHAR 03F7
ENCODING 1015
SWIDTH 617 0
DWIDTH 6 0
BBX 4 7 1 0
BITMAP
80
F0
90
90
F0
80
80
ENDCHAR
STARTCHAR 03F8
ENCODING 1016
SWIDTH 617 0
DWIDTH 6 0
BBX 4 10 1 -2
BITMAP
80
80
80
F0
90
90
90
E0
80
80
ENDCHAR
STARTCHAR 03F9
ENCODING 1017
SWIDTH 617 0
DWIDTH 6 0
BBX 6 7 0 0
BITMAP
3C
44
80
80
80
44
3C
ENDCHAR
STARTCHAR 03FA
ENCODING 1018
SWIDTH 822 0
DWIDTH 8 0
BBX 6 7 1 0
BITMAP
8C
CC
B4
A4
84
84
84
ENDCHAR
STARTCHAR 03FB
ENCODING 1019
SWIDTH 617 0
DWIDTH 6 0
BBX 5 7 1 -2
BITMAP
98
98
E8
A8
88
80
80
ENDCHAR
STARTCHAR 03FC
ENCODING 1020
SWIDTH 617 0
DWIDTH 6 0
BBX 5 7 0 -2
BITMAP
78
48
48
48
70
40
F0
ENDCHAR
STARTCHAR 03FD
ENCODING 1021
SWIDTH 617 0
DWIDTH 6 0
BBX 6 7 0 0
BITMAP
70
88
04
04
04
88
70
ENDCHAR
STARTCHAR 03FE
ENCODING 1022
SWIDTH 617 0
DWIDTH 6 0
BBX 6 7 0 0
BITMAP
3C
44
80
90
80
44
38
ENDCHAR
STARTCHAR 03FF
ENCODING 1023
SWIDTH 617 0
DWIDTH 6 0
BBX 6 7 0 0
BITMAP
70
88
04
24
04
88
70
ENDCHAR
STARTCHAR 0400
ENCODING 1024
SWIDTH 617 0
DWIDTH 6 0
BBX 4 10 1 0
BITMAP
40
20
00
F0
80
80
F0
80
80
F0
ENDCHAR
STARTCHAR 0401
ENCODING 1025
SWIDTH 617 0
DWIDTH 6 0
BBX 4 9 1 0
BITMAP
50
00
F0
80
80
F0
80
80
F0
ENDCHAR
STARTCHAR 0402
ENCODING 1026
SWIDTH 720 0
DWIDTH 7 0
BBX 7 7 0 0
BITMAP
F8
20
20
3C
22
22
2C
ENDCHAR
STARTCHAR 0403
ENCODING 1027
SWIDTH 514 0
DWIDTH 5 0
BBX 4 10 1 0
BITMAP
20
20
00
F0
80
80
80
80
80
80
ENDCHAR
STARTCHAR 0404
ENCODING 1028
SWIDTH 617 0
DWIDTH 6 0
BBX 6 7 0 0
BITMAP
3C
40
80
F8
80
40
3C
ENDCHAR
STARTCHAR 0405
ENCODING 1029
SWIDTH 617 0
DWIDTH 6 0
BBX 5 7 0 0
BITMAP
78
C0
40
70
08
08
F8
ENDCHAR
STARTCHAR 0406
ENCODING 1030
SWIDTH 411 0
DWIDTH 4 0
BBX 3 7 0 0
BITMAP
E0
40
40
40
40
40
E0
ENDCHAR
STARTCHAR 0407
ENCODING 1031
SWIDTH 411 0
DWIDTH 4 0
BBX 3 9 0 0
BITMAP
A0
00
E0
40
40
40
40
40
E0
ENDCHAR
STARTCHAR 0408
ENCODING 1032
SWIDTH 411 0
DWIDTH 4 0
BBX 3 7 0 0
BITMAP
60
20
20
20
20
20
E0
ENDCHAR
STARTCHAR 0409
ENCODING 1033
SWIDTH 1028 0
DWIDTH 10 0
BBX 10 7 0 0
BITMAP
3C00
2400
2400
2780
4440
4440
C780
ENDCHAR
STARTCHAR 040A
ENCODING 1034
SWIDTH 1028 0
DWIDTH 10 0
BBX 9 7 1 0
BITMAP
8800
8800
8800
FF00
8880
8980
8F00
ENDCHAR
STARTCHAR 040B
ENCODING 1035
SWIDTH 720 0
DWIDTH 7 0
BBX 7 7 0 0
BITMAP
F8
20
20
3C
22
22
22
ENDCHAR
STARTCHAR 040C
ENCODING 1036
SWIDTH 617 0
DWIDTH 6 0
BBX 5 10 1 0
BITMAP
20
20
00
98
A0
A0
C0
A0
90
98
ENDCHAR
STARTCHAR 040D
ENCODING 1037
SWIDTH 720 0
DWIDTH 7 0
BBX 5 10 1 0
BITMAP
40
20
00
88
98
A8
A8
C8
C8
88
ENDCHAR
STARTCHAR 040E
ENCODING 1038
SWIDTH 617 0
DWIDTH 6 0
BBX 6 10 0 0
BITMAP
48
30
00
84
48
48
30
30
20
60
ENDCHAR
STARTCHAR 040F
ENCODING 1039
SWIDTH 720 0
DWIDTH 7 0
BBX 5 9 1 -2
BITMAP
88
88
88
88
88
88
F8
20
20
ENDCHAR
STARTCHAR 0410
ENCODING 1040
SWIDTH 617 0
DWIDTH 6 0
BBX 6 7 0 0
BITMAP
30
30
48
48
78
84
84
ENDCHAR
STARTCHAR 0411
ENCODING 1041
SWIDTH 617 0
DWIDTH 6 0
BBX 5 7 1 0
BITMAP
F0
80
80
F0
88
88
F0
ENDCHAR
STARTCHAR 0412
ENCODING 1042
SWIDTH 617 0
DWIDTH 6 0
BBX 5 7 1 0
BITMAP
F0
90
90
F0
88
98
F0
ENDCHAR
STARTCHAR 0413
ENCODING 1043
SWIDTH 514 0
DWIDTH 5 0
BBX 4 7 1 0
BITMAP
F0
80
80
80
80
80
80
ENDCHAR
STARTCHAR 0414
ENCODING 1044
SWIDTH 720 0
DWIDTH 7 0
BBX 7 9 0 -2
BITMAP
3C
24
24
44
44
44
FE
82
82
ENDCHAR
STARTCHAR 0415
ENCODING 1045
SWIDTH 617 0
DWIDTH 6 0
BBX 4 7 1 0
BITMAP
F0
80
80
F0
80
80
F0
ENDCHAR
STARTCHAR 0416
ENCODING 1046
SWIDTH 925 0
DWIDTH 9 0
BBX 9 7 0 0
BITMAP
C980
2A00
2A00
1C00
2A00
4900
8980
ENDCHAR
STARTCHAR 0417
ENCODING 1047
SWIDTH 514 0
DWIDTH 5 0
BBX 5 7 0 0
BITMAP
F0
08
08
70
08
08
F0
ENDCHAR
STARTCHAR 0418
ENCODING 1048
SWIDTH 720 0
DWIDTH 7 0
BBX 5 7 1 0
BITMAP
88
98
A8
A8
C8
C8
88
ENDCHAR
STARTCHAR 0419
ENCODING 1049
SWIDTH 720 0
DWIDTH 7 0
BBX 5 10 1 0
BITMAP
50
70
00
88
98
A8
A8
C8
C8
88
ENDCHAR
STARTCHAR 041A
ENCODING 1050
SWIDTH 617 0
DWIDTH 6 0
BBX 5 7 1 0
BITMAP
98
A0
A0
C0
A0
90
98
ENDCHAR
STARTCHAR 041B
ENCODING 1051
SWIDTH 720 0
DWIDTH 7 0
BBX 6 7 0 0
BITMAP
3C
24
24
24
44
44
84
ENDCHAR
STARTCHAR 041C
ENCODING 1052
SWIDTH 822 0
DWIDTH 8 0
BBX 6 7 1 0
BITMAP
8C
CC
CC
B4
B4
A4
84
ENDCHAR
STARTCHAR 041D
ENCODING 1053
SWIDTH 720 0
DWIDTH 7 0
BBX 5 7 1 0
BITMAP
88
88
88
F8
88
88
88
ENDCHAR
STARTCHAR 041E
ENCODING 1054
SWIDTH 720 0
DWIDTH 7 0
BBX 7 7 0 0
BITMAP
38
44
82
82
82
44
38
ENDCHAR
STARTCHAR 041F
ENCODING 1055
SWIDTH 720 0
DWIDTH 7 0
BBX 5 7 1 0
BITMAP
F8
88
88
88
88
88
88
ENDCHAR
STARTCHAR 0420
ENCODING 1056
SWIDTH 617 0
DWIDTH 6 0
BBX 4 7 1 0
BITMAP
E0
90
90
90
E0
80
80
ENDCHAR
STARTCHAR 0421
ENCODING 1057
SWIDTH 617 0
DWIDTH 6 0
BBX 6 7 0 0
BITMAP
3C
44
80
80
80
44
38
ENDCHAR
STARTCHAR 0422
ENCODING 1058
SWIDTH 617 0
DWIDTH 6 0
BBX 6 7 0 0
BITMAP
FC
20
20
20
20
20
20
ENDCHAR
STARTCHAR 0423
ENCODING 1059
SWIDTH 617 0
DWIDTH 6 0
BBX 6 7 0 0
BITMAP
84
48
48
30
30
20
60
ENDCHAR
STARTCHAR 0424
ENCODING 1060
SWIDTH 720 0
DWIDTH 7 0
BBX 7 7 0 0
BITMAP
10
7C
52
92
52
7C
10
ENDCHAR
STARTCHAR 0425
ENCODING 1061
SWIDTH 617 0
DWIDTH 6 0
BBX 5 7 0 0
BITMAP
C8
48
30
30
30
48
88
ENDCHAR
STARTCHAR 0426
ENCODING 1062
SWIDTH 720 0
DWIDTH 7 0
BBX 6 9 1 -2
BITMAP
88
88
88
88
88
88
FC
04
04
ENDCHAR
STARTCHAR 0427
ENCODING 1063
SWIDTH 617 0
DWIDTH 6 0
BBX 6 7 0 0
BITMAP
84
84
C4
7C
04
04
04
ENDCHAR
STARTCHAR 0428
ENCODING 1064
SWIDTH 925 0
DWIDTH 9 0
BBX 8 7 1 0
BITMAP
91
91
91
91
91
91
FF
ENDCHAR
STARTCHAR 0429
ENCODING 1065
SWIDTH 1028 0
DWIDTH 10 0
BBX 8 9 1 -2
BITMAP
91
91
91
91
91
91
FF
01
01
ENDCHAR
STARTCHAR 042A
ENCODING 1066
SWIDTH 720 0
DWIDTH 7 0
BBX 7 7 0 0
BITMAP
E0
20
20
3C
22
22
3C
ENDCHAR
STARTCHAR 042B
ENCODING 1067
SWIDTH 822 0
DWIDTH 8 0
BBX 6 7 1 0
BITMAP
84
84
84
F4
94
94
F4
ENDCHAR
STARTCHAR 042C
ENCODING 1068
SWIDTH 617 0
DWIDTH 6 0
BBX 5 7 1 0
BITMAP
80
80
80
F0
98
98
F0
ENDCHAR
STARTCHAR 042D
ENCODING 1069
SWIDTH 617 0
DWIDTH 6 0
BBX 6 7 0 0
BITMAP
F0
08
04
7C
04
08
F0
ENDCHAR
STARTCHAR 042E
ENCODING 1070
SWIDTH 1028 0
DWIDTH 10 0
BBX 8 7 1 0
BITMAP
9E
B3
A1
E1
A1
B3
9E
ENDCHAR
STARTCHAR 042F
ENCODING 1071
SWIDTH 617 0
DWIDTH 6 0
BBX 5 7 0 0
BITMAP
78
48
48
38
28
48
C8
ENDCHAR
STARTCHAR 0430
ENCODING 1072
SWIDTH 514 0
DWIDTH 5 0
BBX 5 5 0 0
BITMAP
70
08
78
88
78
ENDCHAR
STARTCHAR 0431
ENCODING 1073
SWIDTH 617 0
DWIDTH 6 0
BBX 5 8 0 0
BITMAP
38
40
40
F0
88
88
48
70
ENDCHAR
STARTCHAR 0432
ENCODING 1074
SWIDTH 514 0
DWIDTH 5 0
BBX 4 5 1 0
BITMAP
E0
90
E0
90
F0
ENDCHAR
STARTCHAR 0433
ENCODING 1075
SWIDTH 411 0
DWIDTH 4 0
BBX 3 5 1 0
BITMAP
E0
80
80
80
80
ENDCHAR
STARTCHAR 0434
ENCODING 1076
SWIDTH 617 0
DWIDTH 6 0
BBX 5 6 0 -1
BITMAP
78
48
48
48
F8
88
ENDCHAR
STARTCHAR 0435
ENCODING 1077
SWIDTH 514 0
DWIDTH 5 0
BBX 5 5 0 0
BITMAP
70
88
F8
80
78
ENDCHAR
STARTCHAR 0436
ENCODING 1078
SWIDTH 720 0
DWIDTH 7 0
BBX 7 5 0 0
BITMAP
D6
54
38
54
D2
ENDCHAR
STARTCHAR 0437
ENCODING 1079
SWIDTH 514 0
DWIDTH 5 0
BBX 4 5 0 0
BITMAP
F0
10
60
10
F0
ENDCHAR
STARTCHAR 0438
ENCODING 1080
SWIDTH 617 0
DWIDTH 6 0
BBX 4 5 1 0
BITMAP
90
B0
D0
D0
90
ENDCHAR
STARTCHAR 0439
ENCODING 1081
SWIDTH 617 0
DWIDTH 6 0
BBX 4 8 1 0
BITMAP
90
60
00
90
B0
D0
D0
90
ENDCHAR
STARTCHAR 043A
ENCODING 1082
SWIDTH 514 0
DWIDTH 5 0
BBX 4 5 1 0
BITMAP
B0
A0
C0
A0
B0
ENDCHAR
STARTCHAR 043B
ENCODING 1083
SWIDTH 617 0
DWIDTH 6 0
BBX 5 5 0 0
BITMAP
78
48
48
48
88
ENDCHAR
STARTCHAR 043C
ENCODING 1084
SWIDTH 617 0
DWIDTH 6 0
BBX 5 5 1 0
BITMAP
98
D8
E8
A8
88
ENDCHAR
STARTCHAR 043D
ENCODING 1085
SWIDTH 617 0
DWIDTH 6 0
BBX 4 5 1 0
BITMAP
90
90
F0
90
90
ENDCHAR
STARTCHAR 043E
ENCODING 1086
SWIDTH 514 0
DWIDTH 5 0
BBX 5 5 0 0
BITMAP
70
88
88
C8
70
ENDCHAR
STARTCHAR 043F
ENCODING 1087
SWIDTH 617 0
DWIDTH 6 0
BBX 4 5 1 0
BITMAP
F0
90
90
90
90
ENDCHAR
STARTCHAR 0440
ENCODING 1088
SWIDTH 617 0
DWIDTH 6 0
BBX 4 7 1 -2
BITMAP
F0
90
90
90
E0
80
80
ENDCHAR
STARTCHAR 0441
ENCODING 1089
SWIDTH 514 0
DWIDTH 5 0
BBX 4 5 0 0
BITMAP
70
C0
80
C0
70
ENDCHAR
STARTCHAR 0442
ENCODING 1090
SWIDTH 514 0
DWIDTH 5 0
BBX 5 5 0 0
BITMAP
F8
20
20
20
20
ENDCHAR
STARTCHAR 0443
ENCODING 1091
SWIDTH 514 0
DWIDTH 5 0
BBX 5 7 0 -2
BITMAP
88
50
50
50
20
20
40
ENDCHAR
STARTCHAR 0444
ENCODING 1092
SWIDTH 822 0
DWIDTH 8 0
BBX 7 10 0 -2
BITMAP
10
10
10
7E
92
92
D2
7C
10
10
ENDCHAR
STARTCHAR 0445
ENCODING 1093
SWIDTH 514 0
DWIDTH 5 0
BBX 5 5 0 0
BITMAP
D8
50
20
50
98
ENDCHAR
STARTCHAR 0446
ENCODING 1094
SWIDTH 617 0
DWIDTH 6 0
BBX 4 6 1 -1
BITMAP
90
90
90
90
F0
10
ENDCHAR
STARTCHAR 0447
ENCODING 1095
SWIDTH 514 0
DWIDTH 5 0
BBX 5 5 0 0
BITMAP
88
88
78
08
08
ENDCHAR
STARTCHAR 0448
ENCODING 1096
SWIDTH 822 0
DWIDTH 8 0
BBX 6 5 1 0
BITMAP
A4
A4
A4
A4
FC
ENDCHAR
STARTCHAR 0449
ENCODING 1097
SWIDTH 822 0
DWIDTH 8 0
BBX 7 6 1 -1
BITMAP
A4
A4
A4
A4
FE
02
ENDCHAR
STARTCHAR 044A
ENCODING 1098
SWIDTH 617 0
DWIDTH 6 0
BBX 5 5 0 0
BITMAP
C0
40
78
48
78
ENDCHAR
STARTCHAR 044B
ENCODING 1099
SWIDTH 720 0
DWIDTH 7 0
BBX 5 5 1 0
BITMAP
88
88
E8
98
E8
ENDCHAR
STARTCHAR 044C
ENCODING 1100
SWIDTH 514 0
DWIDTH 5 0
BBX 4 5 1 0
BITMAP
80
80
E0
90
E0
ENDCHAR
STARTCHAR 044D
ENCODING 1101
SWIDTH 514 0
DWIDTH 5 0
BBX 4 5 0 0
BITMAP
F0
10
70
10
E0
ENDCHAR
STARTCHAR 044E
ENCODING 1102
SWIDTH 822 0
DWIDTH 8 0
BBX 6 5 1 0
BITMAP
BC
A4
C4
A4
BC
ENDCHAR
STARTCHAR 044F
ENCODING 1103
SWIDTH 514 0
DWIDTH 5 0
BBX 4 5 1 0
BITMAP
F0
90
F0
90
90
ENDCHAR
STARTCHAR 0450
ENCODING 1104
SWIDTH 514 0
DWIDTH 5 0
BBX 5 8 0 0
BITMAP
20
20
00
70
88
F8
80
78
ENDCHAR
STARTCHAR 0451
ENCODING 1105
SWIDTH 514 0
DWIDTH 5 0
BBX 5 7 0 0
BITMAP
50
00
70
88
F8
80
78
ENDCHAR
STARTCHAR 0452
ENCODING 1106
SWIDTH 617 0
DWIDTH 6 0
BBX 5 10 0 -2
BITMAP
40
F0
40
70
48
48
48
48
08
30
ENDCHAR
STARTCHAR 0453
ENCODING 1107
SWIDTH 411 0
DWIDTH 4 0
BBX 3 8 1 0
BITMAP
40
40
00
E0
80
80
80
80
ENDCHAR
STARTCHAR 0454
ENCODING 1108
SWIDTH 514 0
DWIDTH 5 0
BBX 4 5 0 0
BITMAP
70
80
F0
80
70
ENDCHAR
STARTCHAR 0455
ENCODING 1109
SWIDTH 411 0
DWIDTH 4 0
BBX 4 5 0 0
BITMAP
70
80
70
10
F0
ENDCHAR
STARTCHAR 0456
ENCODING 1110
SWIDTH 205 0
DWIDTH 2 0
BBX 1 7 1 0
BITMAP
80
00
80
80
80
80
80
ENDCHAR
STARTCHAR 0457
ENCODING 1111
SWIDTH 205 0
DWIDTH 2 0
BBX 2 7 0 0
BITMAP
C0
00
40
40
40
40
40
ENDCHAR
STARTCHAR 0458
ENCODING 1112
SWIDTH 308 0
DWIDTH 3 0
BBX 2 9 0 -2
BITMAP
40
00
C0
40
40
40
40
40
C0
ENDCHAR
STARTCHAR 0459
ENCODING 1113
SWIDTH 822 0
DWIDTH 8 0
BBX 8 5 0 0
BITMAP
78
48
4F
49
8F
ENDCHAR
STARTCHAR 045A
ENCODING 1114
SWIDTH 822 0
DWIDTH 8 0
BBX 7 5 1 0
BITMAP
90
90
FE
92
9E
ENDCHAR
STARTCHAR 045B
ENCODING 1115
SWIDTH 617 0
DWIDTH 6 0
BBX 5 8 0 0
BITMAP
40
F0
40
78
48
48
48
48
ENDCHAR
STARTCHAR 045C
ENCODING 1116
SWIDTH 514 0
DWIDTH 5 0
BBX 4 8 1 0
BITMAP
20
40
00
B0
A0
C0
A0
B0
ENDCHAR
STARTCHAR 045D
ENCODING 1117
SWIDTH 617 0
DWIDTH 6 0
BBX 4 8 1 0
BITMAP
40
40
00
90
B0
D0
D0
90
ENDCHAR
STARTCHAR 045E
ENCODING 1118
SWIDTH 514 0
DWIDTH 5 0
BBX 5 10 0 -2
BITMAP
50
70
00
88
50
50
50
20
20
40
ENDCHAR
STARTCHAR 045F
ENCODING 1119
SWIDTH 617 0
DWIDTH 6 0
BBX 4 6 1 -1
BITMAP
90
90
90
90
F0
40
ENDCHAR
STARTCHAR 0460
ENCODING 1120
SWIDTH 1131 0
DWIDTH 11 0
BBX 11 7 0 0
BITMAP
3BC0
4060
8020
8F20
8420
4460
3BC0
ENDCHAR
STARTCHAR 0461
ENCODING 1121
SWIDTH 720 0
DWIDTH 7 0
BBX 7 5 0 0
BITMAP
92
92
54
5C
2C
ENDCHAR
STARTCHAR 0462
ENCODING 1122
SWIDTH 720 0
DWIDTH 7 0
BBX 7 7 0 0
BITMAP
20
F0
20
3C
26
26
3C
ENDCHAR
STARTCHAR 0463
ENCODING 1123
SWIDTH 617 0
DWIDTH 6 0
BBX 6 8 0 0
BITMAP
40
40
40
F0
40
78
44
78
ENDCHAR
STARTCHAR 0464
ENCODING 1124
SWIDTH 925 0
DWIDTH 9 0
BBX 7 7 1 0
BITMAP
9E
B0
A0
FC
A0
B0
9E
ENDCHAR
STARTCHAR 0465
ENCODING 1125
SWIDTH 720 0
DWIDTH 7 0
BBX 6 5 1 0
BITMAP
BC
A0
F8
A0
BC
ENDCHAR
STARTCHAR 0466
ENCODING 1126
SWIDTH 617 0
DWIDTH 6 0
BBX 6 7 0 0
BITMAP
30
30
50
78
68
A4
A4
ENDCHAR
STARTCHAR 0467
ENCODING 1127
SWIDTH 514 0
DWIDTH 5 0
BBX 5 5 0 0
BITMAP
20
50
50
70
A8
ENDCHAR
STARTCHAR 0468
ENCODING 1128
SWIDTH 822 0
DWIDTH 8 0
BBX 7 7 1 0
BITMAP
98
98
94
FC
AC
AA
CA
ENDCHAR
STARTCHAR 0469
ENCODING 1129
SWIDTH 720 0
DWIDTH 7 0
BBX 6 5 1 0
BITMAP
90
A8
E8
B8
D4
ENDCHAR
STARTCHAR 046A
ENCODING 1130
SWIDTH 822 0
DWIDTH 8 0
BBX 8 7 0 0
BITMAP
7E
24
18
3C
56
D2
91
ENDCHAR
STARTCHAR 046B
ENCODING 1131
SWIDTH 617 0
DWIDTH 6 0
BBX 6 5 0 0
BITMAP
78
30
78
5C
94
ENDCHAR
STARTCHAR 046C
ENCODING 1132
SWIDTH 1028 0
DWIDTH 10 0
BBX 9 7 1 0
BITMAP
9F00
9200
8A00
FE00
B500
A480
E480
ENDCHAR
STARTCHAR 046D
ENCODING 1133
SWIDTH 822 0
DWIDTH 8 0
BBX 7 5 1 0
BITMAP
BC
94
FC
AA
CA
ENDCHAR
STARTCHAR 046E
ENCODING 1134
SWIDTH 514 0
DWIDTH 5 0
BBX 5 12 0 -2
BITMAP
50
20
00
F0
08
08
70
08
08
70
80
78
ENDCHAR
STARTCHAR 046F
ENCODING 1135
SWIDTH 514 0
DWIDTH 5 0
BBX 4 10 0 -2
BITMAP
50
60
00
F0
10
60
10
70
80
F0
ENDCHAR
STARTCHAR 0470
ENCODING 1136
SWIDTH 822 0
DWIDTH 8 0
BBX 6 7 1 0
BITMAP
A4
A4
A4
A4
78
20
20
ENDCHAR
STARTCHAR 0471
ENCODING 1137
SWIDTH 720 0
DWIDTH 7 0
BBX 6 7 1 -2
BITMAP
A4
A4
A4
A8
78
20
20
ENDCHAR
STARTCHAR 0472
ENCODING 1138
SWIDTH 720 0
DWIDTH 7 0
BBX 7 7 0 0
BITMAP
38
44
F2
9E
C2
44
38
ENDCHAR
STARTCHAR 0473
ENCODING 1139
SWIDTH 514 0
DWIDTH 5 0
BBX 5 5 0 0
BITMAP
70
E8
98
C8
70
ENDCHAR
STARTCHAR 0474
ENCODING 1140
SWIDTH 720 0
DWIDTH 7 0
BBX 7 7 0 0
BITMAP
86
CE
48
48
30
30
30
ENDCHAR
STARTCHAR 0475
ENCODING 1141
SWIDTH 617 0
DWIDTH 6 0
BBX 6 5 0 0
BITMAP
8C
50
50
50
20
ENDCHAR
STARTCHAR 0476
ENCODING 1142
SWIDTH 720 0
DWIDTH 7 0
BBX 7 10 0 0
BITMAP
50
50
00
86
CE
48
48
30
30
30
ENDCHAR
STARTCHAR 0477
ENCODING 1143
SWIDTH 617 0
DWIDTH 6 0
BBX 6 8 0 0
BITMAP
A0
50
00
8C
50
50
50
20
ENDCHAR
STARTCHAR 0478
ENCODING 1144
SWIDTH 1234 0
DWIDTH 12 0
BBX 11 9 0 -2
BITMAP
3800
4C00
8520
8520
84A0
4CC0
3840
0080
0080
ENDCHAR
STARTCHAR 0479
ENCODING 1145
SWIDTH 1028 0
DWIDTH 10 0
BBX 10 7 0 -2
BITMAP
7440
8A80
8A80
8A80
7100
0100
0200
ENDCHAR
STARTCHAR 047A
ENCODING 1146
SWIDTH 925 0
DWIDTH 9 0
BBX 8 9 0 -1
BITMAP
08
3E
4B
81
81
81
4B
3E
08
ENDCHAR
STARTCHAR 047B
ENCODING 1147
SWIDTH 720 0
DWIDTH 7 0
BBX 6 7 0 -1
BITMAP
10
78
D4
84
D4
78
10
ENDCHAR
STARTCHAR 047C
ENCODING 1148
SWIDTH 925 0
DWIDTH 9 0
BBX 9 10 0 0
BITMAP
1800
1600
0800
7700
4080
8080
8080
8080
4980
7700
ENDCHAR
STARTCHAR 047D
ENCODING 1149
SWIDTH 822 0
DWIDTH 8 0
BBX 7 9 0 0
BITMAP
30
2C
10
10
6E
82
82
92
7E
ENDCHAR
STARTCHAR 047E
ENCODING 1150
SWIDTH 1131 0
DWIDTH 11 0
BBX 11 10 0 0
BITMAP
0F00
0100
0000
3BC0
4060
8020
8F20
8420
4460
3BC0
ENDCHAR
STARTCHAR 047F
ENCODING 1151
SWIDTH 720 0
DWIDTH 7 0
BBX 7 8 0 0
BITMAP
7C
10
00
92
92
54
5C
2C
ENDCHAR
STARTCHAR 0480
ENCODING 1152
SWIDTH 617 0
DWIDTH 6 0
BBX 6 9 0 -2
BITMAP
3C
40
80
80
80
40
30
10
10
ENDCHAR
STARTCHAR 0481
ENCODING 1153
SWIDTH 514 0
DWIDTH 5 0
BBX 4 7 0 -2
BITMAP
70
C0
80
C0
60
20
20
ENDCHAR
STARTCHAR 0482
ENCODING 1154
SWIDTH 514 0
DWIDTH 5 0
BBX 5 7 0 0
BITMAP
10
70
38
20
E0
70
40
ENDCHAR
STARTCHAR 0483
ENCODING 1155
SWIDTH 0 0
DWIDTH 0 0
BBX 3 3 1 6
BITMAP
20
E0
80
ENDCHAR
STARTCHAR 0484
ENCODING 1156
SWIDTH 0 0
DWIDTH 0 0
BBX 4 2 1 7
BITMAP
60
D0
ENDCHAR
STARTCHAR 0485
ENCODING 1157
SWIDTH 0 0
DWIDTH 0 0
BBX 1 2 2 6
BITMAP
80
80
ENDCHAR
STARTCHAR 0486
ENCODING 1158
SWIDTH 0 0
DWIDTH 0 0
BBX 1 2 2 6
BITMAP
80
80
ENDCHAR
STARTCHAR 0487
ENCODING 1159
SWIDTH 617 0
DWIDTH 6 0
BBX 4 2 1 6
BITMAP
C0
B0
ENDCHAR
STARTCHAR 0488
ENCODING 1160
SWIDTH 0 0
DWIDTH 0 0
BBX 10 9 -5 -2
BITMAP
0C00
6180
0000
0000
C0C0
0000
0000
6180
0C00
ENDCHAR
STARTCHAR 0489
ENCODING 1161
SWIDTH 0 0
DWIDTH 0 0
BBX 8 10 -4 -2
BITMAP
08
91
42
00
81
00
42
81
10
10
ENDCHAR
STARTCHAR 048A
ENCODING 1162
SWIDTH 720 0
DWIDTH 7 0
BBX 6 12 1 -2
BITMAP
50
70
00
88
98
A8
A8
C8
C8
8C
04
08
ENDCHAR
STARTCHAR 048B
ENCODING 1163
SWIDTH 617 0
DWIDTH 6 0
BBX 5 10 1 -2
BITMAP
90
60
00
90
B0
D0
D0
98
10
10
ENDCHAR
STARTCHAR 048C
ENCODING 1164
SWIDTH 617 0
DWIDTH 6 0
BBX 6 7 0 0
BITMAP
40
C0
40
78
4C
4C
78
ENDCHAR
STARTCHAR 048D
ENCODING 1165
SWIDTH 514 0
DWIDTH 5 0
BBX 5 8 0 0
BITMAP
40
C0
40
40
40
70
48
70
ENDCHAR
STARTCHAR 048E
ENCODING 1166
SWIDTH 617 0
DWIDTH 6 0
BBX 4 7 1 0
BITMAP
E0
90
B0
B0
F0
80
80
ENDCHAR
STARTCHAR 048F
ENCODING 1167
SWIDTH 617 0
DWIDTH 6 0
BBX 4 7 1 -2
BITMAP
F0
90
90
B0
F0
80
80
ENDCHAR
STARTCHAR 0490
ENCODING 1168
SWIDTH 514 0
DWIDTH 5 0
BBX 4 9 1 0
BITMAP
10
10
F0
80
80
80
80
80
80
ENDCHAR
STARTCHAR 0491
ENCODING 1169
SWIDTH 411 0
DWIDTH 4 0
BBX 3 7 1 0
BITMAP
20
20
E0
80
80
80
80
ENDCHAR
STARTCHAR 0492
ENCODING 1170
SWIDTH 514 0
DWIDTH 5 0
BBX 5 7 0 0
BITMAP
78
40
40
F0
40
40
40
ENDCHAR
STARTCHAR 0493
ENCODING 1171
SWIDTH 411 0
DWIDTH 4 0
BBX 4 5 0 0
BITMAP
70
40
F0
40
40
ENDCHAR
STARTCHAR 0494
ENCODING 1172
SWIDTH 617 0
DWIDTH 6 0
BBX 4 9 1 -2
BITMAP
F0
80
80
E0
90
90
90
10
E0
ENDCHAR
STARTCHAR 0495
ENCODING 1173
SWIDTH 514 0
DWIDTH 5 0
BBX 4 7 1 -2
BITMAP
E0
80
E0
90
90
10
E0
ENDCHAR
STARTCHAR 0496
ENCODING 1174
SWIDTH 925 0
DWIDTH 9 0
BBX 9 9 0 -2
BITMAP
C980
4A00
2A00
1C00
2A00
4900
8980
0080
0080
ENDCHAR
STARTCHAR 0497
ENCODING 1175
SWIDTH 822 0
DWIDTH 8 0
BBX 7 6 0 -1
BITMAP
D2
54
38
54
D2
02
ENDCHAR
STARTCHAR 0498
ENCODING 1176
SWIDTH 514 0
DWIDTH 5 0
BBX 5 9 0 -2
BITMAP
F0
08
08
70
08
08
F0
10
60
ENDCHAR
STARTCHAR 0499
ENCODING 1177
SWIDTH 514 0
DWIDTH 5 0
BBX 4 7 0 -2
BITMAP
F0
10
60
10
F0
20
60
ENDCHAR
STARTCHAR 049A
ENCODING 1178
SWIDTH 617 0
DWIDTH 6 0
BBX 5 9 1 -2
BITMAP
98
A0
A0
C0
A0
90
98
08
08
ENDCHAR
STARTCHAR 049B
ENCODING 1179
SWIDTH 514 0
DWIDTH 5 0
BBX 4 6 1 -1
BITMAP
B0
A0
C0
A0
B0
10
ENDCHAR
STARTCHAR 049C
ENCODING 1180
SWIDTH 617 0
DWIDTH 6 0
BBX 5 7 1 0
BITMAP
98
E0
E0
C0
E0
D0
98
ENDCHAR
STARTCHAR 049D
ENCODING 1181
SWIDTH 514 0
DWIDTH 5 0
BBX 4 5 1 0
BITMAP
F0
E0
C0
E0
B0
ENDCHAR
STARTCHAR 049E
ENCODING 1182
SWIDTH 617 0
DWIDTH 6 0
BBX 6 7 0 0
BITMAP
4C
D0
50
60
50
48
4C
ENDCHAR
STARTCHAR 049F
ENCODING 1183
SWIDTH 514 0
DWIDTH 5 0
BBX 5 8 0 0
BITMAP
40
E0
40
58
50
60
50
58
ENDCHAR
STARTCHAR 04A0
ENCODING 1184
SWIDTH 720 0
DWIDTH 7 0
BBX 7 7 0 0
BITMAP
E6
24
28
38
28
24
22
ENDCHAR
STARTCHAR 04A1
ENCODING 1185
SWIDTH 617 0
DWIDTH 6 0
BBX 5 5 0 0
BITMAP
C8
50
70
58
48
ENDCHAR
STARTCHAR 04A2
ENCODING 1186
SWIDTH 720 0
DWIDTH 7 0
BBX 6 9 1 -2
BITMAP
88
88
88
F8
88
88
8C
04
04
ENDCHAR
STARTCHAR 04A3
ENCODING 1187
SWIDTH 617 0
DWIDTH 6 0
BBX 5 6 1 -1
BITMAP
90
90
F0
90
98
08
ENDCHAR
STARTCHAR 04A4
ENCODING 1188
SWIDTH 822 0
DWIDTH 8 0
BBX 7 7 1 0
BITMAP
8E
88
88
F8
88
88
88
ENDCHAR
STARTCHAR 04A5
ENCODING 1189
SWIDTH 617 0
DWIDTH 6 0
BBX 5 5 1 0
BITMAP
98
90
F0
90
90
ENDCHAR
STARTCHAR 04A6
ENCODING 1190
SWIDTH 1028 0
DWIDTH 10 0
BBX 9 9 1 -2
BITMAP
F800
8800
8800
8F00
8900
8880
8880
0100
0700
ENDCHAR
STARTCHAR 04A7
ENCODING 1191
SWIDTH 822 0
DWIDTH 8 0
BBX 7 7 1 -2
BITMAP
F0
90
9C
92
92
02
1C
ENDCHAR
STARTCHAR 04A8
ENCODING 1192
SWIDTH 720 0
DWIDTH 7 0
BBX 7 7 0 0
BITMAP
30
4E
92
92
92
4C
32
ENDCHAR
STARTCHAR 04A9
ENCODING 1193
SWIDTH 617 0
DWIDTH 6 0
BBX 6 5 0 0
BITMAP
60
D8
A8
D8
7C
ENDCHAR
STARTCHAR 04AA
ENCODING 1194
SWIDTH 617 0
DWIDTH 6 0
BBX 6 9 0 -2
BITMAP
3C
40
80
80
80
40
3C
08
18
ENDCHAR
STARTCHAR 04AB
ENCODING 1195
SWIDTH 514 0
DWIDTH 5 0
BBX 4 7 0 -2
BITMAP
70
C0
80
C0
70
10
30
ENDCHAR
STARTCHAR 04AC
ENCODING 1196
SWIDTH 617 0
DWIDTH 6 0
BBX 6 9 0 -2
BITMAP
FC
20
20
20
20
20
30
10
10
ENDCHAR
STARTCHAR 04AD
ENCODING 1197
SWIDTH 514 0
DWIDTH 5 0
BBX 5 6 0 -1
BITMAP
F8
20
20
20
20
20
ENDCHAR
STARTCHAR 04AE
ENCODING 1198
SWIDTH 617 0
DWIDTH 6 0
BBX 6 7 0 0
BITMAP
8C
48
70
30
20
20
20
ENDCHAR
STARTCHAR 04AF
ENCODING 1199
SWIDTH 514 0
DWIDTH 5 0
BBX 5 7 0 -2
BITMAP
88
50
50
50
20
20
20
ENDCHAR
STARTCHAR 04B0
ENCODING 1200
SWIDTH 617 0
DWIDTH 6 0
BBX 6 7 0 0
BITMAP
8C
48
70
30
F8
20
20
ENDCHAR
STARTCHAR 04B1
ENCODING 1201
SWIDTH 514 0
DWIDTH 5 0
BBX 5 7 0 -2
BITMAP
88
50
50
20
F8
20
20
ENDCHAR
STARTCHAR 04B2
ENCODING 1202
SWIDTH 617 0
DWIDTH 6 0
BBX 6 9 0 -2
BITMAP
C8
48
30
30
30
48
8C
04
04
ENDCHAR
STARTCHAR 04B3
ENCODING 1203
SWIDTH 514 0
DWIDTH 5 0
BBX 5 6 0 -1
BITMAP
D8
50
20
50
98
08
ENDCHAR
STARTCHAR 04B4
ENCODING 1204
SWIDTH 822 0
DWIDTH 8 0
BBX 8 9 0 -2
BITMAP
FA
22
22
22
22
22
3F
01
01
ENDCHAR
STARTCHAR 04B5
ENCODING 1205
SWIDTH 720 0
DWIDTH 7 0
BBX 6 6 0 -1
BITMAP
F4
44
44
44
7C
04
ENDCHAR
STARTCHAR 04B6
ENCODING 1206
SWIDTH 617 0
DWIDTH 6 0
BBX 6 9 0 -2
BITMAP
84
84
C4
7C
04
04
04
04
04
ENDCHAR
STARTCHAR 04B7
ENCODING 1207
SWIDTH 514 0
DWIDTH 5 0
BBX 5 6 0 -1
BITMAP
88
88
78
08
08
08
ENDCHAR
STARTCHAR 04B8
ENCODING 1208
SWIDTH 617 0
DWIDTH 6 0
BBX 6 7 0 0
BITMAP
84
A4
E4
7C
24
24
04
ENDCHAR
STARTCHAR 04B9
ENCODING 1209
SWIDTH 514 0
DWIDTH 5 0
BBX 5 5 0 0
BITMAP
88
A8
78
28
08
ENDCHAR
STARTCHAR 04BA
ENCODING 1210
SWIDTH 617 0
DWIDTH 6 0
BBX 5 7 1 0
BITMAP
80
80
80
F0
88
88
88
ENDCHAR
STARTCHAR 04BB
ENCODING 1211
SWIDTH 617 0
DWIDTH 6 0
BBX 4 8 1 0
BITMAP
80
80
80
F0
90
90
90
90
ENDCHAR
STARTCHAR 04BC
ENCODING 1212
SWIDTH 822 0
DWIDTH 8 0
BBX 8 7 0 0
BITMAP
1E
23
A1
FF
20
20
1E
ENDCHAR
STARTCHAR 04BD
ENCODING 1213
SWIDTH 617 0
DWIDTH 6 0
BBX 6 5 0 0
BITMAP
38
C4
FC
40
3C
ENDCHAR
STARTCHAR 04BE
ENCODING 1214
SWIDTH 822 0
DWIDTH 8 0
BBX 8 9 0 -2
BITMAP
1E
23
A1
FF
20
20
1E
04
04
ENDCHAR
STARTCHAR 04BF
ENCODING 1215
SWIDTH 617 0
DWIDTH 6 0
BBX 6 7 0 -2
BITMAP
38
C4
FC
40
3C
10
10
ENDCHAR
STARTCHAR 04C0
ENCODING 1216
SWIDTH 411 0
DWIDTH 4 0
BBX 3 7 0 0
BITMAP
E0
40
40
40
40
40
E0
ENDCHAR
STARTCHAR 04C1
ENCODING 1217
SWIDTH 925 0
DWIDTH 9 0
BBX 9 10 0 0
BITMAP
1400
1C00
0000
C980
2A00
2A00
1C00
2A00
4900
8980
ENDCHAR
STARTCHAR 04C2
ENCODING 1218
SWIDTH 720 0
DWIDTH 7 0
BBX 7 8 0 0
BITMAP
28
18
00
D6
54
38
54
D2
ENDCHAR
STARTCHAR 04C3
ENCODING 1219
SWIDTH 617 0
DWIDTH 6 0
BBX 5 9 1 -2
BITMAP
98
A0
A0
F0
98
88
88
18
70
ENDCHAR
STARTCHAR 04C4
ENCODING 1220
SWIDTH 514 0
DWIDTH 5 0
BBX 4 7 1 -2
BITMAP
B0
A0
E0
90
90
10
E0
ENDCHAR
STARTCHAR 04C5
ENCODING 1221
SWIDTH 720 0
DWIDTH 7 0
BBX 7 9 0 -2
BITMAP
3C
24
24
24
44
44
C6
02
04
ENDCHAR
STARTCHAR 04C6
ENCODING 1222
SWIDTH 617 0
DWIDTH 6 0
BBX 6 7 0 -2
BITMAP
78
48
48
48
8C
08
08
ENDCHAR
STARTCHAR 04C7
ENCODING 1223
SWIDTH 720 0
DWIDTH 7 0
BBX 5 9 1 -2
BITMAP
88
88
88
F8
88
88
88
08
30
ENDCHAR
STARTCHAR 04C8
ENCODING 1224
SWIDTH 617 0
DWIDTH 6 0
BBX 4 7 1 -2
BITMAP
90
90
F0
90
90
10
70
ENDCHAR
STARTCHAR 04C9
ENCODING 1225
SWIDTH 720 0
DWIDTH 7 0
BBX 6 9 1 -2
BITMAP
88
88
88
F8
88
88
8C
04
08
ENDCHAR
STARTCHAR 04CA
ENCODING 1226
SWIDTH 617 0
DWIDTH 6 0
BBX 5 7 1 -2
BITMAP
90
90
F0
90
98
10
10
ENDCHAR
STARTCHAR 04CB
ENCODING 1227
SWIDTH 617 0
DWIDTH 6 0
BBX 6 9 0 -2
BITMAP
84
84
C4
7C
04
04
0C
08
08
ENDCHAR
STARTCHAR 04CC
ENCODING 1228
SWIDTH 514 0
DWIDTH 5 0
BBX 5 6 0 -1
BITMAP
88
88
78
08
18
10
ENDCHAR
STARTCHAR 04CD
ENCODING 1229
SWIDTH 822 0
DWIDTH 8 0
BBX 7 9 1 -2
BITMAP
8C
CC
CC
B4
B4
A4
86
02
04
ENDCHAR
STARTCHAR 04CE
ENCODING 1230
SWIDTH 617 0
DWIDTH 6 0
BBX 5 7 1 -2
BITMAP
98
D8
E8
A8
88
08
08
ENDCHAR
STARTCHAR 04CF
ENCODING 1231
SWIDTH 205 0
DWIDTH 2 0
BBX 1 8 1 0
BITMAP
80
80
80
80
80
80
80
80
ENDCHAR
STARTCHAR 04D0
ENCODING 1232
SWIDTH 617 0
DWIDTH 6 0
BBX 6 10 0 0
BITMAP
48
30
00
30
30
48
48
78
84
84
ENDCHAR
STARTCHAR 04D1
ENCODING 1233
SWIDTH 514 0
DWIDTH 5 0
BBX 5 8 0 0
BITMAP
50
70
00
70
08
78
88
78
ENDCHAR
STARTCHAR 04D2
ENCODING 1234
SWIDTH 617 0
DWIDTH 6 0
BBX 6 9 0 0
BITMAP
50
00
30
30
48
48
78
84
84
ENDCHAR
STARTCHAR 04D3
ENCODING 1235
SWIDTH 514 0
DWIDTH 5 0
BBX 5 7 0 0
BITMAP
50
00
70
08
78
88
78
ENDCHAR
STARTCHAR 04D4
ENCODING 1236
SWIDTH 925 0
DWIDTH 9 0
BBX 9 7 0 0
BITMAP
1F80
2800
2800
4F80
7800
C800
8F80
ENDCHAR
STARTCHAR 04D5
ENCODING 1237
SWIDTH 925 0
DWIDTH 9 0
BBX 9 5 0 0
BITMAP
7700
0900
7F80
8800
7700
ENDCHAR
STARTCHAR 04D6
ENCODING 1238
SWIDTH 617 0
DWIDTH 6 0
BBX 4 10 1 0
BITMAP
90
60
00
F0
80
80
F0
80
80
F0
ENDCHAR
STARTCHAR 04D7
ENCODING 1239
SWIDTH 514 0
DWIDTH 5 0
BBX 5 8 0 0
BITMAP
50
30
00
70
88
F8
80
78
ENDCHAR
STARTCHAR 04D8
ENCODING 1240
SWIDTH 720 0
DWIDTH 7 0
BBX 7 7 0 0
BITMAP
38
44
02
FE
82
44
38
ENDCHAR
STARTCHAR 04D9
ENCODING 1241
SWIDTH 514 0
DWIDTH 5 0
BBX 5 5 0 0
BITMAP
F0
08
F8
88
70
ENDCHAR
STARTCHAR 04DA
ENCODING 1242
SWIDTH 720 0
DWIDTH 7 0
BBX 7 9 0 0
BITMAP
28
00
38
44
02
FE
82
44
38
ENDCHAR
STARTCHAR 04DB
ENCODING 1243
SWIDTH 514 0
DWIDTH 5 0
BBX 5 7 0 0
BITMAP
50
00
F0
08
F8
88
70
ENDCHAR
STARTCHAR 04DC
ENCODING 1244
SWIDTH 925 0
DWIDTH 9 0
BBX 9 9 0 0
BITMAP
1400
0000
C980
2A00
2A00
1C00
2A00
4900
8980
ENDCHAR
STARTCHAR 04DD
ENCODING 1245
SWIDTH 720 0
DWIDTH 7 0
BBX 7 7 0 0
BITMAP
28
00
D6
54
38
54
D2
ENDCHAR
STARTCHAR 04DE
ENCODING 1246
SWIDTH 514 0
DWIDTH 5 0
BBX 5 9 0 0
BITMAP
50
00
F0
08
08
70
08
08
F0
ENDCHAR
STARTCHAR 04DF
ENCODING 1247
SWIDTH 514 0
DWIDTH 5 0
BBX 4 7 0 0
BITMAP
50
00
F0
10
60
10
F0
ENDCHAR
STARTCHAR 04E0
ENCODING 1248
SWIDTH 514 0
DWIDTH 5 0
BBX 5 7 0 0
BITMAP
F8
18
10
30
08
88
70
ENDCHAR
STARTCHAR 04E1
ENCODING 1249
SWIDTH 411 0
DWIDTH 4 0
BBX 4 7 0 -2
BITMAP
F0
10
20
30
10
10
F0
ENDCHAR
STARTCHAR 04E2
ENCODING 1250
SWIDTH 720 0
DWIDTH 7 0
BBX 5 9 1 0
BITMAP
70
00
88
98
A8
A8
C8
C8
88
ENDCHAR
STARTCHAR 04E3
ENCODING 1251
SWIDTH 617 0
DWIDTH 6 0
BBX 4 7 1 0
BITMAP
F0
00
90
B0
D0
D0
90
ENDCHAR
STARTCHAR 04E4
ENCODING 1252
SWIDTH 720 0
DWIDTH 7 0
BBX 5 9 1 0
BITMAP
50
00
88
98
A8
A8
C8
C8
88
ENDCHAR
STARTCHAR 04E5
ENCODING 1253
SWIDTH 617 0
DWIDTH 6 0
BBX 4 7 1 0
BITMAP
A0
00
90
B0
D0
D0
90
ENDCHAR
STARTCHAR 04E6
ENCODING 1254
SWIDTH 720 0
DWIDTH 7 0
BBX 7 9 0 0
BITMAP
28
00
38
44
82
82
82
44
38
ENDCHAR
STARTCHAR 04E7
ENCODING 1255
SWIDTH 514 0
DWIDTH 5 0
BBX 5 7 0 0
BITMAP
50
00
70
88
88
C8
70
ENDCHAR
STARTCHAR 04E8
ENCODING 1256
SWIDTH 720 0
DWIDTH 7 0
BBX 7 7 0 0
BITMAP
38
44
82
FE
82
44
38
ENDCHAR
STARTCHAR 04E9
ENCODING 1257
SWIDTH 514 0
DWIDTH 5 0
BBX 5 5 0 0
BITMAP
70
88
F8
88
70
ENDCHAR
STARTCHAR 04EA
ENCODING 1258
SWIDTH 720 0
DWIDTH 7 0
BBX 7 9 0 0
BITMAP
28
00
38
44
82
FE
82
44
38
ENDCHAR
STARTCHAR 04EB
ENCODING 1259
SWIDTH 514 0
DWIDTH 5 0
BBX 5 7 0 0
BITMAP
50
00
70
88
F8
88
70
ENDCHAR
STARTCHAR 04EC
ENCODING 1260
SWIDTH 617 0
DWIDTH 6 0
BBX 6 9 0 0
BITMAP
50
00
F0
08
04
7C
04
08
F0
ENDCHAR
STARTCHAR 04ED
ENCODING 1261
SWIDTH 514 0
DWIDTH 5 0
BBX 4 7 0 0
BITMAP
50
00
F0
10
70
10
E0
ENDCHAR
STARTCHAR 04EE
ENCODING 1262
SWIDTH 617 0
DWIDTH 6 0
BBX 6 9 0 0
BITMAP
78
00
84
48
48
30
30
20
60
ENDCHAR
STARTCHAR 04EF
ENCODING 1263
SWIDTH 514 0
DWIDTH 5 0
BBX 5 9 0 -2
BITMAP
70
00
88
50
50
50
20
20
40
ENDCHAR
STARTCHAR 04F0
ENCODING 1264
SWIDTH 617 0
DWIDTH 6 0
BBX 6 9 0 0
BITMAP
50
00
84
48
48
30
30
20
60
ENDCHAR
STARTCHAR 04F1
ENCODING 1265
SWIDTH 514 0
DWIDTH 5 0
BBX 5 9 0 -2
BITMAP
50
00
88
50
50
50
20
20
40
ENDCHAR
STARTCHAR 04F2
ENCODING 1266
SWIDTH 617 0
DWIDTH 6 0
BBX 6 10 0 0
BITMAP
28
28
00
84
48
48
30
30
20
60
ENDCHAR
STARTCHAR 04F3
ENCODING 1267
SWIDTH 514 0
DWIDTH 5 0
BBX 5 10 0 -2
BITMAP
28
50
00
88
50
50
50
20
20
40
ENDCHAR
STARTCHAR 04F4
ENCODING 1268
SWIDTH 617 0
DWIDTH 6 0
BBX 6 9 0 0
BITMAP
28
00
84
84
C4
7C
04
04
04
ENDCHAR
STARTCHAR 04F5
ENCODING 1269
SWIDTH 514 0
DWIDTH 5 0
BBX 5 7 0 0
BITMAP
50
00
88
88
78
08
08
ENDCHAR
STARTCHAR 04F6
ENCODING 1270
SWIDTH 514 0
DWIDTH 5 0
BBX 4 9 1 -2
BITMAP
F0
80
80
80
80
80
C0
40
40
ENDCHAR
STARTCHAR 04F7
ENCODING 1271
SWIDTH 411 0
DWIDTH 4 0
BBX 3 7 1 -2
BITMAP
E0
80
80
80
C0
40
40
ENDCHAR
STARTCHAR 04F8
ENCODING 1272
SWIDTH 822 0
DWIDTH 8 0
BBX 6 9 1 0
BITMAP
48
00
84
84
84
F4
94
94
F4
ENDCHAR
STARTCHAR 04F9
ENCODING 1273
SWIDTH 720 0
DWIDTH 7 0
BBX 5 7 1 0
BITMAP
50
00
88
88
E8
98
E8
ENDCHAR
STARTCHAR 04FA
ENCODING 1274
SWIDTH 514 0
DWIDTH 5 0
BBX 5 9 0 -2
BITMAP
78
40
40
F0
40
40
60
20
C0
ENDCHAR
STARTCHAR 04FB
ENCODING 1275
SWIDTH 411 0
DWIDTH 4 0
BBX 4 7 0 -2
BITMAP
70
40
F0
40
60
40
C0
ENDCHAR
STARTCHAR 04FC
ENCODING 1276
SWIDTH 617 0
DWIDTH 6 0
BBX 6 9 0 -2
BITMAP
C8
48
30
30
30
48
8C
04
18
ENDCHAR
STARTCHAR 04FD
ENCODING 1277
SWIDTH 514 0
DWIDTH 5 0
BBX 5 7 0 -2
BITMAP
D8
50
20
50
98
08
38
ENDCHAR
STARTCHAR 04FE
ENCODING 1278
SWIDTH 617 0
DWIDTH 6 0
BBX 6 7 0 0
BITMAP
C8
48
30
FC
30
48
88
ENDCHAR
STARTCHAR 04FF
ENCODING 1279
SWIDTH 514 0
DWIDTH 5 0
BBX 5 5 0 0
BITMAP
D0
50
F8
50
90
ENDCHAR
STARTCHAR 0500
ENCODING 1280
SWIDTH 617 0
DWIDTH 6 0
BBX 5 7 0 0
BITMAP
08
08
08
78
88
88
78
ENDCHAR
STARTCHAR 0501
ENCODING 1281
SWIDTH 617 0
DWIDTH 6 0
BBX 5 8 0 0
BITMAP
08
08
08
78
C8
88
88
78
ENDCHAR
STARTCHAR 0502
ENCODING 1282
SWIDTH 925 0
DWIDTH 9 0
BBX 8 7 0 0
BITMAP
08
08
08
79
89
89
77
ENDCHAR
STARTCHAR 0503
ENCODING 1283
SWIDTH 925 0
DWIDTH 9 0
BBX 8 8 0 0
BITMAP
08
08
08
78
C8
89
89
77
ENDCHAR
STARTCHAR 0504
ENCODING 1284
SWIDTH 925 0
DWIDTH 9 0
BBX 8 7 0 0
BITMAP
F0
08
08
71
09
09
07
ENDCHAR
STARTCHAR 0505
ENCODING 1285
SWIDTH 822 0
DWIDTH 8 0
BBX 8 5 0 0
BITMAP
F0
10
61
11
0E
ENDCHAR
STARTCHAR 0506
ENCODING 1286
SWIDTH 617 0
DWIDTH 6 0
BBX 6 9 0 -2
BITMAP
F0
08
08
70
08
08
0C
04
04
ENDCHAR
STARTCHAR 0507
ENCODING 1287
SWIDTH 514 0
DWIDTH 5 0
BBX 5 7 0 -2
BITMAP
F0
10
60
10
18
08
08
ENDCHAR
STARTCHAR 0508
ENCODING 1288
SWIDTH 1028 0
DWIDTH 10 0
BBX 9 7 0 0
BITMAP
3C00
2400
2400
2480
4480
4480
C380
ENDCHAR
STARTCHAR 0509
ENCODING 1289
SWIDTH 925 0
DWIDTH 9 0
BBX 8 5 0 0
BITMAP
78
48
49
49
87
ENDCHAR
STARTCHAR 050A
ENCODING 1290
SWIDTH 1028 0
DWIDTH 10 0
BBX 8 7 1 0
BITMAP
88
88
88
F9
89
89
87
ENDCHAR
STARTCHAR 050B
ENCODING 1291
SWIDTH 925 0
DWIDTH 9 0
BBX 7 5 1 0
BITMAP
90
90
F2
92
8E
ENDCHAR
STARTCHAR 050C
ENCODING 1292
SWIDTH 720 0
DWIDTH 7 0
BBX 7 7 0 0
BITMAP
3C
40
80
8E
82
44
38
ENDCHAR
STARTCHAR 050D
ENCODING 1293
SWIDTH 514 0
DWIDTH 5 0
BBX 5 5 0 0
BITMAP
78
C0
98
C8
70
ENDCHAR
STARTCHAR 050E
ENCODING 1294
SWIDTH 720 0
DWIDTH 7 0
BBX 7 7 0 0
BITMAP
FC
20
20
22
22
32
1C
ENDCHAR
STARTCHAR 050F
ENCODING 1295
SWIDTH 720 0
DWIDTH 7 0
BBX 6 5 0 0
BITMAP
F8
20
24
24
1C
ENDCHAR
STARTCHAR 0510
ENCODING 1296
SWIDTH 514 0
DWIDTH 5 0
BBX 5 7 0 0
BITMAP
78
C0
40
70
80
80
78
ENDCHAR
STARTCHAR 0511
ENCODING 1297
SWIDTH 514 0
DWIDTH 5 0
BBX 4 5 0 0
BITMAP
70
80
60
80
70
ENDCHAR
STARTCHAR 0512
ENCODING 1298
SWIDTH 720 0
DWIDTH 7 0
BBX 6 9 0 -2
BITMAP
3C
24
24
24
44
44
84
04
1C
ENDCHAR
STARTCHAR 0513
ENCODING 1299
SWIDTH 617 0
DWIDTH 6 0
BBX 5 7 0 -2
BITMAP
78
48
48
48
88
08
30
ENDCHAR
STARTCHAR 0514
ENCODING 1300
SWIDTH 925 0
DWIDTH 9 0
BBX 9 7 0 0
BITMAP
3880
2500
2500
2200
4500
4500
C880
ENDCHAR
STARTCHAR 0515
ENCODING 1301
SWIDTH 822 0
DWIDTH 8 0
BBX 7 5 0 0
BITMAP
72
4A
44
4A
92
ENDCHAR
STARTCHAR 0516
ENCODING 1302
SWIDTH 822 0
DWIDTH 8 0
BBX 6 7 1 0
BITMAP
E4
98
90
F8
88
84
84
ENDCHAR
STARTCHAR 0517
ENCODING 1303
SWIDTH 720 0
DWIDTH 7 0
BBX 6 7 1 -2
BITMAP
F4
98
90
98
E4
80
80
ENDCHAR
STARTCHAR 0518
ENCODING 1304
SWIDTH 925 0
DWIDTH 9 0
BBX 9 7 0 0
BITMAP
7F80
4800
4800
3F80
2800
4800
CF80
ENDCHAR
STARTCHAR 0519
ENCODING 1305
SWIDTH 925 0
DWIDTH 9 0
BBX 7 5 1 0
BITMAP
FE
92
FE
90
8E
ENDCHAR
STARTCHAR 051A
ENCODING 1306
SWIDTH 720 0
DWIDTH 7 0
BBX 7 9 0 -2
BITMAP
38
44
82
82
82
44
38
08
0E
ENDCHAR
STARTCHAR 051B
ENCODING 1307
SWIDTH 617 0
DWIDTH 6 0
BBX 5 7 0 -2
BITMAP
78
C8
88
88
78
08
08
ENDCHAR
STARTCHAR 051C
ENCODING 1308
SWIDTH 925 0
DWIDTH 9 0
BBX 9 7 0 0
BITMAP
8880
4880
5500
5500
5500
2500
2200
ENDCHAR
STARTCHAR 051D
ENCODING 1309
SWIDTH 720 0
DWIDTH 7 0
BBX 7 5 0 0
BITMAP
92
5A
6A
6C
64
ENDCHAR
STARTCHAR 051E
ENCODING 1310
SWIDTH 617 0
DWIDTH 6 0
BBX 5 7 1 0
BITMAP
90
A0
D0
C0
A0
90
98
ENDCHAR
STARTCHAR 051F
ENCODING 1311
SWIDTH 514 0
DWIDTH 5 0
BBX 4 5 1 0
BITMAP
E0
E0
C0
A0
90
ENDCHAR
STARTCHAR 0520
ENCODING 1312
SWIDTH 1131 0
DWIDTH 11 0
BBX 10 9 0 -2
BITMAP
3C00
2400
2400
27C0
4440
4440
C440
0040
01C0
ENDCHAR
STARTCHAR 0521
ENCODING 1313
SWIDTH 925 0
DWIDTH 9 0
BBX 8 7 0 -2
BITMAP
78
48
4F
49
89
01
03
ENDCHAR
STARTCHAR 0522
ENCODING 1314
SWIDTH 1131 0
DWIDTH 11 0
BBX 9 9 1 -2
BITMAP
8800
8800
8800
FF80
8880
8880
8880
0080
0380
ENDCHAR
STARTCHAR 0523
ENCODING 1315
SWIDTH 925 0
DWIDTH 9 0
BBX 7 7 1 -2
BITMAP
90
90
FE
92
92
02
06
ENDCHAR
STARTCHAR 0524
ENCODING 1316
SWIDTH 720 0
DWIDTH 7 0
BBX 6 9 1 -2
BITMAP
F8
88
88
88
88
88
8C
04
04
ENDCHAR
STARTCHAR 0525
ENCODING 1317
SWIDTH 617 0
DWIDTH 6 0
BBX 5 6 1 -1
BITMAP
F0
90
90
90
98
08
ENDCHAR
STARTCHAR 0526
ENCODING 1318
SWIDTH 617 0
DWIDTH 6 0
BBX 6 9 1 -2
BITMAP
80
80
80
F0
88
88
8C
04
04
ENDCHAR
STARTCHAR 0527
ENCODING 1319
SWIDTH 617 0
DWIDTH 6 0
BBX 5 9 1 -1
BITMAP
80
80
80
F0
90
90
90
98
08
ENDCHAR
STARTCHAR 0528
ENCODING 1320
SWIDTH 720 0
DWIDTH 7 0
BBX 7 9 -1 -2
BITMAP
22
22
22
3E
22
22
22
20
C0
ENDCHAR
STARTCHAR 0529
ENCODING 1321
SWIDTH 617 0
DWIDTH 6 0
BBX 6 7 -1 -2
BITMAP
24
24
3C
24
24
20
C0
ENDCHAR
STARTCHAR 052A
ENCODING 1322
SWIDTH 1337 0
DWIDTH 13 0
BBX 13 9 0 -2
BITMAP
3C98
24A0
24A0
47C0
44A0
44B0
FE98
8200
8200
ENDCHAR
STARTCHAR 052B
ENCODING 1323
SWIDTH 1131 0
DWIDTH 11 0
BBX 10 6 0 -1
BITMAP
7A40
4A80
4F80
4A80
FA40
8800
ENDCHAR
STARTCHAR 052C
ENCODING 1324
SWIDTH 720 0
DWIDTH 7 0
BBX 7 9 0 -2
BITMAP
44
4C
54
3C
44
44
FE
82
82
ENDCHAR
STARTCHAR 052D
ENCODING 1325
SWIDTH 617 0
DWIDTH 6 0
BBX 6 6 0 -1
BITMAP
48
78
78
48
FC
84
ENDCHAR
STARTCHAR 052E
ENCODING 1326
SWIDTH 720 0
DWIDTH 7 0
BBX 7 9 0 -2
BITMAP
3C
24
24
24
44
44
C6
02
02
ENDCHAR
STARTCHAR 052F
ENCODING 1327
SWIDTH 617 0
DWIDTH 6 0
BBX 5 6 0 -1
BITMAP
78
48
48
48
88
08
ENDCHAR
STARTCHAR 0531
ENCODING 1329
SWIDTH 720 0
DWIDTH 7 0
BBX 6 7 1 0
BITMAP
88
88
88
88
88
8C
74
ENDCHAR
STARTCHAR 0532
ENCODING 1330
SWIDTH 617 0
DWIDTH 6 0
BBX 5 7 1 0
BITMAP
70
88
88
80
F8
80
80
ENDCHAR
STARTCHAR 0533
ENCODING 1331
SWIDTH 617 0
DWIDTH 6 0
BBX 6 7 0 0
BITMAP
78
88
88
88
7C
08
08
ENDCHAR
STARTCHAR 0534
ENCODING 1332
SWIDTH 720 0
DWIDTH 7 0
BBX 7 7 0 0
BITMAP
78
C8
88
08
0E
08
08
ENDCHAR
STARTCHAR 0535
ENCODING 1333
SWIDTH 617 0
DWIDTH 6 0
BBX 5 7 1 0
BITMAP
80
80
F8
80
88
88
70
ENDCHAR
STARTCHAR 0536
ENCODING 1334
SWIDTH 617 0
DWIDTH 6 0
BBX 6 7 0 0
BITMAP
78
4C
84
04
08
90
FC
ENDCHAR
STARTCHAR 0537
ENCODING 1335
SWIDTH 617 0
DWIDTH 6 0
BBX 5 7 1 0
BITMAP
80
80
F8
80
80
80
F8
ENDCHAR
STARTCHAR 0538
ENCODING 1336
SWIDTH 617 0
DWIDTH 6 0
BBX 5 7 1 0
BITMAP
70
88
88
80
80
80
F8
ENDCHAR
STARTCHAR 0539
ENCODING 1337
SWIDTH 822 0
DWIDTH 8 0
BBX 7 7 1 0
BITMAP
78
8C
84
BE
A4
A4
B8
ENDCHAR
STARTCHAR 053A
ENCODING 1338
SWIDTH 617 0
DWIDTH 6 0
BBX 6 7 0 0
BITMAP
08
08
7C
C8
88
88
78
ENDCHAR
STARTCHAR 053B
ENCODING 1339
SWIDTH 617 0
DWIDTH 6 0
BBX 5 7 1 0
BITMAP
80
80
F0
88
88
80
80
ENDCHAR
STARTCHAR 053C
ENCODING 1340
SWIDTH 514 0
DWIDTH 5 0
BBX 4 7 1 0
BITMAP
80
80
80
80
80
80
F0
ENDCHAR
STARTCHAR 053D
ENCODING 1341
SWIDTH 925 0
DWIDTH 9 0
BBX 7 7 1 0
BITMAP
80
80
F2
92
92
92
9C
ENDCHAR
STARTCHAR 053E
ENCODING 1342
SWIDTH 617 0
DWIDTH 6 0
BBX 6 7 0 0
BITMAP
9C
A0
F8
4C
44
44
78
ENDCHAR
STARTCHAR 053F
ENCODING 1343
SWIDTH 720 0
DWIDTH 7 0
BBX 5 7 1 0
BITMAP
80
80
88
88
F8
08
08
ENDCHAR
STARTCHAR 0540
ENCODING 1344
SWIDTH 514 0
DWIDTH 5 0
BBX 5 7 0 0
BITMAP
F0
18
10
E0
18
08
08
ENDCHAR
STARTCHAR 0541
ENCODING 1345
SWIDTH 617 0
DWIDTH 6 0
BBX 6 7 0 0
BITMAP
78
4C
84
04
78
88
74
ENDCHAR
STARTCHAR 0542
ENCODING 1346
SWIDTH 720 0
DWIDTH 7 0
BBX 7 7 0 0
BITMAP
78
88
88
08
08
08
0E
ENDCHAR
STARTCHAR 0543
ENCODING 1347
SWIDTH 720 0
DWIDTH 7 0
BBX 6 7 0 0
BITMAP
1C
20
F0
4C
44
44
7C
ENDCHAR
STARTCHAR 0544
ENCODING 1348
SWIDTH 720 0
DWIDTH 7 0
BBX 6 7 1 0
BITMAP
8C
88
88
88
88
88
F0
ENDCHAR
STARTCHAR 0545
ENCODING 1349
SWIDTH 720 0
DWIDTH 7 0
BBX 6 7 0 0
BITMAP
78
44
04
78
04
84
78
ENDCHAR
STARTCHAR 0546
ENCODING 1350
SWIDTH 720 0
DWIDTH 7 0
BBX 7 7 0 0
BITMAP
C0
40
40
40
42
64
3C
ENDCHAR
STARTCHAR 0547
ENCODING 1351
SWIDTH 617 0
DWIDTH 6 0
BBX 6 7 0 0
BITMAP
40
30
4C
80
84
C8
78
ENDCHAR
STARTCHAR 0548
ENCODING 1352
SWIDTH 720 0
DWIDTH 7 0
BBX 5 7 1 0
BITMAP
70
88
88
88
88
88
88
ENDCHAR
STARTCHAR 0549
ENCODING 1353
SWIDTH 617 0
DWIDTH 6 0
BBX 6 7 0 0
BITMAP
78
48
84
08
88
70
08
ENDCHAR
STARTCHAR 054A
ENCODING 1354
SWIDTH 720 0
DWIDTH 7 0
BBX 6 7 0 0
BITMAP
78
D4
94
14
14
04
04
ENDCHAR
STARTCHAR 054B
ENCODING 1355
SWIDTH 617 0
DWIDTH 6 0
BBX 6 7 0 0
BITMAP
78
4C
84
E4
18
90
FC
ENDCHAR
STARTCHAR 054C
ENCODING 1356
SWIDTH 720 0
DWIDTH 7 0
BBX 6 7 1 0
BITMAP
F0
88
88
88
8C
88
88
ENDCHAR
STARTCHAR 054D
ENCODING 1357
SWIDTH 720 0
DWIDTH 7 0
BBX 5 7 1 0
BITMAP
88
88
88
88
88
88
F0
ENDCHAR
STARTCHAR 054E
ENCODING 1358
SWIDTH 720 0
DWIDTH 7 0
BBX 7 7 0 0
BITMAP
08
08
88
88
78
08
0E
ENDCHAR
STARTCHAR 054F
ENCODING 1359
SWIDTH 617 0
DWIDTH 6 0
BBX 6 7 0 0
BITMAP
78
44
40
78
04
84
78
ENDCHAR
STARTCHAR 0550
ENCODING 1360
SWIDTH 617 0
DWIDTH 6 0
BBX 5 7 1 0
BITMAP
70
88
88
80
80
80
80
ENDCHAR
STARTCHAR 0551
ENCODING 1361
SWIDTH 720 0
DWIDTH 7 0
BBX 6 7 0 0
BITMAP
78
44
44
F8
04
84
78
ENDCHAR
STARTCHAR 0552
ENCODING 1362
SWIDTH 514 0
DWIDTH 5 0
BBX 4 7 1 0
BITMAP
80
80
F0
80
80
80
80
ENDCHAR
STARTCHAR 0553
ENCODING 1363
SWIDTH 720 0
DWIDTH 7 0
BBX 7 7 0 0
BITMAP
10
7C
52
92
52
7C
10
ENDCHAR
STARTCHAR 0554
ENCODING 1364
SWIDTH 617 0
DWIDTH 6 0
BBX 6 7 0 0
BITMAP
78
44
44
78
40
FC
40
ENDCHAR
STARTCHAR 0555
ENCODING 1365
SWIDTH 720 0
DWIDTH 7 0
BBX 7 7 0 0
BITMAP
38
44
82
82
82
44
38
ENDCHAR
STARTCHAR 0556
ENCODING 1366
SWIDTH 720 0
DWIDTH 7 0
BBX 6 7 0 0
BITMAP
30
50
50
38
14
94
78
ENDCHAR
STARTCHAR 0559
ENCODING 1369
SWIDTH 205 0
DWIDTH 2 0
BBX 1 2 0 6
BITMAP
80
80
ENDCHAR
STARTCHAR 055A
ENCODING 1370
SWIDTH 205 0
DWIDTH 2 0
BBX 1 2 0 6
BITMAP
80
80
ENDCHAR
STARTCHAR 055B
ENCODING 1371
SWIDTH 308 0
DWIDTH 3 0
BBX 1 2 1 6
BITMAP
80
80
ENDCHAR
STARTCHAR 055C
ENCODING 1372
SWIDTH 411 0
DWIDTH 4 0
BBX 3 5 0 3
BITMAP
20
20
60
80
40
ENDCHAR
STARTCHAR 055D
ENCODING 1373
SWIDTH 308 0
DWIDTH 3 0
BBX 1 2 1 6
BITMAP
80
80
ENDCHAR
STARTCHAR 055E
ENCODING 1374
SWIDTH 411 0
DWIDTH 4 0
BBX 3 3 0 5
BITMAP
60
A0
A0
ENDCHAR
STARTCHAR 055F
ENCODING 1375
SWIDTH 514 0
DWIDTH 5 0
BBX 4 2 0 7
BITMAP
40
F0
ENDCHAR
STARTCHAR 0561
ENCODING 1377
SWIDTH 822 0
DWIDTH 8 0
BBX 7 5 1 0
BITMAP
92
92
92
B2
DE
ENDCHAR
STARTCHAR 0562
ENCODING 1378
SWIDTH 617 0
DWIDTH 6 0
BBX 4 7 1 -2
BITMAP
F0
90
90
80
F0
80
80
ENDCHAR
STARTCHAR 0563
ENCODING 1379
SWIDTH 617 0
DWIDTH 6 0
BBX 6 7 0 -2
BITMAP
78
C8
88
88
7C
08
08
ENDCHAR
STARTCHAR 0564
ENCODING 1380
SWIDTH 617 0
DWIDTH 6 0
BBX 5 7 1 -2
BITMAP
F0
90
90
90
98
10
10
ENDCHAR
STARTCHAR 0565
ENCODING 1381
SWIDTH 617 0
DWIDTH 6 0
BBX 4 8 1 0
BITMAP
80
80
80
F0
80
90
90
F0
ENDCHAR
STARTCHAR 0566
ENCODING 1382
SWIDTH 617 0
DWIDTH 6 0
BBX 6 7 0 -2
BITMAP
78
C8
88
88
78
08
0C
ENDCHAR
STARTCHAR 0567
ENCODING 1383
SWIDTH 514 0
DWIDTH 5 0
BBX 4 8 1 0
BITMAP
80
80
80
F0
80
80
80
E0
ENDCHAR
STARTCHAR 0568
ENCODING 1384
SWIDTH 617 0
DWIDTH 6 0
BBX 4 7 1 -2
BITMAP
F0
90
90
90
90
80
F0
ENDCHAR
STARTCHAR 0569
ENCODING 1385
SWIDTH 720 0
DWIDTH 7 0
BBX 6 7 1 -2
BITMAP
F0
88
BC
C8
B0
80
80
ENDCHAR
STARTCHAR 056A
ENCODING 1386
SWIDTH 617 0
DWIDTH 6 0
BBX 6 8 0 0
BITMAP
08
08
08
7C
C8
88
88
70
ENDCHAR
STARTCHAR 056B
ENCODING 1387
SWIDTH 617 0
DWIDTH 6 0
BBX 4 10 1 -2
BITMAP
80
80
80
F0
90
90
90
90
80
80
ENDCHAR
STARTCHAR 056C
ENCODING 1388
SWIDTH 308 0
DWIDTH 3 0
BBX 2 7 1 -2
BITMAP
80
80
80
80
80
80
C0
ENDCHAR
STARTCHAR 056D
ENCODING 1389
SWIDTH 925 0
DWIDTH 9 0
BBX 7 10 1 -2
BITMAP
80
80
80
F2
92
92
92
9E
80
80
ENDCHAR
STARTCHAR 056E
ENCODING 1390
SWIDTH 617 0
DWIDTH 6 0
BBX 5 8 0 0
BITMAP
20
60
20
78
C8
88
C8
78
ENDCHAR
STARTCHAR 056F
ENCODING 1391
SWIDTH 617 0
DWIDTH 6 0
BBX 4 10 1 -2
BITMAP
80
80
80
90
90
90
90
F0
10
10
ENDCHAR
STARTCHAR 0570
ENCODING 1392
SWIDTH 617 0
DWIDTH 6 0
BBX 4 8 1 0
BITMAP
80
80
80
F0
90
90
90
90
ENDCHAR
STARTCHAR 0571
ENCODING 1393
SWIDTH 514 0
DWIDTH 5 0
BBX 5 8 0 0
BITMAP
20
40
30
60
50
88
98
68
ENDCHAR
STARTCHAR 0572
ENCODING 1394
SWIDTH 617 0
DWIDTH 6 0
BBX 5 7 1 -2
BITMAP
F0
90
90
90
90
10
18
ENDCHAR
STARTCHAR 0573
ENCODING 1395
SWIDTH 514 0
DWIDTH 5 0
BBX 5 8 0 0
BITMAP
18
20
20
C0
70
90
88
78
ENDCHAR
STARTCHAR 0574
ENCODING 1396
SWIDTH 617 0
DWIDTH 6 0
BBX 5 8 1 0
BITMAP
18
10
10
90
90
90
90
F0
ENDCHAR
STARTCHAR 0575
ENCODING 1397
SWIDTH 308 0
DWIDTH 3 0
BBX 3 7 0 -2
BITMAP
20
20
20
20
20
20
C0
ENDCHAR
STARTCHAR 0576
ENCODING 1398
SWIDTH 617 0
DWIDTH 6 0
BBX 5 8 0 0
BITMAP
C0
40
40
48
48
48
48
38
ENDCHAR
STARTCHAR 0577
ENCODING 1399
SWIDTH 411 0
DWIDTH 4 0
BBX 4 7 0 -2
BITMAP
70
90
10
20
40
80
F0
ENDCHAR
STARTCHAR 0578
ENCODING 1400
SWIDTH 617 0
DWIDTH 6 0
BBX 4 5 1 0
BITMAP
F0
90
90
90
90
ENDCHAR
STARTCHAR 0579
ENCODING 1401
SWIDTH 411 0
DWIDTH 4 0
BBX 4 7 0 -2
BITMAP
20
40
20
20
40
80
F0
ENDCHAR
STARTCHAR 057A
ENCODING 1402
SWIDTH 822 0
DWIDTH 8 0
BBX 7 7 1 -2
BITMAP
92
92
92
92
FE
02
02
ENDCHAR
STARTCHAR 057B
ENCODING 1403
SWIDTH 514 0
DWIDTH 5 0
BBX 5 7 0 -2
BITMAP
70
90
50
20
40
80
F8
ENDCHAR
STARTCHAR 057C
ENCODING 1404
SWIDTH 617 0
DWIDTH 6 0
BBX 4 5 1 0
BITMAP
F0
90
90
A0
B0
ENDCHAR
STARTCHAR 057D
ENCODING 1405
SWIDTH 617 0
DWIDTH 6 0
BBX 4 5 1 0
BITMAP
90
90
90
90
F0
ENDCHAR
STARTCHAR 057E
ENCODING 1406
SWIDTH 617 0
DWIDTH 6 0
BBX 5 10 1 -2
BITMAP
10
10
10
90
90
90
90
F0
10
18
ENDCHAR
STARTCHAR 057F
ENCODING 1407
SWIDTH 822 0
DWIDTH 8 0
BBX 7 5 1 0
BITMAP
9C
92
92
92
F2
ENDCHAR
STARTCHAR 0580
ENCODING 1408
SWIDTH 617 0
DWIDTH 6 0
BBX 4 7 1 -2
BITMAP
F0
90
90
90
90
80
80
ENDCHAR
STARTCHAR 0581
ENCODING 1409
SWIDTH 617 0
DWIDTH 6 0
BBX 5 7 0 -2
BITMAP
78
C8
88
88
78
08
70
ENDCHAR
STARTCHAR 0582
ENCODING 1410
SWIDTH 411 0
DWIDTH 4 0
BBX 3 5 1 0
BITMAP
80
80
80
80
E0
ENDCHAR
STARTCHAR 0583
ENCODING 1411
SWIDTH 822 0
DWIDTH 8 0
BBX 7 10 1 -2
BITMAP
10
10
10
9C
92
92
92
F2
10
10
ENDCHAR
STARTCHAR 0584
ENCODING 1412
SWIDTH 617 0
DWIDTH 6 0
BBX 6 7 0 -2
BITMAP
78
44
44
78
40
FC
40
ENDCHAR
STARTCHAR 0585
ENCODING 1413
SWIDTH 514 0
DWIDTH 5 0
BBX 5 5 0 0
BITMAP
70
88
88
C8
70
ENDCHAR
STARTCHAR 0586
ENCODING 1414
SWIDTH 720 0
DWIDTH 7 0
BBX 7 10 0 -2
BITMAP
30
50
50
38
14
92
D4
78
10
10
ENDCHAR
STARTCHAR 0587
ENCODING 1415
SWIDTH 617 0
DWIDTH 6 0
BBX 5 8 1 0
BITMAP
80
80
80
90
90
90
90
F8
ENDCHAR
STARTCHAR 0589
ENCODING 1417
SWIDTH 411 0
DWIDTH 4 0
BBX 1 5 1 0
BITMAP
80
80
00
80
80
ENDCHAR
STARTCHAR 058A
ENCODING 1418
SWIDTH 411 0
DWIDTH 4 0
BBX 3 2 0 2
BITMAP
80
60
ENDCHAR
STARTCHAR 058D
ENCODING 1421
SWIDTH 1028 0
DWIDTH 10 0
BBX 8 9 1 -2
BITMAP
1C
EB
DF
D7
FD
BB
EB
56
38
ENDCHAR
STARTCHAR 058E
ENCODING 1422
SWIDTH 1028 0
DWIDTH 10 0
BBX 8 9 1 -2
BITMAP
38
D7
FB
EB
BF
DD
D7
6A
1C
ENDCHAR
STARTCHAR 058F
ENCODING 1423
SWIDTH 617 0
DWIDTH 6 0
BBX 6 7 0 0
BITMAP
78
88
08
1C
08
1C
08
ENDCHAR
STARTCHAR 0591
ENCODING 1425
SWIDTH 0 0
DWIDTH 0 0
BBX 2 3 -1 -3
BITMAP
80
C0
C0
ENDCHAR
STARTCHAR 0592
ENCODING 1426
SWIDTH 0 0
DWIDTH 0 0
BBX 2 3 -1 7
BITMAP
80
00
C0
ENDCHAR
STARTCHAR 0593
ENCODING 1427
SWIDTH 0 0
DWIDTH 0 0
BBX 2 6 -1 6
BITMAP
40
80
40
80
40
80
ENDCHAR
STARTCHAR 0594
ENCODING 1428
SWIDTH 0 0
DWIDTH 0 0
BBX 1 3 0 7
BITMAP
80
00
80
ENDCHAR
STARTCHAR 0595
ENCODING 1429
SWIDTH 0 0
DWIDTH 0 0
BBX 2 3 -1 7
BITMAP
C0
80
C0
ENDCHAR
STARTCHAR 0596
ENCODING 1430
SWIDTH 0 0
DWIDTH 0 0
BBX 2 2 -1 -2
BITMAP
80
C0
ENDCHAR
STARTCHAR 0597
ENCODING 1431
SWIDTH 0 0
DWIDTH 0 0
BBX 2 1 -1 7
BITMAP
C0
ENDCHAR
STARTCHAR 0598
ENCODING 1432
SWIDTH 0 0
DWIDTH 0 0
BBX 4 2 -2 7
BITMAP
50
A0
ENDCHAR
STARTCHAR 0599
ENCODING 1433
SWIDTH 0 0
DWIDTH 0 0
BBX 2 2 -2 7
BITMAP
C0
40
ENDCHAR
STARTCHAR 059A
ENCODING 1434
SWIDTH 0 0
DWIDTH 0 0
BBX 1 2 0 -2
BITMAP
80
80
ENDCHAR
STARTCHAR 059B
ENCODING 1435
SWIDTH 0 0
DWIDTH 0 0
BBX 2 3 -1 -3
BITMAP
C0
40
80
ENDCHAR
STARTCHAR 059C
ENCODING 1436
SWIDTH 0 0
DWIDTH 0 0
BBX 2 2 -1 7
BITMAP
40
80
ENDCHAR
STARTCHAR 059D
ENCODING 1437
SWIDTH 0 0
DWIDTH 0 0
BBX 2 2 0 7
BITMAP
C0
80
ENDCHAR
STARTCHAR 059E
ENCODING 1438
SWIDTH 0 0
DWIDTH 0 0
BBX 2 2 -1 7
BITMAP
C0
C0
ENDCHAR
STARTCHAR 059F
ENCODING 1439
SWIDTH 0 0
DWIDTH 0 0
BBX 6 4 -3 6
BITMAP
CC
B4
CC
30
ENDCHAR
STARTCHAR 05A0
ENCODING 1440
SWIDTH 0 0
DWIDTH 0 0
BBX 3 4 0 6
BITMAP
40
A0
40
80
ENDCHAR
STARTCHAR 05A1
ENCODING 1441
SWIDTH 0 0
DWIDTH 0 0
BBX 2 3 -1 6
BITMAP
C0
C0
80
ENDCHAR
STARTCHAR 05A2
ENCODING 1442
SWIDTH 0 0
DWIDTH 0 0
BBX 2 3 -1 -3
BITMAP
C0
C0
80
ENDCHAR
STARTCHAR 05A3
ENCODING 1443
SWIDTH 0 0
DWIDTH 0 0
BBX 2 2 -1 -2
BITMAP
40
C0
ENDCHAR
STARTCHAR 05A4
ENCODING 1444
SWIDTH 0 0
DWIDTH 0 0
BBX 1 2 -1 -2
BITMAP
80
80
ENDCHAR
STARTCHAR 05A5
ENCODING 1445
SWIDTH 0 0
DWIDTH 0 0
BBX 2 2 -1 -2
BITMAP
40
C0
ENDCHAR
STARTCHAR 05A6
ENCODING 1446
SWIDTH 0 0
DWIDTH 0 0
BBX 2 2 -1 -2
BITMAP
C0
C0
ENDCHAR
STARTCHAR 05A7
ENCODING 1447
SWIDTH 0 0
DWIDTH 0 0
BBX 2 2 -1 -2
BITMAP
C0
C0
ENDCHAR
STARTCHAR 05A8
ENCODING 1448
SWIDTH 0 0
DWIDTH 0 0
BBX 2 2 -1 7
BITMAP
80
40
ENDCHAR
STARTCHAR 05A9
ENCODING 1449
SWIDTH 0 0
DWIDTH 0 0
BBX 3 4 -3 6
BITMAP
40
A0
40
20
ENDCHAR
STARTCHAR 05AA
ENCODING 1450
SWIDTH 0 0
DWIDTH 0 0
BBX 2 3 -1 -3
BITMAP
C0
C0
80
ENDCHAR
STARTCHAR 05AB
ENCODING 1451
SWIDTH 0 0
DWIDTH 0 0
BBX 1 2 0 7
BITMAP
80
80
ENDCHAR
STARTCHAR 05AC
ENCODING 1452
SWIDTH 0 0
DWIDTH 0 0
BBX 2 2 -1 7
BITMAP
40
C0
ENDCHAR
STARTCHAR 05AD
ENCODING 1453
SWIDTH 0 0
DWIDTH 0 0
BBX 2 2 0 -2
BITMAP
80
C0
ENDCHAR
STARTCHAR 05AE
ENCODING 1454
SWIDTH 0 0
DWIDTH 0 0
BBX 3 2 -3 7
BITMAP
E0
E0
ENDCHAR
STARTCHAR 05AF
ENCODING 1455
SWIDTH 0 0
DWIDTH 0 0
BBX 2 3 -1 7
BITMAP
80
C0
40
ENDCHAR
STARTCHAR 05B0
ENCODING 1456
SWIDTH 0 0
DWIDTH 0 0
BBX 1 2 2 -2
BITMAP
80
80
ENDCHAR
STARTCHAR 05B1
ENCODING 1457
SWIDTH 0 0
DWIDTH 0 0
BBX 3 2 1 -2
BITMAP
E0
60
ENDCHAR
STARTCHAR 05B2
ENCODING 1458
SWIDTH 0 0
DWIDTH 0 0
BBX 3 2 1 -2
BITMAP
E0
20
ENDCHAR
STARTCHAR 05B3
ENCODING 1459
SWIDTH 0 0
DWIDTH 0 0
BBX 3 2 1 -2
BITMAP
E0
60
ENDCHAR
STARTCHAR 05B4
ENCODING 1460
SWIDTH 0 0
DWIDTH 0 0
BBX 1 1 2 -2
BITMAP
80
ENDCHAR
STARTCHAR 05B5
ENCODING 1461
SWIDTH 0 0
DWIDTH 0 0
BBX 1 1 2 -2
BITMAP
80
ENDCHAR
STARTCHAR 05B6
ENCODING 1462
SWIDTH 0 0
DWIDTH 0 0
BBX 1 2 2 -2
BITMAP
80
80
ENDCHAR
STARTCHAR 05B7
ENCODING 1463
SWIDTH 0 0
DWIDTH 0 0
BBX 1 1 2 -2
BITMAP
80
ENDCHAR
STARTCHAR 05B8
ENCODING 1464
SWIDTH 0 0
DWIDTH 0 0
BBX 1 2 2 -2
BITMAP
80
80
ENDCHAR
STARTCHAR 05B9
ENCODING 1465
SWIDTH 0 0
DWIDTH 0 0
BBX 1 1 2 7
BITMAP
80
ENDCHAR
STARTCHAR 05BA
ENCODING 1466
SWIDTH 0 0
DWIDTH 0 0
BBX 1 1 1 7
BITMAP
80
ENDCHAR
STARTCHAR 05BB
ENCODING 1467
SWIDTH 0 0
DWIDTH 0 0
BBX 3 2 1 -2
BITMAP
80
60
ENDCHAR
STARTCHAR 05BC
ENCODING 1468
SWIDTH 0 0
DWIDTH 0 0
BBX 1 1 2 3
BITMAP
80
ENDCHAR
STARTCHAR 05BD
ENCODING 1469
SWIDTH 0 0
DWIDTH 0 0
BBX 1 3 0 -3
BITMAP
80
80
80
ENDCHAR
STARTCHAR 05BE
ENCODING 1470
SWIDTH 411 0
DWIDTH 4 0
BBX 2 1 1 5
BITMAP
C0
ENDCHAR
STARTCHAR 05BF
ENCODING 1471
SWIDTH 0 0
DWIDTH 0 0
BBX 1 1 2 7
BITMAP
80
ENDCHAR
STARTCHAR 05C0
ENCODING 1472
SWIDTH 205 0
DWIDTH 2 0
BBX 1 8 1 -1
BITMAP
80
80
80
80
80
80
80
80
ENDCHAR
STARTCHAR 05C1
ENCODING 1473
SWIDTH 0 0
DWIDTH 0 0
BBX 1 1 2 7
BITMAP
80
ENDCHAR
STARTCHAR 05C2
ENCODING 1474
SWIDTH 0 0
DWIDTH 0 0
BBX 1 1 -1 7
BITMAP
80
ENDCHAR
STARTCHAR 05C3
ENCODING 1475
SWIDTH 411 0
DWIDTH 4 0
BBX 1 6 1 0
BITMAP
80
80
00
00
80
80
ENDCHAR
STARTCHAR 05C4
ENCODING 1476
SWIDTH 0 0
DWIDTH 0 0
BBX 1 1 0 7
BITMAP
80
ENDCHAR
STARTCHAR 05C5
ENCODING 1477
SWIDTH 0 0
DWIDTH 0 0
BBX 1 1 0 -2
BITMAP
80
ENDCHAR
STARTCHAR 05C6
ENCODING 1478
SWIDTH 411 0
DWIDTH 4 0
BBX 3 6 1 0
BITMAP
C0
80
80
80
80
E0
ENDCHAR
STARTCHAR 05C7
ENCODING 1479
SWIDTH 0 0
DWIDTH 0 0
BBX 2 2 2 -2
BITMAP
C0
80
ENDCHAR
STARTCHAR 05D0
ENCODING 1488
SWIDTH 720 0
DWIDTH 7 0
BBX 5 6 1 0
BITMAP
88
48
70
A0
90
88
ENDCHAR
STARTCHAR 05D1
ENCODING 1489
SWIDTH 617 0
DWIDTH 6 0
BBX 6 6 0 0
BITMAP
F0
08
08
08
08
FC
ENDCHAR
STARTCHAR 05D2
ENCODING 1490
SWIDTH 514 0
DWIDTH 5 0
BBX 3 6 1 0
BITMAP
C0
20
20
60
E0
A0
ENDCHAR
STARTCHAR 05D3
ENCODING 1491
SWIDTH 617 0
DWIDTH 6 0
BBX 5 6 0 0
BITMAP
F8
08
08
08
08
08
ENDCHAR
STARTCHAR 05D4
ENCODING 1492
SWIDTH 720 0
DWIDTH 7 0
BBX 5 6 1 0
BITMAP
F0
08
88
88
88
88
ENDCHAR
STARTCHAR 05D5
ENCODING 1493
SWIDTH 308 0
DWIDTH 3 0
BBX 2 6 0 0
BITMAP
C0
40
40
40
40
40
ENDCHAR
STARTCHAR 05D6
ENCODING 1494
SWIDTH 308 0
DWIDTH 3 0
BBX 3 6 0 0
BITMAP
C0
20
40
40
40
40
ENDCHAR
STARTCHAR 05D7
ENCODING 1495
SWIDTH 720 0
DWIDTH 7 0
BBX 5 6 1 0
BITMAP
F0
88
88
88
88
88
ENDCHAR
STARTCHAR 05D8
ENCODING 1496
SWIDTH 720 0
DWIDTH 7 0
BBX 5 6 1 0
BITMAP
98
88
88
88
88
70
ENDCHAR
STARTCHAR 05D9
ENCODING 1497
SWIDTH 308 0
DWIDTH 3 0
BBX 2 3 0 3
BITMAP
C0
40
40
ENDCHAR
STARTCHAR 05DA
ENCODING 1498
SWIDTH 617 0
DWIDTH 6 0
BBX 6 8 0 -2
BITMAP
F8
08
04
04
04
04
04
04
ENDCHAR
STARTCHAR 05DB
ENCODING 1499
SWIDTH 617 0
DWIDTH 6 0
BBX 6 6 0 0
BITMAP
F8
08
04
04
08
F8
ENDCHAR
STARTCHAR 05DC
ENCODING 1500
SWIDTH 617 0
DWIDTH 6 0
BBX 6 8 0 0
BITMAP
80
80
F8
04
04
08
10
20
ENDCHAR
STARTCHAR 05DD
ENCODING 1501
SWIDTH 720 0
DWIDTH 7 0
BBX 5 6 1 0
BITMAP
F0
88
88
88
88
F8
ENDCHAR
STARTCHAR 05DE
ENCODING 1502
SWIDTH 720 0
DWIDTH 7 0
BBX 6 6 0 0
BITMAP
78
64
44
44
44
9C
ENDCHAR
STARTCHAR 05DF
ENCODING 1503
SWIDTH 411 0
DWIDTH 4 0
BBX 3 8 0 -2
BITMAP
E0
20
20
20
20
20
20
20
ENDCHAR
STARTCHAR 05E0
ENCODING 1504
SWIDTH 411 0
DWIDTH 4 0
BBX 3 6 0 0
BITMAP
60
20
20
20
20
E0
ENDCHAR
STARTCHAR 05E1
ENCODING 1505
SWIDTH 720 0
DWIDTH 7 0
BBX 7 6 0 0
BITMAP
FC
44
42
42
44
3C
ENDCHAR
STARTCHAR 05E2
ENCODING 1506
SWIDTH 617 0
DWIDTH 6 0
BBX 6 6 0 -1
BITMAP
44
44
44
28
28
F0
ENDCHAR
STARTCHAR 05E3
ENCODING 1507
SWIDTH 720 0
DWIDTH 7 0
BBX 5 8 1 -2
BITMAP
F0
88
88
C8
08
08
08
08
ENDCHAR
STARTCHAR 05E4
ENCODING 1508
SWIDTH 720 0
DWIDTH 7 0
BBX 5 6 1 0
BITMAP
F0
88
88
C8
08
F0
ENDCHAR
STARTCHAR 05E5
ENCODING 1509
SWIDTH 514 0
DWIDTH 5 0
BBX 4 8 0 -2
BITMAP
90
90
50
20
20
20
20
20
ENDCHAR
STARTCHAR 05E6
ENCODING 1510
SWIDTH 617 0
DWIDTH 6 0
BBX 5 6 0 0
BITMAP
88
48
70
18
08
78
ENDCHAR
STARTCHAR 05E7
ENCODING 1511
SWIDTH 720 0
DWIDTH 7 0
BBX 5 8 1 -2
BITMAP
F8
08
88
88
90
A0
80
80
ENDCHAR
STARTCHAR 05E8
ENCODING 1512
SWIDTH 617 0
DWIDTH 6 0
BBX 5 6 0 0
BITMAP
F0
08
08
08
08
08
ENDCHAR
STARTCHAR 05E9
ENCODING 1513
SWIDTH 822 0
DWIDTH 8 0
BBX 7 6 1 0
BITMAP
92
92
A4
C4
88
F0
ENDCHAR
STARTCHAR 05EA
ENCODING 1514
SWIDTH 720 0
DWIDTH 7 0
BBX 6 6 0 0
BITMAP
FC
44
44
44
44
C4
ENDCHAR
STARTCHAR 05F0
ENCODING 1520
SWIDTH 514 0
DWIDTH 5 0
BBX 5 6 0 0
BITMAP
D8
48
48
48
48
48
ENDCHAR
STARTCHAR 05F1
ENCODING 1521
SWIDTH 514 0
DWIDTH 5 0
BBX 5 6 0 0
BITMAP
D8
48
48
08
08
08
ENDCHAR
STARTCHAR 05F2
ENCODING 1522
SWIDTH 514 0
DWIDTH 5 0
BBX 5 3 0 3
BITMAP
D8
48
48
ENDCHAR
STARTCHAR 05F3
ENCODING 1523
SWIDTH 205 0
DWIDTH 2 0
BBX 2 3 0 5
BITMAP
40
40
80
ENDCHAR
STARTCHAR 05F4
ENCODING 1524
SWIDTH 411 0
DWIDTH 4 0
BBX 3 3 1 5
BITMAP
A0
A0
C0
ENDCHAR
STARTCHAR 0600
ENCODING 1536
SWIDTH 925 0
DWIDTH 9 0
BBX 9 3 0 -1
BITMAP
0100
0100
FF80
ENDCHAR
STARTCHAR 0601
ENCODING 1537
SWIDTH 1645 0
DWIDTH 16 0
BBX 15 2 0 -1
BITMAP
B21E
EFE2
ENDCHAR
STARTCHAR 0602
ENCODING 1538
SWIDTH 617 0
DWIDTH 6 0
BBX 7 3 0 -1
BITMAP
60
90
7E
ENDCHAR
STARTCHAR 0603
ENCODING 1539
SWIDTH 1337 0
DWIDTH 13 0
BBX 13 3 0 -1
BITMAP
0030
0148
FFF0
ENDCHAR
STARTCHAR 0604
ENCODING 1540
SWIDTH 1542 0
DWIDTH 15 0
BBX 15 6 0 -2
BITMAP
0002
006A
00AA
009C
FFC0
0040
ENDCHAR
STARTCHAR 0605
ENCODING 1541
SWIDTH 0 0
DWIDTH 0 0
BBX 6 2 0 7
BITMAP
C0
3C
ENDCHAR
STARTCHAR 0606
ENCODING 1542
SWIDTH 617 0
DWIDTH 6 0
BBX 5 7 1 1
BITMAP
E0
A0
A0
58
50
20
20
ENDCHAR
STARTCHAR 0607
ENCODING 1543
SWIDTH 617 0
DWIDTH 6 0
BBX 5 7 1 1
BITMAP
A0
A0
A0
58
50
20
20
ENDCHAR
STARTCHAR 0608
ENCODING 1544
SWIDTH 1028 0
DWIDTH 10 0
BBX 10 6 0 0
BITMAP
0640
65C0
C780
4100
2200
3C00
ENDCHAR
STARTCHAR 0609
ENCODING 1545
SWIDTH 617 0
DWIDTH 6 0
BBX 6 7 0 0
BITMAP
C8
48
10
20
20
58
9C
ENDCHAR
STARTCHAR 060A
ENCODING 1546
SWIDTH 822 0
DWIDTH 8 0
BBX 7 7 0 0
BITMAP
C8
48
10
20
20
5E
9E
ENDCHAR
STARTCHAR 060B
ENCODING 1547
SWIDTH 720 0
DWIDTH 7 0
BBX 7 9 0 -2
BITMAP
08
00
0C
0A
0E
02
FC
08
08
ENDCHAR
STARTCHAR 060C
ENCODING 1548
SWIDTH 411 0
DWIDTH 4 0
BBX 1 3 1 0
BITMAP
80
80
80
ENDCHAR
STARTCHAR 060D
ENCODING 1549
SWIDTH 308 0
DWIDTH 3 0
BBX 3 3 0 -2
BITMAP
20
40
80
ENDCHAR
STARTCHAR 060E
ENCODING 1550
SWIDTH 1234 0
DWIDTH 12 0
BBX 12 3 0 0
BITMAP
6000
9000
7FF0
ENDCHAR
STARTCHAR 060F
ENCODING 1551
SWIDTH 617 0
DWIDTH 6 0
BBX 5 7 0 -2
BITMAP
70
40
50
60
B8
48
B8
ENDCHAR
STARTCHAR 0610
ENCODING 1552
SWIDTH 0 0
DWIDTH 0 0
BBX 2 3 -1 8
BITMAP
40
C0
C0
ENDCHAR
STARTCHAR 0611
ENCODING 1553
SWIDTH 0 0
DWIDTH 0 0
BBX 2 3 -1 8
BITMAP
40
80
C0
ENDCHAR
STARTCHAR 0612
ENCODING 1554
SWIDTH 0 0
DWIDTH 0 0
BBX 2 4 -1 7
BITMAP
80
C0
80
40
ENDCHAR
STARTCHAR 0613
ENCODING 1555
SWIDTH 0 0
DWIDTH 0 0
BBX 4 5 -2 7
BITMAP
60
60
E0
10
20
ENDCHAR
STARTCHAR 0614
ENCODING 1556
SWIDTH 0 0
DWIDTH 0 0
BBX 4 2 -2 8
BITMAP
30
D0
ENDCHAR
STARTCHAR 0615
ENCODING 1557
SWIDTH 0 0
DWIDTH 0 0
BBX 3 2 0 1
BITMAP
60
E0
ENDCHAR
STARTCHAR 0616
ENCODING 1558
SWIDTH 0 0
DWIDTH 0 0
BBX 3 5 -2 -1
BITMAP
60
60
60
80
E0
ENDCHAR
STARTCHAR 0617
ENCODING 1559
SWIDTH 0 0
DWIDTH 0 0
BBX 2 3 -1 1
BITMAP
40
40
80
ENDCHAR
STARTCHAR 0618
ENCODING 1560
SWIDTH 0 0
DWIDTH 0 0
BBX 2 1 -1 0
BITMAP
C0
ENDCHAR
STARTCHAR 0619
ENCODING 1561
SWIDTH 0 0
DWIDTH 0 0
BBX 2 3 -1 0
BITMAP
40
40
C0
ENDCHAR
STARTCHAR 061A
ENCODING 1562
SWIDTH 0 0
DWIDTH 0 0
BBX 2 1 -1 -1
BITMAP
C0
ENDCHAR
STARTCHAR 061B
ENCODING 1563
SWIDTH 411 0
DWIDTH 4 0
BBX 1 6 1 0
BITMAP
80
80
80
00
00
80
ENDCHAR
STARTCHAR 061C
ENCODING 1564
SWIDTH 1028 0
DWIDTH 10 0
BBX 10 7 0 0
BITMAP
D2C0
0000
2A80
6A80
7F80
0000
D2C0
ENDCHAR
STARTCHAR 061E
ENCODING 1566
SWIDTH 308 0
DWIDTH 3 0
BBX 3 2 0 0
BITMAP
40
A0
ENDCHAR
STARTCHAR 061F
ENCODING 1567
SWIDTH 514 0
DWIDTH 5 0
BBX 4 7 0 0
BITMAP
70
C0
40
40
20
00
20
ENDCHAR
STARTCHAR 0620
ENCODING 1568
SWIDTH 925 0
DWIDTH 9 0
BBX 8 8 0 -3
BITMAP
03
0C
86
81
7E
00
18
18
ENDCHAR
STARTCHAR 0621
ENCODING 1569
SWIDTH 411 0
DWIDTH 4 0
BBX 2 4 1 0
BITMAP
C0
80
C0
80
ENDCHAR
STARTCHAR 0622
ENCODING 1570
SWIDTH 205 0
DWIDTH 2 0
BBX 3 11 0 0
BITMAP
A0
40
00
00
40
40
40
40
40
40
40
ENDCHAR
STARTCHAR 0623
ENCODING 1571
SWIDTH 205 0
DWIDTH 2 0
BBX 2 10 0 0
BITMAP
C0
C0
00
40
40
40
40
40
40
40
ENDCHAR
STARTCHAR 0624
ENCODING 1572
SWIDTH 411 0
DWIDTH 4 0
BBX 4 9 0 -2
BITMAP
60
60
00
60
90
70
10
20
E0
ENDCHAR
STARTCHAR 0625
ENCODING 1573
SWIDTH 205 0
DWIDTH 2 0
BBX 2 9 0 -2
BITMAP
40
40
40
40
40
40
40
C0
C0
ENDCHAR
STARTCHAR 0626
ENCODING 1574
SWIDTH 925 0
DWIDTH 9 0
BBX 8 6 0 0
BITMAP
20
23
0C
86
81
7E
ENDCHAR
STARTCHAR 0627
ENCODING 1575
SWIDTH 205 0
DWIDTH 2 0
BBX 1 7 1 0
BITMAP
80
80
80
80
80
80
80
ENDCHAR
STARTCHAR 0628
ENCODING 1576
SWIDTH 822 0
DWIDTH 8 0
BBX 8 5 0 -2
BITMAP
81
43
7E
00
08
ENDCHAR
STARTCHAR 0629
ENCODING 1577
SWIDTH 514 0
DWIDTH 5 0
BBX 4 7 0 0
BITMAP
60
00
20
70
90
90
70
ENDCHAR
STARTCHAR 062A
ENCODING 1578
SWIDTH 822 0
DWIDTH 8 0
BBX 8 5 0 0
BITMAP
18
00
81
43
7E
ENDCHAR
STARTCHAR 062B
ENCODING 1579
SWIDTH 822 0
DWIDTH 8 0
BBX 8 6 0 0
BITMAP
08
18
00
81
43
7E
ENDCHAR
STARTCHAR 062C
ENCODING 1580
SWIDTH 617 0
DWIDTH 6 0
BBX 5 6 0 -2
BITMAP
70
38
40
90
80
78
ENDCHAR
STARTCHAR 062D
ENCODING 1581
SWIDTH 617 0
DWIDTH 6 0
BBX 5 6 0 -2
BITMAP
70
38
40
80
80
78
ENDCHAR
STARTCHAR 062E
ENCODING 1582
SWIDTH 617 0
DWIDTH 6 0
BBX 5 8 0 -2
BITMAP
08
00
70
38
40
80
80
78
ENDCHAR
STARTCHAR 062F
ENCODING 1583
SWIDTH 514 0
DWIDTH 5 0
BBX 4 4 0 0
BITMAP
40
30
10
F0
ENDCHAR
STARTCHAR 0630
ENCODING 1584
SWIDTH 514 0
DWIDTH 5 0
BBX 4 7 0 0
BITMAP
40
00
00
40
30
10
F0
ENDCHAR
STARTCHAR 0631
ENCODING 1585
SWIDTH 411 0
DWIDTH 4 0
BBX 3 5 0 -2
BITMAP
20
20
20
20
C0
ENDCHAR
STARTCHAR 0632
ENCODING 1586
SWIDTH 411 0
DWIDTH 4 0
BBX 3 7 0 -2
BITMAP
40
00
20
20
20
20
C0
ENDCHAR
STARTCHAR 0633
ENCODING 1587
SWIDTH 1234 0
DWIDTH 12 0
BBX 12 5 0 -2
BITMAP
0010
8490
8760
4400
7800
ENDCHAR
STARTCHAR 0634
ENCODING 1588
SWIDTH 1234 0
DWIDTH 12 0
BBX 12 8 0 -2
BITMAP
0200
0300
0000
0010
8490
8760
4400
7800
ENDCHAR
STARTCHAR 0635
ENCODING 1589
SWIDTH 1234 0
DWIDTH 12 0
BBX 11 6 0 -2
BITMAP
00C0
0120
8620
87C0
4800
7800
ENDCHAR
STARTCHAR 0636
ENCODING 1590
SWIDTH 1234 0
DWIDTH 12 0
BBX 11 8 0 -2
BITMAP
0080
0000
00C0
0120
8620
87C0
4800
7800
ENDCHAR
STARTCHAR 0637
ENCODING 1591
SWIDTH 720 0
DWIDTH 7 0
BBX 6 7 0 0
BITMAP
40
40
40
5C
64
44
FC
ENDCHAR
STARTCHAR 0638
ENCODING 1592
SWIDTH 720 0
DWIDTH 7 0
BBX 6 7 0 0
BITMAP
40
50
40
5C
64
44
FC
ENDCHAR
STARTCHAR 0639
ENCODING 1593
SWIDTH 617 0
DWIDTH 6 0
BBX 5 7 0 -2
BITMAP
70
40
70
40
80
48
78
ENDCHAR
STARTCHAR 063A
ENCODING 1594
SWIDTH 617 0
DWIDTH 6 0
BBX 5 9 0 -2
BITMAP
20
00
70
40
70
40
80
48
78
ENDCHAR
STARTCHAR 063B
ENCODING 1595
SWIDTH 925 0
DWIDTH 9 0
BBX 9 8 0 0
BITMAP
0A00
0180
0600
0C00
0200
8100
4100
3E00
ENDCHAR
STARTCHAR 063C
ENCODING 1596
SWIDTH 925 0
DWIDTH 9 0
BBX 9 10 0 -3
BITMAP
0180
0600
0C00
0200
8100
4100
3E00
0000
0C00
0800
ENDCHAR
STARTCHAR 063D
ENCODING 1597
SWIDTH 925 0
DWIDTH 9 0
BBX 8 6 0 0
BITMAP
20
33
0C
86
81
7E
ENDCHAR
STARTCHAR 063E
ENCODING 1598
SWIDTH 925 0
DWIDTH 9 0
BBX 8 6 0 0
BITMAP
30
03
0C
86
81
7E
ENDCHAR
STARTCHAR 063F
ENCODING 1599
SWIDTH 925 0
DWIDTH 9 0
BBX 8 7 0 0
BITMAP
20
30
03
0C
86
81
7E
ENDCHAR
STARTCHAR 0640
ENCODING 1600
SWIDTH 308 0
DWIDTH 3 0
BBX 3 1 0 0
BITMAP
E0
ENDCHAR
STARTCHAR 0641
ENCODING 1601
SWIDTH 925 0
DWIDTH 9 0
BBX 8 7 0 0
BITMAP
04
00
07
05
87
41
7E
ENDCHAR
STARTCHAR 0642
ENCODING 1602
SWIDTH 925 0
DWIDTH 9 0
BBX 8 8 0 -1
BITMAP
06
00
07
05
07
81
43
7C
ENDCHAR
STARTCHAR 0643
ENCODING 1603
SWIDTH 720 0
DWIDTH 7 0
BBX 7 7 0 0
BITMAP
02
12
12
12
02
82
7C
ENDCHAR
STARTCHAR 0644
ENCODING 1604
SWIDTH 617 0
DWIDTH 6 0
BBX 6 7 0 0
BITMAP
04
04
04
04
84
84
78
ENDCHAR
STARTCHAR 0645
ENCODING 1605
SWIDTH 617 0
DWIDTH 6 0
BBX 6 6 -1 -2
BITMAP
1C
14
14
3C
40
80
ENDCHAR
STARTCHAR 0646
ENCODING 1606
SWIDTH 720 0
DWIDTH 7 0
BBX 6 6 0 0
BITMAP
10
00
84
84
44
78
ENDCHAR
STARTCHAR 0647
ENCODING 1607
SWIDTH 514 0
DWIDTH 5 0
BBX 4 5 0 0
BITMAP
20
70
90
90
70
ENDCHAR
STARTCHAR 0648
ENCODING 1608
SWIDTH 411 0
DWIDTH 4 0
BBX 4 6 0 -2
BITMAP
60
90
70
10
20
E0
ENDCHAR
STARTCHAR 0649
ENCODING 1609
SWIDTH 925 0
DWIDTH 9 0
BBX 8 5 0 0
BITMAP
03
0C
86
81
7E
ENDCHAR
STARTCHAR 064A
ENCODING 1610
SWIDTH 925 0
DWIDTH 9 0
BBX 8 7 0 -2
BITMAP
03
0C
86
81
7E
00
28
ENDCHAR
STARTCHAR 064B
ENCODING 1611
SWIDTH 0 0
DWIDTH 0 0
BBX 3 3 0 4
BITMAP
E0
00
E0
ENDCHAR
STARTCHAR 064C
ENCODING 1612
SWIDTH 0 0
DWIDTH 0 0
BBX 3 2 0 5
BITMAP
E0
E0
ENDCHAR
STARTCHAR 064D
ENCODING 1613
SWIDTH 0 0
DWIDTH 0 0
BBX 3 3 0 -3
BITMAP
E0
00
E0
ENDCHAR
STARTCHAR 064E
ENCODING 1614
SWIDTH 0 0
DWIDTH 0 0
BBX 3 1 0 6
BITMAP
E0
ENDCHAR
STARTCHAR 064F
ENCODING 1615
SWIDTH 0 0
DWIDTH 0 0
BBX 2 2 0 5
BITMAP
40
C0
ENDCHAR
STARTCHAR 0650
ENCODING 1616
SWIDTH 0 0
DWIDTH 0 0
BBX 3 1 0 -2
BITMAP
E0
ENDCHAR
STARTCHAR 0651
ENCODING 1617
SWIDTH 0 0
DWIDTH 0 0
BBX 3 2 0 5
BITMAP
80
E0
ENDCHAR
STARTCHAR 0652
ENCODING 1618
SWIDTH 0 0
DWIDTH 0 0
BBX 2 2 0 5
BITMAP
C0
C0
ENDCHAR
STARTCHAR 0653
ENCODING 1619
SWIDTH 0 0
DWIDTH 0 0
BBX 3 2 0 7
BITMAP
A0
40
ENDCHAR
STARTCHAR 0654
ENCODING 1620
SWIDTH 0 0
DWIDTH 0 0
BBX 2 2 0 7
BITMAP
40
C0
ENDCHAR
STARTCHAR 0655
ENCODING 1621
SWIDTH 0 0
DWIDTH 0 0
BBX 2 2 0 -2
BITMAP
40
C0
ENDCHAR
STARTCHAR 0656
ENCODING 1622
SWIDTH 0 0
DWIDTH 0 0
BBX 0 0 0 -2
BITMAP
ENDCHAR
STARTCHAR 0657
ENCODING 1623
SWIDTH 0 0
DWIDTH 0 0
BBX 2 4 -1 6
BITMAP
40
80
C0
80
ENDCHAR
STARTCHAR 0658
ENCODING 1624
SWIDTH 0 0
DWIDTH 0 0
BBX 2 2 -1 8
BITMAP
C0
C0
ENDCHAR
STARTCHAR 0659
ENCODING 1625
SWIDTH 0 0
DWIDTH 0 0
BBX 2 1 -1 6
BITMAP
C0
ENDCHAR
STARTCHAR 065A
ENCODING 1626
SWIDTH 0 0
DWIDTH 0 0
BBX 2 2 0 8
BITMAP
C0
40
ENDCHAR
STARTCHAR 065B
ENCODING 1627
SWIDTH 0 0
DWIDTH 0 0
BBX 3 2 0 7
BITMAP
40
A0
ENDCHAR
STARTCHAR 065C
ENCODING 1628
SWIDTH 0 0
DWIDTH 0 0
BBX 1 1 0 -2
BITMAP
80
ENDCHAR
STARTCHAR 065D
ENCODING 1629
SWIDTH 0 0
DWIDTH 0 0
BBX 2 3 0 4
BITMAP
C0
80
40
ENDCHAR
STARTCHAR 065E
ENCODING 1630
SWIDTH 0 0
DWIDTH 0 0
BBX 2 1 0 6
BITMAP
C0
ENDCHAR
STARTCHAR 065F
ENCODING 1631
SWIDTH 0 0
DWIDTH 0 0
BBX 2 3 -1 -3
BITMAP
40
80
C0
ENDCHAR
STARTCHAR 0660
ENCODING 1632
SWIDTH 617 0
DWIDTH 6 0
BBX 2 3 2 2
BITMAP
80
C0
80
ENDCHAR
STARTCHAR 0661
ENCODING 1633
SWIDTH 617 0
DWIDTH 6 0
BBX 2 7 2 0
BITMAP
80
80
40
40
40
40
40
ENDCHAR
STARTCHAR 0662
ENCODING 1634
SWIDTH 617 0
DWIDTH 6 0
BBX 4 7 1 0
BITMAP
90
E0
40
40
40
40
40
ENDCHAR
STARTCHAR 0663
ENCODING 1635
SWIDTH 617 0
DWIDTH 6 0
BBX 6 7 0 0
BITMAP
94
78
40
20
20
20
20
ENDCHAR
STARTCHAR 0664
ENCODING 1636
SWIDTH 617 0
DWIDTH 6 0
BBX 4 7 1 0
BITMAP
E0
C0
20
40
C0
80
F0
ENDCHAR
STARTCHAR 0665
ENCODING 1637
SWIDTH 617 0
DWIDTH 6 0
BBX 5 5 0 0
BITMAP
30
48
88
88
78
ENDCHAR
STARTCHAR 0666
ENCODING 1638
SWIDTH 617 0
DWIDTH 6 0
BBX 5 7 0 0
BITMAP
C8
78
08
08
08
08
08
ENDCHAR
STARTCHAR 0667
ENCODING 1639
SWIDTH 617 0
DWIDTH 6 0
BBX 5 7 0 0
BITMAP
88
48
48
50
30
30
20
ENDCHAR
STARTCHAR 0668
ENCODING 1640
SWIDTH 617 0
DWIDTH 6 0
BBX 5 7 0 0
BITMAP
20
30
30
50
48
48
88
ENDCHAR
STARTCHAR 0669
ENCODING 1641
SWIDTH 617 0
DWIDTH 6 0
BBX 4 7 1 0
BITMAP
E0
90
90
F0
10
10
10
ENDCHAR
STARTCHAR 066A
ENCODING 1642
SWIDTH 617 0
DWIDTH 6 0
BBX 5 7 0 0
BITMAP
C8
08
10
20
20
40
88
ENDCHAR
STARTCHAR 066B
ENCODING 1643
SWIDTH 411 0
DWIDTH 4 0
BBX 1 3 1 -2
BITMAP
80
80
80
ENDCHAR
STARTCHAR 066C
ENCODING 1644
SWIDTH 411 0
DWIDTH 4 0
BBX 1 3 1 -2
BITMAP
80
80
80
ENDCHAR
STARTCHAR 066D
ENCODING 1645
SWIDTH 514 0
DWIDTH 5 0
BBX 5 7 0 0
BITMAP
20
68
30
F8
30
68
20
ENDCHAR
STARTCHAR 066E
ENCODING 1646
SWIDTH 822 0
DWIDTH 8 0
BBX 8 3 0 0
BITMAP
81
43
7E
ENDCHAR
STARTCHAR 066F
ENCODING 1647
SWIDTH 925 0
DWIDTH 9 0
BBX 8 7 0 -1
BITMAP
03
05
05
87
81
42
3C
ENDCHAR
STARTCHAR 0670
ENCODING 1648
SWIDTH 0 0
DWIDTH 0 0
BBX 1 1 0 8
BITMAP
80
ENDCHAR
STARTCHAR 0671
ENCODING 1649
SWIDTH 205 0
DWIDTH 2 0
BBX 2 10 0 0
BITMAP
40
40
C0
40
40
40
40
40
40
40
ENDCHAR
STARTCHAR 0672
ENCODING 1650
SWIDTH 205 0
DWIDTH 2 0
BBX 2 10 0 0
BITMAP
40
40
C0
40
40
40
40
40
40
40
ENDCHAR
STARTCHAR 0673
ENCODING 1651
SWIDTH 205 0
DWIDTH 2 0
BBX 2 10 0 -3
BITMAP
40
40
40
40
40
40
40
40
40
C0
ENDCHAR
STARTCHAR 0674
ENCODING 1652
SWIDTH 0 0
DWIDTH 0 0
BBX 2 2 0 7
BITMAP
40
C0
ENDCHAR
STARTCHAR 0675
ENCODING 1653
SWIDTH 205 0
DWIDTH 2 0
BBX 3 7 1 0
BITMAP
C0
E0
80
80
80
80
80
ENDCHAR
STARTCHAR 0676
ENCODING 1654
SWIDTH 411 0
DWIDTH 4 0
BBX 4 8 0 -2
BITMAP
30
30
60
90
70
10
20
E0
ENDCHAR
STARTCHAR 0677
ENCODING 1655
SWIDTH 411 0
DWIDTH 4 0
BBX 4 8 0 -2
BITMAP
D0
D0
60
90
70
10
20
E0
ENDCHAR
STARTCHAR 0678
ENCODING 1656
SWIDTH 925 0
DWIDTH 9 0
BBX 9 8 0 0
BITMAP
0180
0180
0000
0300
0C00
8600
8100
7E00
ENDCHAR
STARTCHAR 0679
ENCODING 1657
SWIDTH 822 0
DWIDTH 8 0
BBX 8 7 0 0
BITMAP
10
18
18
00
81
43
7E
ENDCHAR
STARTCHAR 067A
ENCODING 1658
SWIDTH 822 0
DWIDTH 8 0
BBX 8 6 0 0
BITMAP
08
08
00
81
43
7E
ENDCHAR
STARTCHAR 067B
ENCODING 1659
SWIDTH 822 0
DWIDTH 8 0
BBX 8 5 0 -2
BITMAP
81
43
7E
08
08
ENDCHAR
STARTCHAR 067C
ENCODING 1660
SWIDTH 822 0
DWIDTH 8 0
BBX 8 7 0 -2
BITMAP
18
00
81
43
7E
18
18
ENDCHAR
STARTCHAR 067D
ENCODING 1661
SWIDTH 822 0
DWIDTH 8 0
BBX 8 6 0 0
BITMAP
18
08
00
81
43
7E
ENDCHAR
STARTCHAR 067E
ENCODING 1662
SWIDTH 822 0
DWIDTH 8 0
BBX 8 5 0 -2
BITMAP
81
43
7E
18
10
ENDCHAR
STARTCHAR 067F
ENCODING 1663
SWIDTH 822 0
DWIDTH 8 0
BBX 8 6 0 0
BITMAP
18
18
00
81
43
7E
ENDCHAR
STARTCHAR 0680
ENCODING 1664
SWIDTH 822 0
DWIDTH 8 0
BBX 8 5 0 -2
BITMAP
81
43
7E
18
18
ENDCHAR
STARTCHAR 0681
ENCODING 1665
SWIDTH 617 0
DWIDTH 6 0
BBX 5 9 0 -2
BITMAP
10
10
00
70
38
40
80
80
78
ENDCHAR
STARTCHAR 0682
ENCODING 1666
SWIDTH 617 0
DWIDTH 6 0
BBX 5 9 0 -2
BITMAP
08
08
00
70
38
40
80
80
78
ENDCHAR
STARTCHAR 0683
ENCODING 1667
SWIDTH 617 0
DWIDTH 6 0
BBX 5 6 0 -2
BITMAP
70
38
40
B0
80
78
ENDCHAR
STARTCHAR 0684
ENCODING 1668
SWIDTH 617 0
DWIDTH 6 0
BBX 5 6 0 -2
BITMAP
70
38
50
90
80
78
ENDCHAR
STARTCHAR 0685
ENCODING 1669
SWIDTH 617 0
DWIDTH 6 0
BBX 5 9 0 -2
BITMAP
08
18
00
70
38
40
80
80
78
ENDCHAR
STARTCHAR 0686
ENCODING 1670
SWIDTH 617 0
DWIDTH 6 0
BBX 5 6 0 -2
BITMAP
70
38
68
90
80
78
ENDCHAR
STARTCHAR 0687
ENCODING 1671
SWIDTH 617 0
DWIDTH 6 0
BBX 5 6 0 -2
BITMAP
70
38
60
B0
80
78
ENDCHAR
STARTCHAR 0688
ENCODING 1672
SWIDTH 514 0
DWIDTH 5 0
BBX 4 8 0 0
BITMAP
40
60
60
00
40
30
10
F0
ENDCHAR
STARTCHAR 0689
ENCODING 1673
SWIDTH 514 0
DWIDTH 5 0
BBX 4 6 0 -2
BITMAP
40
30
10
F0
60
60
ENDCHAR
STARTCHAR 068A
ENCODING 1674
SWIDTH 514 0
DWIDTH 5 0
BBX 4 6 0 -2
BITMAP
40
30
10
F0
00
40
ENDCHAR
STARTCHAR 068B
ENCODING 1675
SWIDTH 514 0
DWIDTH 5 0
BBX 4 10 0 -2
BITMAP
40
60
60
00
40
30
10
F0
00
40
ENDCHAR
STARTCHAR 068C
ENCODING 1676
SWIDTH 514 0
DWIDTH 5 0
BBX 4 7 0 0
BITMAP
A0
00
00
40
30
10
F0
ENDCHAR
STARTCHAR 068D
ENCODING 1677
SWIDTH 514 0
DWIDTH 5 0
BBX 4 6 0 -2
BITMAP
40
30
10
F0
00
A0
ENDCHAR
STARTCHAR 068E
ENCODING 1678
SWIDTH 514 0
DWIDTH 5 0
BBX 4 8 0 0
BITMAP
40
A0
00
00
40
30
10
F0
ENDCHAR
STARTCHAR 068F
ENCODING 1679
SWIDTH 514 0
DWIDTH 5 0
BBX 4 8 0 0
BITMAP
A0
40
00
00
40
30
10
F0
ENDCHAR
STARTCHAR 0690
ENCODING 1680
SWIDTH 514 0
DWIDTH 5 0
BBX 4 8 0 0
BITMAP
20
A0
00
00
40
30
10
F0
ENDCHAR
STARTCHAR 0691
ENCODING 1681
SWIDTH 411 0
DWIDTH 4 0
BBX 4 9 0 -2
BITMAP
40
70
60
00
20
20
20
20
C0
ENDCHAR
STARTCHAR 0692
ENCODING 1682
SWIDTH 411 0
DWIDTH 4 0
BBX 3 8 0 -2
BITMAP
60
40
00
20
20
20
20
C0
ENDCHAR
STARTCHAR 0693
ENCODING 1683
SWIDTH 411 0
DWIDTH 4 0
BBX 4 5 0 -2
BITMAP
20
20
20
30
F0
ENDCHAR
STARTCHAR 0694
ENCODING 1684
SWIDTH 411 0
DWIDTH 4 0
BBX 4 5 0 -2
BITMAP
20
20
20
20
D0
ENDCHAR
STARTCHAR 0695
ENCODING 1685
SWIDTH 411 0
DWIDTH 4 0
BBX 5 5 0 -2
BITMAP
20
20
20
38
D0
ENDCHAR
STARTCHAR 0696
ENCODING 1686
SWIDTH 411 0
DWIDTH 4 0
BBX 4 5 0 -2
BITMAP
20
20
60
20
D0
ENDCHAR
STARTCHAR 0697
ENCODING 1687
SWIDTH 411 0
DWIDTH 4 0
BBX 3 7 0 -2
BITMAP
60
00
20
20
20
20
C0
ENDCHAR
STARTCHAR 0698
ENCODING 1688
SWIDTH 411 0
DWIDTH 4 0
BBX 3 8 0 -2
BITMAP
20
60
00
20
20
20
20
C0
ENDCHAR
STARTCHAR 0699
ENCODING 1689
SWIDTH 411 0
DWIDTH 4 0
BBX 3 8 0 -2
BITMAP
60
60
00
20
20
20
20
C0
ENDCHAR
STARTCHAR 069A
ENCODING 1690
SWIDTH 1234 0
DWIDTH 12 0
BBX 12 7 0 -2
BITMAP
0200
0000
0010
8490
8760
4400
7A00
ENDCHAR
STARTCHAR 069B
ENCODING 1691
SWIDTH 1234 0
DWIDTH 12 0
BBX 12 5 0 -2
BITMAP
0010
8490
8760
4540
7880
ENDCHAR
STARTCHAR 069C
ENCODING 1692
SWIDTH 1234 0
DWIDTH 12 0
BBX 12 8 0 -2
BITMAP
0080
0140
0000
0010
8490
8760
4540
7880
ENDCHAR
STARTCHAR 069D
ENCODING 1693
SWIDTH 1234 0
DWIDTH 12 0
BBX 11 6 0 -2
BITMAP
00C0
0120
8620
87C0
4800
7980
ENDCHAR
STARTCHAR 069E
ENCODING 1694
SWIDTH 1234 0
DWIDTH 12 0
BBX 11 9 0 -2
BITMAP
0080
0140
0000
00C0
0120
8620
87C0
4800
7800
ENDCHAR
STARTCHAR 069F
ENCODING 1695
SWIDTH 720 0
DWIDTH 7 0
BBX 6 7 0 0
BITMAP
50
68
40
5C
64
44
FC
ENDCHAR
STARTCHAR 06A0
ENCODING 1696
SWIDTH 617 0
DWIDTH 6 0
BBX 5 10 0 -2
BITMAP
20
50
00
70
40
70
40
80
48
78
ENDCHAR
STARTCHAR 06A1
ENCODING 1697
SWIDTH 925 0
DWIDTH 9 0
BBX 8 5 0 0
BITMAP
07
05
87
41
7E
ENDCHAR
STARTCHAR 06A2
ENCODING 1698
SWIDTH 925 0
DWIDTH 9 0
BBX 8 7 0 -2
BITMAP
07
05
87
41
7E
00
02
ENDCHAR
STARTCHAR 06A3
ENCODING 1699
SWIDTH 925 0
DWIDTH 9 0
BBX 8 9 0 -2
BITMAP
04
00
07
05
87
41
7E
00
02
ENDCHAR
STARTCHAR 06A4
ENCODING 1700
SWIDTH 925 0
DWIDTH 9 0
BBX 8 8 0 0
BITMAP
04
06
00
07
05
87
41
7E
ENDCHAR
STARTCHAR 06A5
ENCODING 1701
SWIDTH 925 0
DWIDTH 9 0
BBX 8 7 0 -2
BITMAP
07
05
87
41
7E
05
02
ENDCHAR
STARTCHAR 06A6
ENCODING 1702
SWIDTH 925 0
DWIDTH 9 0
BBX 8 8 0 0
BITMAP
06
06
00
07
05
87
41
7E
ENDCHAR
STARTCHAR 06A7
ENCODING 1703
SWIDTH 925 0
DWIDTH 9 0
BBX 8 9 0 -1
BITMAP
02
00
03
05
05
87
81
42
3C
ENDCHAR
STARTCHAR 06A8
ENCODING 1704
SWIDTH 925 0
DWIDTH 9 0
BBX 8 10 0 -1
BITMAP
02
06
00
03
05
05
87
81
42
3C
ENDCHAR
STARTCHAR 06A9
ENCODING 1705
SWIDTH 925 0
DWIDTH 9 0
BBX 9 7 0 0
BITMAP
0180
0600
0C00
0200
8100
4100
3E00
ENDCHAR
STARTCHAR 06AA
ENCODING 1706
SWIDTH 1234 0
DWIDTH 12 0
BBX 11 6 1 0
BITMAP
1000
2000
4000
7FE0
0020
FFC0
ENDCHAR
STARTCHAR 06AB
ENCODING 1707
SWIDTH 925 0
DWIDTH 9 0
BBX 9 7 0 0
BITMAP
0180
0700
0D00
0200
8100
4100
3E00
ENDCHAR
STARTCHAR 06AC
ENCODING 1708
SWIDTH 720 0
DWIDTH 7 0
BBX 7 8 0 0
BITMAP
10
02
12
12
12
02
82
7C
ENDCHAR
STARTCHAR 06AD
ENCODING 1709
SWIDTH 720 0
DWIDTH 7 0
BBX 7 9 0 0
BITMAP
10
28
02
12
12
12
02
82
7C
ENDCHAR
STARTCHAR 06AE
ENCODING 1710
SWIDTH 720 0
DWIDTH 7 0
BBX 7 9 0 -2
BITMAP
02
12
12
12
02
82
7C
28
10
ENDCHAR
STARTCHAR 06AF
ENCODING 1711
SWIDTH 925 0
DWIDTH 9 0
BBX 9 9 0 0
BITMAP
0100
0600
0980
0600
0C00
0200
8100
4100
3E00
ENDCHAR
STARTCHAR 06B0
ENCODING 1712
SWIDTH 925 0
DWIDTH 9 0
BBX 9 9 0 0
BITMAP
0100
0600
0980
0700
0D00
0200
8100
4100
3E00
ENDCHAR
STARTCHAR 06B1
ENCODING 1713
SWIDTH 925 0
DWIDTH 9 0
BBX 9 10 0 0
BITMAP
0A00
0100
0600
0980
0600
0C00
0200
8100
4100
3E00
ENDCHAR
STARTCHAR 06B2
ENCODING 1714
SWIDTH 925 0
DWIDTH 9 0
BBX 9 11 0 -2
BITMAP
0100
0600
0980
0600
0C00
0200
8100
4100
3E00
0000
0C00
ENDCHAR
STARTCHAR 06B3
ENCODING 1715
SWIDTH 925 0
DWIDTH 9 0
BBX 9 11 0 -2
BITMAP
0100
0600
0980
0600
0C00
0200
8100
4100
3E00
0800
0800
ENDCHAR
STARTCHAR 06B4
ENCODING 1716
SWIDTH 925 0
DWIDTH 9 0
BBX 9 9 0 0
BITMAP
0500
0E00
0980
0600
0C00
0200
8100
4100
3E00
ENDCHAR
STARTCHAR 06B5
ENCODING 1717
SWIDTH 617 0
DWIDTH 6 0
BBX 6 10 0 0
BITMAP
08
04
00
04
04
04
04
84
84
78
ENDCHAR
STARTCHAR 06B6
ENCODING 1718
SWIDTH 617 0
DWIDTH 6 0
BBX 6 9 0 0
BITMAP
04
00
04
04
04
04
84
84
78
ENDCHAR
STARTCHAR 06B7
ENCODING 1719
SWIDTH 617 0
DWIDTH 6 0
BBX 7 9 0 0
BITMAP
04
0A
04
04
04
04
84
84
78
ENDCHAR
STARTCHAR 06B8
ENCODING 1720
SWIDTH 617 0
DWIDTH 6 0
BBX 6 9 0 -2
BITMAP
04
04
04
04
84
84
78
30
20
ENDCHAR
STARTCHAR 06B9
ENCODING 1721
SWIDTH 720 0
DWIDTH 7 0
BBX 6 8 0 -2
BITMAP
10
00
84
84
44
78
00
10
ENDCHAR
STARTCHAR 06BA
ENCODING 1722
SWIDTH 720 0
DWIDTH 7 0
BBX 6 4 0 0
BITMAP
84
84
44
78
ENDCHAR
STARTCHAR 06BB
ENCODING 1723
SWIDTH 720 0
DWIDTH 7 0
BBX 6 7 0 1
BITMAP
18
38
00
84
84
44
78
ENDCHAR
STARTCHAR 06BC
ENCODING 1724
SWIDTH 720 0
DWIDTH 7 0
BBX 6 7 0 -1
BITMAP
10
00
84
84
44
78
10
ENDCHAR
STARTCHAR 06BD
ENCODING 1725
SWIDTH 720 0
DWIDTH 7 0
BBX 6 7 0 0
BITMAP
10
28
00
84
84
44
78
ENDCHAR
STARTCHAR 06BE
ENCODING 1726
SWIDTH 720 0
DWIDTH 7 0
BBX 6 6 0 0
BITMAP
30
08
24
54
54
FC
ENDCHAR
STARTCHAR 06BF
ENCODING 1727
SWIDTH 617 0
DWIDTH 6 0
BBX 5 8 0 -2
BITMAP
08
00
70
38
40
A8
90
78
ENDCHAR
STARTCHAR 06C0
ENCODING 1728
SWIDTH 514 0
DWIDTH 5 0
BBX 4 8 0 0
BITMAP
40
C0
00
20
70
90
90
70
ENDCHAR
STARTCHAR 06C1
ENCODING 1729
SWIDTH 514 0
DWIDTH 5 0
BBX 4 4 1 -1
BITMAP
60
50
90
80
ENDCHAR
STARTCHAR 06C2
ENCODING 1730
SWIDTH 514 0
DWIDTH 5 0
BBX 4 7 1 -1
BITMAP
60
60
00
60
50
90
80
ENDCHAR
STARTCHAR 06C3
ENCODING 1731
SWIDTH 514 0
DWIDTH 5 0
BBX 4 6 1 -1
BITMAP
60
00
60
50
90
80
ENDCHAR
STARTCHAR 06C4
ENCODING 1732
SWIDTH 411 0
DWIDTH 4 0
BBX 4 6 0 -2
BITMAP
60
90
70
10
E0
E0
ENDCHAR
STARTCHAR 06C5
ENCODING 1733
SWIDTH 411 0
DWIDTH 4 0
BBX 4 7 0 -2
BITMAP
60
A0
90
70
10
E0
C0
ENDCHAR
STARTCHAR 06C6
ENCODING 1734
SWIDTH 411 0
DWIDTH 4 0
BBX 4 9 0 -2
BITMAP
60
40
00
60
90
70
10
20
E0
ENDCHAR
STARTCHAR 06C7
ENCODING 1735
SWIDTH 411 0
DWIDTH 4 0
BBX 4 9 0 -2
BITMAP
60
60
00
60
90
70
10
20
E0
ENDCHAR
STARTCHAR 06C8
ENCODING 1736
SWIDTH 411 0
DWIDTH 4 0
BBX 4 9 0 -1
BITMAP
40
00
00
60
90
70
10
20
E0
ENDCHAR
STARTCHAR 06C9
ENCODING 1737
SWIDTH 411 0
DWIDTH 4 0
BBX 4 9 0 -2
BITMAP
40
60
00
60
90
70
10
20
E0
ENDCHAR
STARTCHAR 06CA
ENCODING 1738
SWIDTH 411 0
DWIDTH 4 0
BBX 4 8 0 -2
BITMAP
60
00
60
90
70
10
20
E0
ENDCHAR
STARTCHAR 06CB
ENCODING 1739
SWIDTH 411 0
DWIDTH 4 0
BBX 4 9 0 -2
BITMAP
40
60
00
60
90
70
10
20
E0
ENDCHAR
STARTCHAR 06CC
ENCODING 1740
SWIDTH 925 0
DWIDTH 9 0
BBX 8 5 0 0
BITMAP
03
0C
86
81
7E
ENDCHAR
STARTCHAR 06CD
ENCODING 1741
SWIDTH 925 0
DWIDTH 9 0
BBX 9 6 0 0
BITMAP
0380
0400
4600
C180
4180
3E00
ENDCHAR
STARTCHAR 06CE
ENCODING 1742
SWIDTH 925 0
DWIDTH 9 0
BBX 8 6 0 0
BITMAP
20
23
0C
86
81
7E
ENDCHAR
STARTCHAR 06CF
ENCODING 1743
SWIDTH 411 0
DWIDTH 4 0
BBX 4 8 0 -2
BITMAP
40
00
60
90
70
10
20
E0
ENDCHAR
STARTCHAR 06D0
ENCODING 1744
SWIDTH 925 0
DWIDTH 9 0
BBX 8 7 0 -2
BITMAP
03
0C
86
81
7E
10
10
ENDCHAR
STARTCHAR 06D1
ENCODING 1745
SWIDTH 925 0
DWIDTH 9 0
BBX 8 7 0 -2
BITMAP
03
0C
86
81
7E
28
10
ENDCHAR
STARTCHAR 06D2
ENCODING 1746
SWIDTH 925 0
DWIDTH 9 0
BBX 9 4 0 -1
BITMAP
0800
1400
E000
FF80
ENDCHAR
STARTCHAR 06D3
ENCODING 1747
SWIDTH 925 0
DWIDTH 9 0
BBX 9 7 0 -1
BITMAP
0800
0800
0000
0800
1400
E000
FF80
ENDCHAR
STARTCHAR 06D4
ENCODING 1748
SWIDTH 308 0
DWIDTH 3 0
BBX 2 1 0 0
BITMAP
C0
ENDCHAR
STARTCHAR 06D5
ENCODING 1749
SWIDTH 514 0
DWIDTH 5 0
BBX 4 5 0 0
BITMAP
20
70
90
90
70
ENDCHAR
STARTCHAR 06D6
ENCODING 1750
SWIDTH 0 0
DWIDTH 0 0
BBX 4 5 -2 5
BITMAP
10
B0
70
80
E0
ENDCHAR
STARTCHAR 06D7
ENCODING 1751
SWIDTH 0 0
DWIDTH 0 0
BBX 5 9 -3 2
BITMAP
30
20
30
38
38
28
70
80
78
ENDCHAR
STARTCHAR 06D8
ENCODING 1752
SWIDTH 0 0
DWIDTH 0 0
BBX 2 3 -1 6
BITMAP
40
C0
C0
ENDCHAR
STARTCHAR 06D9
ENCODING 1753
SWIDTH 0 0
DWIDTH 0 0
BBX 2 3 -1 7
BITMAP
80
C0
C0
ENDCHAR
STARTCHAR 06DA
ENCODING 1754
SWIDTH 0 0
DWIDTH 0 0
BBX 2 6 -1 3
BITMAP
80
40
80
80
80
C0
ENDCHAR
STARTCHAR 06DB
ENCODING 1755
SWIDTH 0 0
DWIDTH 0 0
BBX 2 1 -1 9
BITMAP
C0
ENDCHAR
STARTCHAR 06DC
ENCODING 1756
SWIDTH 0 0
DWIDTH 0 0
BBX 4 3 -2 5
BITMAP
40
F0
C0
ENDCHAR
STARTCHAR 06DD
ENCODING 1757
SWIDTH 1131 0
DWIDTH 11 0
BBX 11 11 0 -2
BITMAP
2080
3F40
60C0
4020
8020
8020
8020
4020
60C0
3F40
2080
ENDCHAR
STARTCHAR 06DE
ENCODING 1758
SWIDTH 1131 0
DWIDTH 11 0
BBX 11 13 0 -3
BITMAP
0400
0A00
3F80
5180
2080
4440
CAA0
4440
2080
5180
3F80
0A00
0400
ENDCHAR
STARTCHAR 06DF
ENCODING 1759
SWIDTH 0 0
DWIDTH 0 0
BBX 2 3 -1 6
BITMAP
C0
C0
C0
ENDCHAR
STARTCHAR 06E0
ENCODING 1760
SWIDTH 0 0
DWIDTH 0 0
BBX 1 3 0 6
BITMAP
80
80
80
ENDCHAR
STARTCHAR 06E1
ENCODING 1761
SWIDTH 0 0
DWIDTH 0 0
BBX 2 3 -1 5
BITMAP
C0
40
80
ENDCHAR
STARTCHAR 06E2
ENCODING 1762
SWIDTH 0 0
DWIDTH 0 0
BBX 2 4 -1 5
BITMAP
40
C0
C0
80
ENDCHAR
STARTCHAR 06E3
ENCODING 1763
SWIDTH 0 0
DWIDTH 0 0
BBX 4 3 -2 -2
BITMAP
40
F0
C0
ENDCHAR
STARTCHAR 06E4
ENCODING 1764
SWIDTH 0 0
DWIDTH 0 0
BBX 2 2 -1 7
BITMAP
80
40
ENDCHAR
STARTCHAR 06E5
ENCODING 1765
SWIDTH 205 0
DWIDTH 2 0
BBX 2 5 0 4
BITMAP
40
C0
40
40
80
ENDCHAR
STARTCHAR 06E6
ENCODING 1766
SWIDTH 411 0
DWIDTH 4 0
BBX 4 3 0 4
BITMAP
20
40
F0
ENDCHAR
STARTCHAR 06E7
ENCODING 1767
SWIDTH 0 0
DWIDTH 0 0
BBX 4 3 -2 4
BITMAP
20
40
F0
ENDCHAR
STARTCHAR 06E8
ENCODING 1768
SWIDTH 0 0
DWIDTH 0 0
BBX 2 1 -1 7
BITMAP
C0
ENDCHAR
STARTCHAR 06E9
ENCODING 1769
SWIDTH 617 0
DWIDTH 6 0
BBX 6 10 0 0
BITMAP
20
30
68
B4
48
78
78
78
78
FC
ENDCHAR
STARTCHAR 06EA
ENCODING 1770
SWIDTH 0 0
DWIDTH 0 0
BBX 2 3 -1 -2
BITMAP
80
C0
80
ENDCHAR
STARTCHAR 06EB
ENCODING 1771
SWIDTH 0 0
DWIDTH 0 0
BBX 2 3 -1 5
BITMAP
80
C0
80
ENDCHAR
STARTCHAR 06EC
ENCODING 1772
SWIDTH 0 0
DWIDTH 0 0
BBX 2 1 -1 6
BITMAP
C0
ENDCHAR
STARTCHAR 06ED
ENCODING 1773
SWIDTH 0 0
DWIDTH 0 0
BBX 2 4 -1 -2
BITMAP
40
C0
C0
80
ENDCHAR
STARTCHAR 06EE
ENCODING 1774
SWIDTH 514 0
DWIDTH 5 0
BBX 4 7 0 0
BITMAP
40
60
00
40
30
10
F0
ENDCHAR
STARTCHAR 06EF
ENCODING 1775
SWIDTH 411 0
DWIDTH 4 0
BBX 4 8 0 -2
BITMAP
20
50
00
20
20
20
20
C0
ENDCHAR
STARTCHAR 06F0
ENCODING 1776
SWIDTH 617 0
DWIDTH 6 0
BBX 2 3 2 2
BITMAP
80
C0
80
ENDCHAR
STARTCHAR 06F1
ENCODING 1777
SWIDTH 617 0
DWIDTH 6 0
BBX 2 7 2 0
BITMAP
80
80
40
40
40
40
40
ENDCHAR
STARTCHAR 06F2
ENCODING 1778
SWIDTH 617 0
DWIDTH 6 0
BBX 4 7 1 0
BITMAP
90
E0
40
40
40
40
40
ENDCHAR
STARTCHAR 06F3
ENCODING 1779
SWIDTH 617 0
DWIDTH 6 0
BBX 6 7 0 0
BITMAP
94
78
40
20
20
20
20
ENDCHAR
STARTCHAR 06F4
ENCODING 1780
SWIDTH 617 0
DWIDTH 6 0
BBX 4 7 1 0
BITMAP
30
A0
F0
40
40
40
40
ENDCHAR
STARTCHAR 06F5
ENCODING 1781
SWIDTH 617 0
DWIDTH 6 0
BBX 5 7 0 0
BITMAP
30
50
48
88
88
A8
78
ENDCHAR
STARTCHAR 06F6
ENCODING 1782
SWIDTH 617 0
DWIDTH 6 0
BBX 4 6 1 0
BITMAP
60
40
70
60
80
80
ENDCHAR
STARTCHAR 06F7
ENCODING 1783
SWIDTH 617 0
DWIDTH 6 0
BBX 5 7 0 0
BITMAP
88
48
48
50
30
30
20
ENDCHAR
STARTCHAR 06F8
ENCODING 1784
SWIDTH 617 0
DWIDTH 6 0
BBX 5 7 0 0
BITMAP
20
30
30
50
48
48
88
ENDCHAR
STARTCHAR 06F9
ENCODING 1785
SWIDTH 617 0
DWIDTH 6 0
BBX 4 7 1 0
BITMAP
E0
90
90
F0
10
10
10
ENDCHAR
STARTCHAR 06FA
ENCODING 1786
SWIDTH 1234 0
DWIDTH 12 0
BBX 12 8 0 -2
BITMAP
0080
0140
0000
0010
8490
8760
4400
7880
ENDCHAR
STARTCHAR 06FB
ENCODING 1787
SWIDTH 1234 0
DWIDTH 12 0
BBX 11 8 0 -2
BITMAP
0080
0000
00C0
0120
8620
87C0
4800
7880
ENDCHAR
STARTCHAR 06FC
ENCODING 1788
SWIDTH 617 0
DWIDTH 6 0
BBX 5 9 0 -2
BITMAP
20
00
70
40
70
40
90
48
78
ENDCHAR
STARTCHAR 06FD
ENCODING 1789
SWIDTH 411 0
DWIDTH 4 0
BBX 2 6 1 -2
BITMAP
C0
80
C0
80
40
40
ENDCHAR
STARTCHAR 06FE
ENCODING 1790
SWIDTH 617 0
DWIDTH 6 0
BBX 5 6 0 -2
BITMAP
38
28
28
58
50
90
ENDCHAR
STARTCHAR 06FF
ENCODING 1791
SWIDTH 720 0
DWIDTH 7 0
BBX 6 9 0 0
BITMAP
20
50
00
30
08
24
54
54
FC
ENDCHAR
STARTCHAR 0750
ENCODING 1872
SWIDTH 822 0
DWIDTH 8 0
BBX 8 5 0 -2
BITMAP
81
43
7E
00
2C
ENDCHAR
STARTCHAR 0751
ENCODING 1873
SWIDTH 822 0
DWIDTH 8 0
BBX 8 8 0 -2
BITMAP
08
18
00
81
43
7E
00
08
ENDCHAR
STARTCHAR 0752
ENCODING 1874
SWIDTH 822 0
DWIDTH 8 0
BBX 8 5 0 -2
BITMAP
81
43
7E
08
18
ENDCHAR
STARTCHAR 0753
ENCODING 1875
SWIDTH 822 0
DWIDTH 8 0
BBX 8 7 0 -2
BITMAP
18
00
81
43
7E
08
18
ENDCHAR
STARTCHAR 0754
ENCODING 1876
SWIDTH 822 0
DWIDTH 8 0
BBX 8 7 0 -2
BITMAP
08
00
81
43
7E
00
18
ENDCHAR
STARTCHAR 0755
ENCODING 1877
SWIDTH 822 0
DWIDTH 8 0
BBX 8 5 0 -2
BITMAP
81
43
7E
08
18
ENDCHAR
STARTCHAR 0756
ENCODING 1878
SWIDTH 822 0
DWIDTH 8 0
BBX 8 6 0 0
BITMAP
18
08
00
81
43
7E
ENDCHAR
STARTCHAR 0757
ENCODING 1879
SWIDTH 617 0
DWIDTH 6 0
BBX 5 8 0 -2
BITMAP
18
00
70
38
40
80
80
78
ENDCHAR
STARTCHAR 0758
ENCODING 1880
SWIDTH 617 0
DWIDTH 6 0
BBX 5 6 0 -2
BITMAP
70
38
50
A8
80
78
ENDCHAR
STARTCHAR 0759
ENCODING 1881
SWIDTH 514 0
DWIDTH 5 0
BBX 4 10 0 -2
BITMAP
40
60
60
00
40
30
10
F0
40
40
ENDCHAR
STARTCHAR 075A
ENCODING 1882
SWIDTH 514 0
DWIDTH 5 0
BBX 4 6 0 -2
BITMAP
40
30
10
F0
40
A0
ENDCHAR
STARTCHAR 075B
ENCODING 1883
SWIDTH 411 0
DWIDTH 4 0
BBX 4 5 0 -2
BITMAP
20
20
20
70
C0
ENDCHAR
STARTCHAR 075C
ENCODING 1884
SWIDTH 1234 0
DWIDTH 12 0
BBX 12 8 0 -2
BITMAP
0300
0300
0000
0010
8490
8760
4400
7800
ENDCHAR
STARTCHAR 075D
ENCODING 1885
SWIDTH 617 0
DWIDTH 6 0
BBX 5 9 0 -2
BITMAP
30
00
70
40
70
40
80
48
78
ENDCHAR
STARTCHAR 075E
ENCODING 1886
SWIDTH 617 0
DWIDTH 6 0
BBX 5 10 0 -2
BITMAP
50
20
00
70
40
70
40
80
48
78
ENDCHAR
STARTCHAR 075F
ENCODING 1887
SWIDTH 617 0
DWIDTH 6 0
BBX 5 10 0 -2
BITMAP
20
20
00
70
40
70
40
80
48
78
ENDCHAR
STARTCHAR 0760
ENCODING 1888
SWIDTH 925 0
DWIDTH 9 0
BBX 8 7 0 -2
BITMAP
07
05
87
41
7E
00
05
ENDCHAR
STARTCHAR 0761
ENCODING 1889
SWIDTH 925 0
DWIDTH 9 0
BBX 8 7 0 -2
BITMAP
07
05
87
41
7E
02
05
ENDCHAR
STARTCHAR 0762
ENCODING 1890
SWIDTH 925 0
DWIDTH 9 0
BBX 9 8 0 0
BITMAP
0400
0180
0600
0C00
0200
8100
4100
3E00
ENDCHAR
STARTCHAR 0763
ENCODING 1891
SWIDTH 925 0
DWIDTH 9 0
BBX 9 9 0 0
BITMAP
0400
0A00
0180
0600
0C00
0200
8100
4100
3E00
ENDCHAR
STARTCHAR 0764
ENCODING 1892
SWIDTH 925 0
DWIDTH 9 0
BBX 9 9 0 -2
BITMAP
0180
0600
0C00
0200
8100
4100
3E00
0800
0C00
ENDCHAR
STARTCHAR 0765
ENCODING 1893
SWIDTH 617 0
DWIDTH 6 0
BBX 6 8 -1 -2
BITMAP
08
00
1C
14
14
3C
40
80
ENDCHAR
STARTCHAR 0766
ENCODING 1894
SWIDTH 617 0
DWIDTH 6 0
BBX 6 6 -1 -2
BITMAP
1C
14
14
3C
40
88
ENDCHAR
STARTCHAR 0767
ENCODING 1895
SWIDTH 720 0
DWIDTH 7 0
BBX 6 8 0 -2
BITMAP
10
00
84
84
44
78
00
30
ENDCHAR
STARTCHAR 0768
ENCODING 1896
SWIDTH 720 0
DWIDTH 7 0
BBX 6 7 0 1
BITMAP
18
38
00
94
84
44
78
ENDCHAR
STARTCHAR 0769
ENCODING 1897
SWIDTH 720 0
DWIDTH 7 0
BBX 6 7 0 0
BITMAP
20
10
00
94
84
44
78
ENDCHAR
STARTCHAR 076A
ENCODING 1898
SWIDTH 617 0
DWIDTH 6 0
BBX 7 7 0 0
BITMAP
04
0E
04
04
84
84
78
ENDCHAR
STARTCHAR 076B
ENCODING 1899
SWIDTH 411 0
DWIDTH 4 0
BBX 3 9 0 -2
BITMAP
40
00
40
00
20
20
20
20
C0
ENDCHAR
STARTCHAR 076C
ENCODING 1900
SWIDTH 411 0
DWIDTH 4 0
BBX 3 8 0 -2
BITMAP
60
60
00
20
20
20
20
C0
ENDCHAR
STARTCHAR 076D
ENCODING 1901
SWIDTH 1234 0
DWIDTH 12 0
BBX 12 9 0 -2
BITMAP
0200
0000
0200
0000
0010
8490
8760
4400
7800
ENDCHAR
STARTCHAR 076E
ENCODING 1902
SWIDTH 617 0
DWIDTH 6 0
BBX 5 6 0 -2
BITMAP
70
38
58
90
80
78
ENDCHAR
STARTCHAR 076F
ENCODING 1903
SWIDTH 617 0
DWIDTH 6 0
BBX 5 6 0 -1
BITMAP
70
38
50
80
A8
78
ENDCHAR
STARTCHAR 0770
ENCODING 1904
SWIDTH 1234 0
DWIDTH 12 0
BBX 12 10 0 -1
BITMAP
00C0
00C0
0080
0140
0000
0010
8490
8760
4400
7800
ENDCHAR
STARTCHAR 0771
ENCODING 1905
SWIDTH 411 0
DWIDTH 4 0
BBX 3 10 0 -1
BITMAP
20
60
60
60
00
20
20
20
20
C0
ENDCHAR
STARTCHAR 0772
ENCODING 1906
SWIDTH 617 0
DWIDTH 6 0
BBX 5 9 0 -1
BITMAP
18
38
00
70
38
40
80
80
78
ENDCHAR
STARTCHAR 0773
ENCODING 1907
SWIDTH 205 0
DWIDTH 2 0
BBX 2 9 0 1
BITMAP
80
00
40
40
40
40
40
40
40
ENDCHAR
STARTCHAR 0774
ENCODING 1908
SWIDTH 205 0
DWIDTH 2 0
BBX 2 9 0 1
BITMAP
80
00
40
40
40
40
40
40
40
ENDCHAR
STARTCHAR 0775
ENCODING 1909
SWIDTH 925 0
DWIDTH 9 0
BBX 8 6 0 1
BITMAP
10
03
0C
86
81
7E
ENDCHAR
STARTCHAR 0776
ENCODING 1910
SWIDTH 925 0
DWIDTH 9 0
BBX 8 8 0 0
BITMAP
30
10
00
03
0C
86
81
7E
ENDCHAR
STARTCHAR 0777
ENCODING 1911
SWIDTH 925 0
DWIDTH 9 0
BBX 8 6 0 -2
BITMAP
03
0C
86
81
7E
08
ENDCHAR
STARTCHAR 0778
ENCODING 1912
SWIDTH 411 0
DWIDTH 4 0
BBX 4 8 0 -1
BITMAP
80
80
60
90
70
10
20
E0
ENDCHAR
STARTCHAR 0779
ENCODING 1913
SWIDTH 411 0
DWIDTH 4 0
BBX 4 8 0 -1
BITMAP
80
80
60
90
70
10
20
E0
ENDCHAR
STARTCHAR 077A
ENCODING 1914
SWIDTH 925 0
DWIDTH 9 0
BBX 9 5 0 0
BITMAP
2000
2800
1400
E000
FF80
ENDCHAR
STARTCHAR 077B
ENCODING 1915
SWIDTH 925 0
DWIDTH 9 0
BBX 9 5 0 0
BITMAP
2000
0800
1400
E000
FF80
ENDCHAR
STARTCHAR 077C
ENCODING 1916
SWIDTH 617 0
DWIDTH 6 0
BBX 5 6 0 -2
BITMAP
70
38
50
90
80
78
ENDCHAR
STARTCHAR 077D
ENCODING 1917
SWIDTH 1234 0
DWIDTH 12 0
BBX 12 9 0 -2
BITMAP
0080
0080
0000
0000
0010
8490
8760
4400
7800
ENDCHAR
STARTCHAR 077E
ENCODING 1918
SWIDTH 1234 0
DWIDTH 12 0
BBX 12 7 0 -2
BITMAP
0080
0140
0010
8490
8760
4400
7800
ENDCHAR
STARTCHAR 077F
ENCODING 1919
SWIDTH 720 0
DWIDTH 7 0
BBX 7 7 0 0
BITMAP
1A
12
12
12
02
82
7C
ENDCHAR
STARTCHAR 0783
ENCODING 1923
SWIDTH 617 0
DWIDTH 6 0
BBX 6 5 0 0
BITMAP
04
38
38
60
80
ENDCHAR
STARTCHAR 08A0
ENCODING 2208
SWIDTH 822 0
DWIDTH 8 0
BBX 8 5 0 -2
BITMAP
81
43
7E
18
08
ENDCHAR
STARTCHAR 08A1
ENCODING 2209
SWIDTH 822 0
DWIDTH 8 0
BBX 8 7 0 -2
BITMAP
18
18
81
43
7E
00
08
ENDCHAR
STARTCHAR 08A2
ENCODING 2210
SWIDTH 617 0
DWIDTH 6 0
BBX 5 8 0 -2
BITMAP
18
00
70
38
40
90
80
78
ENDCHAR
STARTCHAR 08A3
ENCODING 2211
SWIDTH 720 0
DWIDTH 7 0
BBX 6 7 0 0
BITMAP
40
68
40
5C
64
44
FC
ENDCHAR
STARTCHAR 08A4
ENCODING 2212
SWIDTH 925 0
DWIDTH 9 0
BBX 8 10 0 -2
BITMAP
04
06
00
07
05
87
41
7E
00
02
ENDCHAR
STARTCHAR 08A5
ENCODING 2213
SWIDTH 925 0
DWIDTH 9 0
BBX 8 9 0 -2
BITMAP
06
00
07
05
07
81
43
7C
08
ENDCHAR
STARTCHAR 08A6
ENCODING 2214
SWIDTH 617 0
DWIDTH 6 0
BBX 7 7 0 0
BITMAP
04
0E
04
0E
84
84
78
ENDCHAR
STARTCHAR 08A7
ENCODING 2215
SWIDTH 617 0
DWIDTH 6 0
BBX 6 9 -1 -2
BITMAP
08
14
00
1C
14
14
3C
40
80
ENDCHAR
STARTCHAR 08A8
ENCODING 2216
SWIDTH 925 0
DWIDTH 9 0
BBX 8 9 0 -1
BITMAP
0C
0C
00
03
0C
86
81
7E
28
ENDCHAR
STARTCHAR 08A9
ENCODING 2217
SWIDTH 925 0
DWIDTH 9 0
BBX 8 8 0 -1
BITMAP
08
00
03
0C
86
81
7E
28
ENDCHAR
STARTCHAR 08AA
ENCODING 2218
SWIDTH 514 0
DWIDTH 5 0
BBX 5 5 0 -2
BITMAP
10
10
F0
90
E8
ENDCHAR
STARTCHAR 08AB
ENCODING 2219
SWIDTH 411 0
DWIDTH 4 0
BBX 4 6 0 -2
BITMAP
60
90
70
10
A0
E0
ENDCHAR
STARTCHAR 08AC
ENCODING 2220
SWIDTH 617 0
DWIDTH 6 0
BBX 6 6 0 -2
BITMAP
18
28
28
7C
80
58
ENDCHAR
STARTCHAR 08AD
ENCODING 2221
SWIDTH 205 0
DWIDTH 2 0
BBX 1 2 0 -1
BITMAP
80
80
ENDCHAR
STARTCHAR 08AE
ENCODING 2222
SWIDTH 514 0
DWIDTH 5 0
BBX 4 6 0 -2
BITMAP
40
30
10
F0
60
40
ENDCHAR
STARTCHAR 08AF
ENCODING 2223
SWIDTH 1234 0
DWIDTH 12 0
BBX 11 6 0 -2
BITMAP
00C0
0120
8620
87C0
4A80
7900
ENDCHAR
STARTCHAR 08B0
ENCODING 2224
SWIDTH 925 0
DWIDTH 9 0
BBX 9 7 0 0
BITMAP
0080
0700
0880
8700
8100
4100
3F00
ENDCHAR
STARTCHAR 08B1
ENCODING 2225
SWIDTH 514 0
DWIDTH 5 0
BBX 4 7 0 -2
BITMAP
60
A0
90
70
10
10
20
ENDCHAR
STARTCHAR 08B2
ENCODING 2226
SWIDTH 411 0
DWIDTH 4 0
BBX 3 8 0 -2
BITMAP
20
60
00
20
20
20
20
C0
ENDCHAR
STARTCHAR 08B3
ENCODING 2227
SWIDTH 617 0
DWIDTH 6 0
BBX 5 7 0 -2
BITMAP
70
40
70
40
A8
58
78
ENDCHAR
STARTCHAR 08B4
ENCODING 2228
SWIDTH 720 0
DWIDTH 7 0
BBX 7 9 0 -2
BITMAP
02
12
12
12
02
82
7C
00
10
ENDCHAR
STARTCHAR 08B6
ENCODING 2230
SWIDTH 822 0
DWIDTH 8 0
BBX 8 10 0 -2
BITMAP
08
14
18
10
00
81
43
7E
00
08
ENDCHAR
STARTCHAR 08B7
ENCODING 2231
SWIDTH 822 0
DWIDTH 8 0
BBX 8 10 0 -2
BITMAP
08
14
18
10
00
81
43
7E
18
10
ENDCHAR
STARTCHAR 08B8
ENCODING 2232
SWIDTH 822 0
DWIDTH 8 0
BBX 8 4 0 0
BITMAP
18
A5
5B
7E
ENDCHAR
STARTCHAR 08B9
ENCODING 2233
SWIDTH 411 0
DWIDTH 4 0
BBX 3 6 0 0
BITMAP
60
20
20
20
20
C0
ENDCHAR
STARTCHAR 08BA
ENCODING 2234
SWIDTH 925 0
DWIDTH 9 0
BBX 8 9 0 -1
BITMAP
10
28
10
03
0C
86
81
7E
28
ENDCHAR
STARTCHAR 08BB
ENCODING 2235
SWIDTH 925 0
DWIDTH 9 0
BBX 8 5 0 0
BITMAP
07
05
87
41
7E
ENDCHAR
STARTCHAR 08BC
ENCODING 2236
SWIDTH 925 0
DWIDTH 9 0
BBX 8 7 0 -1
BITMAP
03
05
05
87
81
42
3C
ENDCHAR
STARTCHAR 08BD
ENCODING 2237
SWIDTH 720 0
DWIDTH 7 0
BBX 6 4 0 0
BITMAP
84
84
44
78
ENDCHAR
STARTCHAR 08D4
ENCODING 2260
SWIDTH 0 0
DWIDTH 0 0
BBX 6 6 -3 -1
BITMAP
C4
84
F4
98
D0
20
ENDCHAR
STARTCHAR 08D5
ENCODING 2261
SWIDTH 0 0
DWIDTH 0 0
BBX 4 5 -2 -1
BITMAP
10
70
F0
C0
80
ENDCHAR
STARTCHAR 08D6
ENCODING 2262
SWIDTH 0 0
DWIDTH 0 0
BBX 2 5 -1 -1
BITMAP
80
80
C0
80
C0
ENDCHAR
STARTCHAR 08D7
ENCODING 2263
SWIDTH 0 0
DWIDTH 0 0
BBX 4 7 -2 -1
BITMAP
40
00
20
30
B0
90
60
ENDCHAR
STARTCHAR 08D8
ENCODING 2264
SWIDTH 0 0
DWIDTH 0 0
BBX 2 2 -1 2
BITMAP
C0
C0
ENDCHAR
STARTCHAR 08D9
ENCODING 2265
SWIDTH 0 0
DWIDTH 0 0
BBX 2 2 -1 -1
BITMAP
C0
C0
ENDCHAR
STARTCHAR 08DA
ENCODING 2266
SWIDTH 0 0
DWIDTH 0 0
BBX 8 6 -4 0
BITMAP
10
A4
00
0B
CF
FE
ENDCHAR
STARTCHAR 08DB
ENCODING 2267
SWIDTH 0 0
DWIDTH 0 0
BBX 12 8 -6 -2
BITMAP
8000
0000
C000
E830
24F0
7FE0
0000
0800
ENDCHAR
STARTCHAR 08DC
ENCODING 2268
SWIDTH 0 0
DWIDTH 0 0
BBX 12 4 -6 0
BITMAP
1010
0030
9330
7FD0
ENDCHAR
STARTCHAR 08DD
ENCODING 2269
SWIDTH 0 0
DWIDTH 0 0
BBX 10 4 -5 1
BITMAP
2400
1800
5640
BFC0
ENDCHAR
STARTCHAR 08DE
ENCODING 2270
SWIDTH 0 0
DWIDTH 0 0
BBX 6 5 -3 0
BITMAP
04
00
0C
3C
FC
ENDCHAR
STARTCHAR 08DF
ENCODING 2271
SWIDTH 0 0
DWIDTH 0 0
BBX 8 7 -4 -2
BITMAP
04
00
C5
3F
FD
01
03
ENDCHAR
STARTCHAR 08E0
ENCODING 2272
SWIDTH 0 0
DWIDTH 0 0
BBX 4 3 -2 0
BITMAP
C0
C0
70
ENDCHAR
STARTCHAR 08E1
ENCODING 2273
SWIDTH 0 0
DWIDTH 0 0
BBX 4 3 -2 0
BITMAP
10
70
F0
ENDCHAR
STARTCHAR 08E2
ENCODING 2274
SWIDTH 822 0
DWIDTH 8 0
BBX 4 5 2 1
BITMAP
60
A0
90
90
E0
ENDCHAR
STARTCHAR 08E3
ENCODING 2275
SWIDTH 0 0
DWIDTH 0 0
BBX 2 3 -1 -3
BITMAP
C0
80
80
ENDCHAR
STARTCHAR 08E4
ENCODING 2276
SWIDTH 0 0
DWIDTH 0 0
BBX 2 1 -1 0
BITMAP
C0
ENDCHAR
STARTCHAR 08E5
ENCODING 2277
SWIDTH 0 0
DWIDTH 0 0
BBX 2 4 -1 -1
BITMAP
40
C0
40
80
ENDCHAR
STARTCHAR 08E6
ENCODING 2278
SWIDTH 0 0
DWIDTH 0 0
BBX 2 1 -1 -1
BITMAP
C0
ENDCHAR
STARTCHAR 08E7
ENCODING 2279
SWIDTH 0 0
DWIDTH 0 0
BBX 3 4 -2 -1
BITMAP
20
60
80
60
ENDCHAR
STARTCHAR 08E8
ENCODING 2280
SWIDTH 0 0
DWIDTH 0 0
BBX 3 4 -2 -1
BITMAP
40
E0
E0
40
ENDCHAR
STARTCHAR 08E9
ENCODING 2281
SWIDTH 0 0
DWIDTH 0 0
BBX 3 4 -1 -2
BITMAP
C0
20
C0
80
ENDCHAR
STARTCHAR 08EA
ENCODING 2282
SWIDTH 0 0
DWIDTH 0 0
BBX 1 1 -1 0
BITMAP
80
ENDCHAR
STARTCHAR 08EB
ENCODING 2283
SWIDTH 0 0
DWIDTH 0 0
BBX 2 1 -1 0
BITMAP
C0
ENDCHAR
STARTCHAR 08EC
ENCODING 2284
SWIDTH 0 0
DWIDTH 0 0
BBX 2 3 -1 -1
BITMAP
C0
C0
C0
ENDCHAR
STARTCHAR 08ED
ENCODING 2285
SWIDTH 0 0
DWIDTH 0 0
BBX 1 1 -1 -1
BITMAP
80
ENDCHAR
STARTCHAR 08EE
ENCODING 2286
SWIDTH 0 0
DWIDTH 0 0
BBX 2 1 -1 -1
BITMAP
C0
ENDCHAR
STARTCHAR 08EF
ENCODING 2287
SWIDTH 0 0
DWIDTH 0 0
BBX 2 3 -1 -2
BITMAP
C0
C0
C0
ENDCHAR
STARTCHAR 08F0
ENCODING 2288
SWIDTH 0 0
DWIDTH 0 0
BBX 4 5 -2 -1
BITMAP
10
60
00
60
80
ENDCHAR
STARTCHAR 08F1
ENCODING 2289
SWIDTH 0 0
DWIDTH 0 0
BBX 3 3 -1 -1
BITMAP
A0
E0
C0
ENDCHAR
STARTCHAR 08F2
ENCODING 2290
SWIDTH 0 0
DWIDTH 0 0
BBX 4 5 -2 -3
BITMAP
10
60
00
60
80
ENDCHAR
STARTCHAR 08F3
ENCODING 2291
SWIDTH 0 0
DWIDTH 0 0
BBX 2 5 -1 -1
BITMAP
40
C0
40
40
80
ENDCHAR
STARTCHAR 08F4
ENCODING 2292
SWIDTH 0 0
DWIDTH 0 0
BBX 2 4 -1 -1
BITMAP
C0
C0
C0
C0
ENDCHAR
STARTCHAR 08F5
ENCODING 2293
SWIDTH 0 0
DWIDTH 0 0
BBX 2 2 -1 0
BITMAP
40
80
ENDCHAR
STARTCHAR 08F6
ENCODING 2294
SWIDTH 0 0
DWIDTH 0 0
BBX 2 2 -1 -2
BITMAP
40
80
ENDCHAR
STARTCHAR 08F7
ENCODING 2295
SWIDTH 0 0
DWIDTH 0 0
BBX 2 3 -1 0
BITMAP
40
80
40
ENDCHAR
STARTCHAR 08F8
ENCODING 2296
SWIDTH 0 0
DWIDTH 0 0
BBX 2 3 -1 -1
BITMAP
80
40
80
ENDCHAR
STARTCHAR 08F9
ENCODING 2297
SWIDTH 0 0
DWIDTH 0 0
BBX 2 3 -1 -2
BITMAP
40
80
40
ENDCHAR
STARTCHAR 08FA
ENCODING 2298
SWIDTH 0 0
DWIDTH 0 0
BBX 2 3 -1 -3
BITMAP
80
40
80
ENDCHAR
STARTCHAR 08FB
ENCODING 2299
SWIDTH 0 0
DWIDTH 0 0
BBX 2 3 -1 -1
BITMAP
C0
C0
C0
ENDCHAR
STARTCHAR 08FC
ENCODING 2300
SWIDTH 0 0
DWIDTH 0 0
BBX 2 3 -1 -1
BITMAP
C0
40
C0
ENDCHAR
STARTCHAR 08FD
ENCODING 2301
SWIDTH 0 0
DWIDTH 0 0
BBX 2 5 -1 -2
BITMAP
80
80
40
80
80
ENDCHAR
STARTCHAR 08FE
ENCODING 2302
SWIDTH 0 0
DWIDTH 0 0
BBX 2 2 -1 0
BITMAP
C0
C0
ENDCHAR
STARTCHAR 08FF
ENCODING 2303
SWIDTH 0 0
DWIDTH 0 0
BBX 2 3 -1 0
BITMAP
C0
40
C0
ENDCHAR
STARTCHAR 09F2
ENCODING 2546
SWIDTH 411 0
DWIDTH 4 0
BBX 4 4 0 0
BITMAP
C0
20
10
10
ENDCHAR
STARTCHAR 09F3
ENCODING 2547
SWIDTH 720 0
DWIDTH 7 0
BBX 7 8 0 0
BITMAP
60
A0
7E
20
2C
2A
22
1C
ENDCHAR
STARTCHAR 0AF1
ENCODING 2801
SWIDTH 925 0
DWIDTH 9 0
BBX 9 9 0 -2
BITMAP
F000
9000
1000
2300
1C80
1C80
F300
2000
3000
ENDCHAR
STARTCHAR 0BF9
ENCODING 3065
SWIDTH 1131 0
DWIDTH 11 0
BBX 11 13 0 -2
BITMAP
0E00
1200
1D00
3500
4F80
4000
8780
8900
89C0
4960
4960
3040
0F80
ENDCHAR
STARTCHAR 0E01
ENCODING 3585
SWIDTH 617 0
DWIDTH 6 0
BBX 4 5 1 0
BITMAP
70
90
D0
90
90
ENDCHAR
STARTCHAR 0E02
ENCODING 3586
SWIDTH 617 0
DWIDTH 6 0
BBX 5 5 0 0
BITMAP
68
D8
28
28
78
ENDCHAR
STARTCHAR 0E03
ENCODING 3587
SWIDTH 720 0
DWIDTH 7 0
BBX 6 5 0 0
BITMAP
54
F4
24
24
3C
ENDCHAR
STARTCHAR 0E04
ENCODING 3588
SWIDTH 617 0
DWIDTH 6 0
BBX 4 5 1 0
BITMAP
F0
90
F0
90
90
ENDCHAR
STARTCHAR 0E05
ENCODING 3589
SWIDTH 617 0
DWIDTH 6 0
BBX 4 5 1 0
BITMAP
F0
D0
90
F0
90
ENDCHAR
STARTCHAR 0E06
ENCODING 3590
SWIDTH 720 0
DWIDTH 7 0
BBX 6 5 0 0
BITMAP
54
F4
24
34
6C
ENDCHAR
STARTCHAR 0E07
ENCODING 3591
SWIDTH 514 0
DWIDTH 5 0
BBX 4 5 0 0
BITMAP
30
10
90
50
30
ENDCHAR
STARTCHAR 0E08
ENCODING 3592
SWIDTH 617 0
DWIDTH 6 0
BBX 5 5 0 0
BITMAP
F0
08
68
18
08
ENDCHAR
STARTCHAR 0E09
ENCODING 3593
SWIDTH 617 0
DWIDTH 6 0
BBX 6 5 0 0
BITMAP
78
08
C8
38
2C
ENDCHAR
STARTCHAR 0E0A
ENCODING 3594
SWIDTH 617 0
DWIDTH 6 0
BBX 6 6 0 0
BITMAP
04
68
D4
24
24
7C
ENDCHAR
STARTCHAR 0E0B
ENCODING 3595
SWIDTH 720 0
DWIDTH 7 0
BBX 7 6 0 0
BITMAP
02
54
F4
14
14
3C
ENDCHAR
STARTCHAR 0E0C
ENCODING 3596
SWIDTH 925 0
DWIDTH 9 0
BBX 7 5 1 0
BITMAP
72
92
D2
92
FE
ENDCHAR
STARTCHAR 0E0D
ENCODING 3597
SWIDTH 822 0
DWIDTH 8 0
BBX 7 7 1 -2
BITMAP
E2
92
92
92
DE
1A
1C
ENDCHAR
STARTCHAR 0E0E
ENCODING 3598
SWIDTH 617 0
DWIDTH 6 0
BBX 5 7 0 -2
BITMAP
38
48
68
28
E8
08
38
ENDCHAR
STARTCHAR 0E0F
ENCODING 3599
SWIDTH 617 0
DWIDTH 6 0
BBX 5 7 0 -2
BITMAP
38
48
68
28
C8
08
78
ENDCHAR
STARTCHAR 0E10
ENCODING 3600
SWIDTH 617 0
DWIDTH 6 0
BBX 4 7 1 -2
BITMAP
F0
E0
10
D0
30
D0
F0
ENDCHAR
STARTCHAR 0E11
ENCODING 3601
SWIDTH 822 0
DWIDTH 8 0
BBX 7 5 0 0
BITMAP
56
FA
1A
12
12
ENDCHAR
STARTCHAR 0E12
ENCODING 3602
SWIDTH 925 0
DWIDTH 9 0
BBX 7 5 1 0
BITMAP
F2
D2
92
FA
D6
ENDCHAR
STARTCHAR 0E13
ENCODING 3603
SWIDTH 925 0
DWIDTH 9 0
BBX 7 5 1 0
BITMAP
F4
94
D4
94
DE
ENDCHAR
STARTCHAR 0E14
ENCODING 3604
SWIDTH 617 0
DWIDTH 6 0
BBX 4 5 1 0
BITMAP
F0
90
F0
F0
D0
ENDCHAR
STARTCHAR 0E15
ENCODING 3605
SWIDTH 617 0
DWIDTH 6 0
BBX 4 5 1 0
BITMAP
F0
D0
90
F0
D0
ENDCHAR
STARTCHAR 0E16
ENCODING 3606
SWIDTH 617 0
DWIDTH 6 0
BBX 4 5 1 0
BITMAP
E0
90
D0
90
D0
ENDCHAR
STARTCHAR 0E17
ENCODING 3607
SWIDTH 720 0
DWIDTH 7 0
BBX 6 5 0 0
BITMAP
CC
2C
34
34
24
ENDCHAR
STARTCHAR 0E18
ENCODING 3608
SWIDTH 514 0
DWIDTH 5 0
BBX 5 5 0 0
BITMAP
78
80
F0
48
78
ENDCHAR
STARTCHAR 0E19
ENCODING 3609
SWIDTH 617 0
DWIDTH 6 0
BBX 6 5 0 0
BITMAP
C8
28
28
38
2C
ENDCHAR
STARTCHAR 0E1A
ENCODING 3610
SWIDTH 617 0
DWIDTH 6 0
BBX 5 5 0 0
BITMAP
C8
28
28
28
78
ENDCHAR
STARTCHAR 0E1B
ENCODING 3611
SWIDTH 617 0
DWIDTH 6 0
BBX 5 8 0 0
BITMAP
08
08
08
C8
28
28
28
78
ENDCHAR
STARTCHAR 0E1C
ENCODING 3612
SWIDTH 617 0
DWIDTH 6 0
BBX 5 5 1 0
BITMAP
C8
88
A8
E8
98
ENDCHAR
STARTCHAR 0E1D
ENCODING 3613
SWIDTH 617 0
DWIDTH 6 0
BBX 5 8 1 0
BITMAP
08
08
08
C8
88
A8
E8
98
ENDCHAR
STARTCHAR 0E1E
ENCODING 3614
SWIDTH 720 0
DWIDTH 7 0
BBX 6 5 0 0
BITMAP
D4
3C
3C
24
24
ENDCHAR
STARTCHAR 0E1F
ENCODING 3615
SWIDTH 720 0
DWIDTH 7 0
BBX 6 8 0 0
BITMAP
04
04
04
D4
3C
3C
24
24
ENDCHAR
STARTCHAR 0E20
ENCODING 3616
SWIDTH 617 0
DWIDTH 6 0
BBX 5 5 0 0
BITMAP
38
48
68
28
E8
ENDCHAR
STARTCHAR 0E21
ENCODING 3617
SWIDTH 617 0
DWIDTH 6 0
BBX 5 5 0 0
BITMAP
C8
28
28
78
48
ENDCHAR
STARTCHAR 0E22
ENCODING 3618
SWIDTH 617 0
DWIDTH 6 0
BBX 4 5 1 0
BITMAP
D0
90
90
90
F0
ENDCHAR
STARTCHAR 0E23
ENCODING 3619
SWIDTH 411 0
DWIDTH 4 0
BBX 4 5 0 0
BITMAP
70
80
E0
20
60
ENDCHAR
STARTCHAR 0E24
ENCODING 3620
SWIDTH 617 0
DWIDTH 6 0
BBX 4 6 1 -1
BITMAP
E0
90
90
90
D0
10
ENDCHAR
STARTCHAR 0E25
ENCODING 3621
SWIDTH 617 0
DWIDTH 6 0
BBX 4 5 1 0
BITMAP
F0
10
D0
B0
D0
ENDCHAR
STARTCHAR 0E26
ENCODING 3622
SWIDTH 617 0
DWIDTH 6 0
BBX 5 6 0 -1
BITMAP
38
48
68
28
E8
08
ENDCHAR
STARTCHAR 0E27
ENCODING 3623
SWIDTH 514 0
DWIDTH 5 0
BBX 4 5 0 0
BITMAP
70
90
10
10
30
ENDCHAR
STARTCHAR 0E28
ENCODING 3624
SWIDTH 617 0
DWIDTH 6 0
BBX 5 6 1 0
BITMAP
08
F0
B0
F0
90
90
ENDCHAR
STARTCHAR 0E29
ENCODING 3625
SWIDTH 720 0
DWIDTH 7 0
BBX 7 5 0 0
BITMAP
C4
3E
3C
24
7C
ENDCHAR
STARTCHAR 0E2A
ENCODING 3626
SWIDTH 617 0
DWIDTH 6 0
BBX 5 6 1 0
BITMAP
08
F0
30
D0
B0
D0
ENDCHAR
STARTCHAR 0E2B
ENCODING 3627
SWIDTH 720 0
DWIDTH 7 0
BBX 6 5 0 0
BITMAP
CC
2C
34
24
24
ENDCHAR
STARTCHAR 0E2C
ENCODING 3628
SWIDTH 720 0
DWIDTH 7 0
BBX 6 8 0 0
BITMAP
0C
04
04
D4
3C
3C
24
24
ENDCHAR
STARTCHAR 0E2D
ENCODING 3629
SWIDTH 617 0
DWIDTH 6 0
BBX 4 5 1 0
BITMAP
E0
10
D0
90
F0
ENDCHAR
STARTCHAR 0E2E
ENCODING 3630
SWIDTH 617 0
DWIDTH 6 0
BBX 4 6 1 0
BITMAP
10
F0
F0
D0
90
F0
ENDCHAR
STARTCHAR 0E2F
ENCODING 3631
SWIDTH 514 0
DWIDTH 5 0
BBX 4 5 0 0
BITMAP
D0
70
10
10
10
ENDCHAR
STARTCHAR 0E30
ENCODING 3632
SWIDTH 411 0
DWIDTH 4 0
BBX 3 5 1 0
BITMAP
A0
C0
00
A0
C0
ENDCHAR
STARTCHAR 0E31
ENCODING 3633
SWIDTH 0 0
DWIDTH 0 0
BBX 4 2 -3 6
BITMAP
90
E0
ENDCHAR
STARTCHAR 0E32
ENCODING 3634
SWIDTH 514 0
DWIDTH 5 0
BBX 4 5 0 0
BITMAP
F0
10
10
10
10
ENDCHAR
STARTCHAR 0E33
ENCODING 3635
SWIDTH 514 0
DWIDTH 5 0
BBX 6 7 -2 0
BITMAP
80
00
3C
04
04
04
04
ENDCHAR
STARTCHAR 0E34
ENCODING 3636
SWIDTH 0 0
DWIDTH 0 0
BBX 4 2 -5 6
BITMAP
60
F0
ENDCHAR
STARTCHAR 0E35
ENCODING 3637
SWIDTH 0 0
DWIDTH 0 0
BBX 4 2 -5 6
BITMAP
70
F0
ENDCHAR
STARTCHAR 0E36
ENCODING 3638
SWIDTH 0 0
DWIDTH 0 0
BBX 4 2 -5 6
BITMAP
70
F0
ENDCHAR
STARTCHAR 0E37
ENCODING 3639
SWIDTH 0 0
DWIDTH 0 0
BBX 4 2 -5 6
BITMAP
70
F0
ENDCHAR
STARTCHAR 0E38
ENCODING 3640
SWIDTH 0 0
DWIDTH 0 0
BBX 1 2 -2 -2
BITMAP
80
80
ENDCHAR
STARTCHAR 0E39
ENCODING 3641
SWIDTH 0 0
DWIDTH 0 0
BBX 3 2 -4 -2
BITMAP
E0
60
ENDCHAR
STARTCHAR 0E3A
ENCODING 3642
SWIDTH 0 0
DWIDTH 0 0
BBX 1 1 -2 -2
BITMAP
80
ENDCHAR
STARTCHAR 0E3F
ENCODING 3647
SWIDTH 617 0
DWIDTH 6 0
BBX 5 9 1 -1
BITMAP
40
F0
D0
D0
F0
C8
C8
F0
40
ENDCHAR
STARTCHAR 0E40
ENCODING 3648
SWIDTH 308 0
DWIDTH 3 0
BBX 2 5 1 0
BITMAP
80
80
80
80
C0
ENDCHAR
STARTCHAR 0E41
ENCODING 3649
SWIDTH 617 0
DWIDTH 6 0
BBX 5 5 1 0
BITMAP
A0
A0
A0
A0
D8
ENDCHAR
STARTCHAR 0E42
ENCODING 3650
SWIDTH 514 0
DWIDTH 5 0
BBX 5 8 0 0
BITMAP
70
80
E0
20
20
20
20
18
ENDCHAR
STARTCHAR 0E43
ENCODING 3651
SWIDTH 411 0
DWIDTH 4 0
BBX 4 8 0 0
BITMAP
60
D0
20
20
20
20
20
30
ENDCHAR
STARTCHAR 0E44
ENCODING 3652
SWIDTH 514 0
DWIDTH 5 0
BBX 5 8 0 0
BITMAP
A0
50
50
10
10
10
10
18
ENDCHAR
STARTCHAR 0E45
ENCODING 3653
SWIDTH 514 0
DWIDTH 5 0
BBX 4 6 0 -1
BITMAP
F0
10
10
10
10
10
ENDCHAR
STARTCHAR 0E46
ENCODING 3654
SWIDTH 514 0
DWIDTH 5 0
BBX 4 6 0 -1
BITMAP
50
F0
50
10
10
10
ENDCHAR
STARTCHAR 0E47
ENCODING 3655
SWIDTH 0 0
DWIDTH 0 0
BBX 3 3 -4 6
BITMAP
20
E0
E0
ENDCHAR
STARTCHAR 0E48
ENCODING 3656
SWIDTH 0 0
DWIDTH 0 0
BBX 1 2 -2 6
BITMAP
80
80
ENDCHAR
STARTCHAR 0E49
ENCODING 3657
SWIDTH 0 0
DWIDTH 0 0
BBX 3 2 -4 6
BITMAP
A0
40
ENDCHAR
STARTCHAR 0E4A
ENCODING 3658
SWIDTH 0 0
DWIDTH 0 0
BBX 3 2 -3 6
BITMAP
E0
A0
ENDCHAR
STARTCHAR 0E4B
ENCODING 3659
SWIDTH 0 0
DWIDTH 0 0
BBX 2 3 -2 6
BITMAP
80
C0
80
ENDCHAR
STARTCHAR 0E4C
ENCODING 3660
SWIDTH 0 0
DWIDTH 0 0
BBX 2 2 -2 6
BITMAP
C0
80
ENDCHAR
STARTCHAR 0E4D
ENCODING 3661
SWIDTH 0 0
DWIDTH 0 0
BBX 1 1 -2 6
BITMAP
80
ENDCHAR
STARTCHAR 0E4E
ENCODING 3662
SWIDTH 0 0
DWIDTH 0 0
BBX 3 3 -3 7
BITMAP
60
40
C0
ENDCHAR
STARTCHAR 0E4F
ENCODING 3663
SWIDTH 617 0
DWIDTH 6 0
BBX 4 5 1 0
BITMAP
60
90
F0
90
60
ENDCHAR
STARTCHAR 0E50
ENCODING 3664
SWIDTH 617 0
DWIDTH 6 0
BBX 4 5 1 0
BITMAP
F0
90
90
90
F0
ENDCHAR
STARTCHAR 0E51
ENCODING 3665
SWIDTH 617 0
DWIDTH 6 0
BBX 5 5 1 0
BITMAP
70
90
E8
A8
F0
ENDCHAR
STARTCHAR 0E52
ENCODING 3666
SWIDTH 720 0
DWIDTH 7 0
BBX 5 6 1 0
BITMAP
80
B8
E8
E8
88
F8
ENDCHAR
STARTCHAR 0E53
ENCODING 3667
SWIDTH 720 0
DWIDTH 7 0
BBX 5 5 1 0
BITMAP
D8
A8
88
88
C8
ENDCHAR
STARTCHAR 0E54
ENCODING 3668
SWIDTH 720 0
DWIDTH 7 0
BBX 6 6 1 0
BITMAP
04
78
80
98
98
78
ENDCHAR
STARTCHAR 0E55
ENCODING 3669
SWIDTH 720 0
DWIDTH 7 0
BBX 6 6 1 0
BITMAP
34
F8
80
98
98
78
ENDCHAR
STARTCHAR 0E56
ENCODING 3670
SWIDTH 617 0
DWIDTH 6 0
BBX 5 6 1 0
BITMAP
80
F0
08
68
48
70
ENDCHAR
STARTCHAR 0E57
ENCODING 3671
SWIDTH 822 0
DWIDTH 8 0
BBX 6 6 1 0
BITMAP
04
F4
D4
94
94
DC
ENDCHAR
STARTCHAR 0E58
ENCODING 3672
SWIDTH 822 0
DWIDTH 8 0
BBX 6 6 1 0
BITMAP
04
78
80
8C
B4
CC
ENDCHAR
STARTCHAR 0E59
ENCODING 3673
SWIDTH 720 0
DWIDTH 7 0
BBX 6 6 1 0
BITMAP
04
D4
A8
A0
A0
D0
ENDCHAR
STARTCHAR 0E5A
ENCODING 3674
SWIDTH 720 0
DWIDTH 7 0
BBX 6 5 0 0
BITMAP
D4
6C
0C
0C
0C
ENDCHAR
STARTCHAR 0E5B
ENCODING 3675
SWIDTH 1131 0
DWIDTH 11 0
BBX 9 5 1 0
BITMAP
7000
8000
8E80
9B80
6000
ENDCHAR
STARTCHAR 17DB
ENCODING 6107
SWIDTH 514 0
DWIDTH 5 0
BBX 3 8 1 0
BITMAP
40
A0
C0
40
E0
40
C0
C0
ENDCHAR
STARTCHAR 1D00
ENCODING 7424
SWIDTH 514 0
DWIDTH 5 0
BBX 5 5 0 0
BITMAP
20
50
50
70
88
ENDCHAR
STARTCHAR 1D01
ENCODING 7425
SWIDTH 720 0
DWIDTH 7 0
BBX 7 5 0 0
BITMAP
3E
28
4E
78
8E
ENDCHAR
STARTCHAR 1D02
ENCODING 7426
SWIDTH 925 0
DWIDTH 9 0
BBX 9 5 0 0
BITMAP
F700
0880
FF00
8800
7700
ENDCHAR
STARTCHAR 1D03
ENCODING 7427
SWIDTH 514 0
DWIDTH 5 0
BBX 5 5 0 0
BITMAP
70
50
F8
48
70
ENDCHAR
STARTCHAR 1D04
ENCODING 7428
SWIDTH 514 0
DWIDTH 5 0
BBX 4 5 0 0
BITMAP
70
C0
80
C0
70
ENDCHAR
STARTCHAR 1D05
ENCODING 7429
SWIDTH 617 0
DWIDTH 6 0
BBX 4 5 1 0
BITMAP
E0
90
90
90
E0
ENDCHAR
STARTCHAR 1D06
ENCODING 7430
SWIDTH 617 0
DWIDTH 6 0
BBX 5 5 0 0
BITMAP
70
48
E8
48
70
ENDCHAR
STARTCHAR 1D07
ENCODING 7431
SWIDTH 514 0
DWIDTH 5 0
BBX 3 5 1 0
BITMAP
E0
80
E0
80
E0
ENDCHAR
STARTCHAR 1D08
ENCODING 7432
SWIDTH 514 0
DWIDTH 5 0
BBX 4 5 0 0
BITMAP
F0
10
60
10
F0
ENDCHAR
STARTCHAR 1D09
ENCODING 7433
SWIDTH 205 0
DWIDTH 2 0
BBX 1 7 1 -2
BITMAP
80
80
80
80
80
00
80
ENDCHAR
STARTCHAR 1D0A
ENCODING 7434
SWIDTH 411 0
DWIDTH 4 0
BBX 3 5 0 0
BITMAP
60
20
20
20
E0
ENDCHAR
STARTCHAR 1D0B
ENCODING 7435
SWIDTH 514 0
DWIDTH 5 0
BBX 4 5 1 0
BITMAP
B0
A0
C0
A0
B0
ENDCHAR
STARTCHAR 1D0C
ENCODING 7436
SWIDTH 411 0
DWIDTH 4 0
BBX 4 5 0 0
BITMAP
40
60
40
C0
70
ENDCHAR
STARTCHAR 1D0D
ENCODING 7437
SWIDTH 617 0
DWIDTH 6 0
BBX 5 5 1 0
BITMAP
98
D8
E8
A8
88
ENDCHAR
STARTCHAR 1D0E
ENCODING 7438
SWIDTH 617 0
DWIDTH 6 0
BBX 4 5 1 0
BITMAP
90
B0
D0
D0
90
ENDCHAR
STARTCHAR 1D0F
ENCODING 7439
SWIDTH 514 0
DWIDTH 5 0
BBX 5 5 0 0
BITMAP
70
88
88
C8
70
ENDCHAR
STARTCHAR 1D10
ENCODING 7440
SWIDTH 514 0
DWIDTH 5 0
BBX 4 5 0 0
BITMAP
E0
10
10
10
E0
ENDCHAR
STARTCHAR 1D11
ENCODING 7441
SWIDTH 617 0
DWIDTH 6 0
BBX 6 5 0 0
BITMAP
78
84
84
84
78
ENDCHAR
STARTCHAR 1D12
ENCODING 7442
SWIDTH 617 0
DWIDTH 6 0
BBX 6 4 0 1
BITMAP
78
84
84
84
ENDCHAR
STARTCHAR 1D13
ENCODING 7443
SWIDTH 617 0
DWIDTH 6 0
BBX 7 5 0 0
BITMAP
F8
44
B4
8C
7A
ENDCHAR
STARTCHAR 1D14
ENCODING 7444
SWIDTH 925 0
DWIDTH 9 0
BBX 9 5 0 0
BITMAP
F700
0880
F880
8880
7700
ENDCHAR
STARTCHAR 1D15
ENCODING 7445
SWIDTH 411 0
DWIDTH 4 0
BBX 4 5 0 0
BITMAP
90
60
90
90
70
ENDCHAR
STARTCHAR 1D16
ENCODING 7446
SWIDTH 514 0
DWIDTH 5 0
BBX 5 3 0 2
BITMAP
70
48
88
ENDCHAR
STARTCHAR 1D17
ENCODING 7447
SWIDTH 514 0
DWIDTH 5 0
BBX 5 3 0 0
BITMAP
88
48
70
ENDCHAR
STARTCHAR 1D18
ENCODING 7448
SWIDTH 514 0
DWIDTH 5 0
BBX 4 5 1 0
BITMAP
E0
90
90
E0
80
ENDCHAR
STARTCHAR 1D19
ENCODING 7449
SWIDTH 514 0
DWIDTH 5 0
BBX 4 5 1 0
BITMAP
F0
90
F0
90
90
ENDCHAR
STARTCHAR 1D1A
ENCODING 7450
SWIDTH 514 0
DWIDTH 5 0
BBX 4 5 1 0
BITMAP
90
90
F0
90
F0
ENDCHAR
STARTCHAR 1D1B
ENCODING 7451
SWIDTH 514 0
DWIDTH 5 0
BBX 5 5 0 0
BITMAP
F8
20
20
20
20
ENDCHAR
STARTCHAR 1D1C
ENCODING 7452
SWIDTH 617 0
DWIDTH 6 0
BBX 4 5 1 0
BITMAP
90
90
90
90
E0
ENDCHAR
STARTCHAR 1D1D
ENCODING 7453
SWIDTH 720 0
DWIDTH 7 0
BBX 5 4 1 1
BITMAP
F8
08
08
F8
ENDCHAR
STARTCHAR 1D1E
ENCODING 7454
SWIDTH 822 0
DWIDTH 8 0
BBX 7 4 0 1
BITMAP
BE
02
82
3E
ENDCHAR
STARTCHAR 1D1F
ENCODING 7455
SWIDTH 822 0
DWIDTH 8 0
BBX 6 7 1 -1
BITMAP
FC
04
04
FC
04
04
FC
ENDCHAR
STARTCHAR 1D20
ENCODING 7456
SWIDTH 514 0
DWIDTH 5 0
BBX 5 5 0 0
BITMAP
88
50
50
50
20
ENDCHAR
STARTCHAR 1D21
ENCODING 7457
SWIDTH 720 0
DWIDTH 7 0
BBX 7 5 0 0
BITMAP
92
5A
6A
6C
64
ENDCHAR
STARTCHAR 1D22
ENCODING 7458
SWIDTH 411 0
DWIDTH 4 0
BBX 4 5 0 0
BITMAP
F0
10
20
40
F0
ENDCHAR
STARTCHAR 1D23
ENCODING 7459
SWIDTH 411 0
DWIDTH 4 0
BBX 4 5 0 0
BITMAP
F0
20
70
10
F0
ENDCHAR
STARTCHAR 1D24
ENCODING 7460
SWIDTH 514 0
DWIDTH 5 0
BBX 5 5 0 0
BITMAP
78
38
60
80
70
ENDCHAR
STARTCHAR 1D25
ENCODING 7461
SWIDTH 617 0
DWIDTH 6 0
BBX 6 5 0 0
BITMAP
30
78
30
B4
68
ENDCHAR
STARTCHAR 1D26
ENCODING 7462
SWIDTH 411 0
DWIDTH 4 0
BBX 3 5 1 0
BITMAP
E0
80
80
80
80
ENDCHAR
STARTCHAR 1D27
ENCODING 7463
SWIDTH 514 0
DWIDTH 5 0
BBX 5 5 0 0
BITMAP
20
50
50
50
88
ENDCHAR
STARTCHAR 1D28
ENCODING 7464
SWIDTH 617 0
DWIDTH 6 0
BBX 4 5 1 0
BITMAP
F0
90
90
90
90
ENDCHAR
STARTCHAR 1D29
ENCODING 7465
SWIDTH 514 0
DWIDTH 5 0
BBX 4 5 1 0
BITMAP
E0
90
90
E0
80
ENDCHAR
STARTCHAR 1D2A
ENCODING 7466
SWIDTH 720 0
DWIDTH 7 0
BBX 6 5 1 0
BITMAP
A4
AC
F8
20
20
ENDCHAR
STARTCHAR 1D2B
ENCODING 7467
SWIDTH 617 0
DWIDTH 6 0
BBX 5 5 0 0
BITMAP
78
48
48
48
88
ENDCHAR
STARTCHAR 1D2C
ENCODING 7468
SWIDTH 411 0
DWIDTH 4 0
BBX 4 5 0 2
BITMAP
60
60
60
F0
90
ENDCHAR
STARTCHAR 1D2D
ENCODING 7469
SWIDTH 617 0
DWIDTH 6 0
BBX 6 5 0 2
BITMAP
3C
50
5C
70
9C
ENDCHAR
STARTCHAR 1D2E
ENCODING 7470
SWIDTH 411 0
DWIDTH 4 0
BBX 4 5 0 2
BITMAP
E0
90
E0
90
E0
ENDCHAR
STARTCHAR 1D2F
ENCODING 7471
SWIDTH 411 0
DWIDTH 4 0
BBX 4 5 0 2
BITMAP
E0
90
F0
90
E0
ENDCHAR
STARTCHAR 1D30
ENCODING 7472
SWIDTH 514 0
DWIDTH 5 0
BBX 4 5 0 2
BITMAP
E0
90
90
90
E0
ENDCHAR
STARTCHAR 1D31
ENCODING 7473
SWIDTH 411 0
DWIDTH 4 0
BBX 4 5 0 2
BITMAP
F0
80
E0
80
F0
ENDCHAR
STARTCHAR 1D32
ENCODING 7474
SWIDTH 411 0
DWIDTH 4 0
BBX 3 5 0 2
BITMAP
E0
20
60
20
E0
ENDCHAR
STARTCHAR 1D33
ENCODING 7475
SWIDTH 514 0
DWIDTH 5 0
BBX 4 5 0 2
BITMAP
70
80
90
90
70
ENDCHAR
STARTCHAR 1D34
ENCODING 7476
SWIDTH 514 0
DWIDTH 5 0
BBX 4 5 0 2
BITMAP
90
90
F0
90
90
ENDCHAR
STARTCHAR 1D35
ENCODING 7477
SWIDTH 308 0
DWIDTH 3 0
BBX 2 5 0 2
BITMAP
C0
40
40
40
C0
ENDCHAR
STARTCHAR 1D36
ENCODING 7478
SWIDTH 308 0
DWIDTH 3 0
BBX 3 5 0 2
BITMAP
60
20
20
20
C0
ENDCHAR
STARTCHAR 1D37
ENCODING 7479
SWIDTH 411 0
DWIDTH 4 0
BBX 4 5 0 2
BITMAP
90
A0
C0
A0
90
ENDCHAR
STARTCHAR 1D38
ENCODING 7480
SWIDTH 411 0
DWIDTH 4 0
BBX 3 5 0 2
BITMAP
80
80
80
80
E0
ENDCHAR
STARTCHAR 1D39
ENCODING 7481
SWIDTH 514 0
DWIDTH 5 0
BBX 5 5 0 2
BITMAP
C8
D8
A8
A8
88
ENDCHAR
STARTCHAR 1D3A
ENCODING 7482
SWIDTH 411 0
DWIDTH 4 0
BBX 4 5 0 2
BITMAP
D0
D0
B0
90
90
ENDCHAR
STARTCHAR 1D3B
ENCODING 7483
SWIDTH 411 0
DWIDTH 4 0
BBX 4 5 0 2
BITMAP
90
B0
B0
D0
90
ENDCHAR
STARTCHAR 1D3C
ENCODING 7484
SWIDTH 514 0
DWIDTH 5 0
BBX 5 5 0 2
BITMAP
70
88
88
88
70
ENDCHAR
STARTCHAR 1D3D
ENCODING 7485
SWIDTH 411 0
DWIDTH 4 0
BBX 4 5 0 2
BITMAP
A0
60
90
90
60
ENDCHAR
STARTCHAR 1D3E
ENCODING 7486
SWIDTH 411 0
DWIDTH 4 0
BBX 4 5 0 2
BITMAP
E0
90
90
E0
80
ENDCHAR
STARTCHAR 1D3F
ENCODING 7487
SWIDTH 411 0
DWIDTH 4 0
BBX 4 5 0 2
BITMAP
E0
90
E0
A0
90
ENDCHAR
STARTCHAR 1D40
ENCODING 7488
SWIDTH 514 0
DWIDTH 5 0
BBX 4 5 0 2
BITMAP
F0
20
20
20
20
ENDCHAR
STARTCHAR 1D41
ENCODING 7489
SWIDTH 514 0
DWIDTH 5 0
BBX 4 5 0 2
BITMAP
90
90
90
90
70
ENDCHAR
STARTCHAR 1D42
ENCODING 7490
SWIDTH 617 0
DWIDTH 6 0
BBX 6 5 0 2
BITMAP
A4
B4
B8
48
48
ENDCHAR
STARTCHAR 1D43
ENCODING 7491
SWIDTH 411 0
DWIDTH 4 0
BBX 2 4 1 2
BITMAP
C0
40
C0
C0
ENDCHAR
STARTCHAR 1D44
ENCODING 7492
SWIDTH 411 0
DWIDTH 4 0
BBX 3 4 0 2
BITMAP
E0
E0
80
60
ENDCHAR
STARTCHAR 1D45
ENCODING 7493
SWIDTH 411 0
DWIDTH 4 0
BBX 3 3 0 2
BITMAP
60
A0
60
ENDCHAR
STARTCHAR 1D46
ENCODING 7494
SWIDTH 617 0
DWIDTH 6 0
BBX 6 4 0 2
BITMAP
FC
1C
F0
7C
ENDCHAR
STARTCHAR 1D47
ENCODING 7495
SWIDTH 411 0
DWIDTH 4 0
BBX 4 5 0 2
BITMAP
80
80
E0
90
E0
ENDCHAR
STARTCHAR 1D48
ENCODING 7496
SWIDTH 411 0
DWIDTH 4 0
BBX 3 5 0 2
BITMAP
20
20
60
A0
60
ENDCHAR
STARTCHAR 1D49
ENCODING 7497
SWIDTH 411 0
DWIDTH 4 0
BBX 4 4 0 2
BITMAP
60
F0
80
60
ENDCHAR
STARTCHAR 1D4A
ENCODING 7498
SWIDTH 411 0
DWIDTH 4 0
BBX 4 4 0 2
BITMAP
E0
10
F0
60
ENDCHAR
STARTCHAR 1D4B
ENCODING 7499
SWIDTH 411 0
DWIDTH 4 0
BBX 3 3 0 2
BITMAP
60
40
E0
ENDCHAR
STARTCHAR 1D4C
ENCODING 7500
SWIDTH 411 0
DWIDTH 4 0
BBX 3 3 0 2
BITMAP
60
60
E0
ENDCHAR
STARTCHAR 1D4D
ENCODING 7501
SWIDTH 411 0
DWIDTH 4 0
BBX 3 5 0 0
BITMAP
60
A0
60
20
60
ENDCHAR
STARTCHAR 1D4E
ENCODING 7502
SWIDTH 205 0
DWIDTH 2 0
BBX 1 5 0 0
BITMAP
80
80
80
00
80
ENDCHAR
STARTCHAR 1D4F
ENCODING 7503
SWIDTH 411 0
DWIDTH 4 0
BBX 3 5 0 2
BITMAP
80
80
A0
C0
A0
ENDCHAR
STARTCHAR 1D50
ENCODING 7504
SWIDTH 617 0
DWIDTH 6 0
BBX 5 3 0 2
BITMAP
F8
A8
A8
ENDCHAR
STARTCHAR 1D51
ENCODING 7505
SWIDTH 411 0
DWIDTH 4 0
BBX 3 5 0 0
BITMAP
E0
A0
A0
20
20
ENDCHAR
STARTCHAR 1D52
ENCODING 7506
SWIDTH 411 0
DWIDTH 4 0
BBX 4 3 0 2
BITMAP
60
90
60
ENDCHAR
STARTCHAR 1D53
ENCODING 7507
SWIDTH 411 0
DWIDTH 4 0
BBX 3 3 0 2
BITMAP
E0
20
E0
ENDCHAR
STARTCHAR 1D54
ENCODING 7508
SWIDTH 411 0
DWIDTH 4 0
BBX 4 2 0 3
BITMAP
60
90
ENDCHAR
STARTCHAR 1D55
ENCODING 7509
SWIDTH 411 0
DWIDTH 4 0
BBX 4 2 0 2
BITMAP
90
60
ENDCHAR
STARTCHAR 1D56
ENCODING 7510
SWIDTH 411 0
DWIDTH 4 0
BBX 4 4 0 1
BITMAP
E0
90
E0
80
ENDCHAR
STARTCHAR 1D57
ENCODING 7511
SWIDTH 308 0
DWIDTH 3 0
BBX 3 4 0 2
BITMAP
40
E0
40
60
ENDCHAR
STARTCHAR 1D58
ENCODING 7512
SWIDTH 411 0
DWIDTH 4 0
BBX 3 3 0 2
BITMAP
A0
A0
60
ENDCHAR
STARTCHAR 1D59
ENCODING 7513
SWIDTH 514 0
DWIDTH 5 0
BBX 4 4 0 2
BITMAP
F0
10
10
F0
ENDCHAR
STARTCHAR 1D5A
ENCODING 7514
SWIDTH 617 0
DWIDTH 6 0
BBX 5 3 0 2
BITMAP
A8
A8
78
ENDCHAR
STARTCHAR 1D5B
ENCODING 7515
SWIDTH 308 0
DWIDTH 3 0
BBX 3 3 0 2
BITMAP
A0
60
40
ENDCHAR
STARTCHAR 1D5C
ENCODING 7516
SWIDTH 411 0
DWIDTH 4 0
BBX 4 3 0 2
BITMAP
60
20
F0
ENDCHAR
STARTCHAR 1D5D
ENCODING 7517
SWIDTH 411 0
DWIDTH 4 0
BBX 4 6 0 1
BITMAP
60
A0
A0
90
E0
80
ENDCHAR
STARTCHAR 1D5E
ENCODING 7518
SWIDTH 308 0
DWIDTH 3 0
BBX 3 5 0 0
BITMAP
A0
60
40
40
40
ENDCHAR
STARTCHAR 1D5F
ENCODING 7519
SWIDTH 411 0
DWIDTH 4 0
BBX 4 5 0 2
BITMAP
60
40
60
90
60
ENDCHAR
STARTCHAR 1D60
ENCODING 7520
SWIDTH 514 0
DWIDTH 5 0
BBX 5 4 0 1
BITMAP
B0
A8
70
20
ENDCHAR
STARTCHAR 1D61
ENCODING 7521
SWIDTH 308 0
DWIDTH 3 0
BBX 3 4 0 1
BITMAP
A0
40
40
A0
ENDCHAR
STARTCHAR 1D62
ENCODING 7522
SWIDTH 205 0
DWIDTH 2 0
BBX 1 6 0 -1
BITMAP
80
00
80
80
80
80
ENDCHAR
STARTCHAR 1D63
ENCODING 7523
SWIDTH 308 0
DWIDTH 3 0
BBX 2 4 0 -1
BITMAP
C0
80
80
80
ENDCHAR
STARTCHAR 1D64
ENCODING 7524
SWIDTH 411 0
DWIDTH 4 0
BBX 3 4 0 -1
BITMAP
A0
A0
A0
60
ENDCHAR
STARTCHAR 1D65
ENCODING 7525
SWIDTH 308 0
DWIDTH 3 0
BBX 3 4 0 -1
BITMAP
A0
A0
40
40
ENDCHAR
STARTCHAR 1D66
ENCODING 7526
SWIDTH 411 0
DWIDTH 4 0
BBX 4 6 0 -2
BITMAP
60
A0
A0
90
E0
80
ENDCHAR
ENDFONT
